<?xml version="1.0" encoding="utf-8" standalone="no"?>
<!DOCTYPE svg PUBLIC "-//W3C//DTD SVG 1.1//EN"
  "http://www.w3.org/Graphics/SVG/1.1/DTD/svg11.dtd">
<svg xmlns:xlink="http://www.w3.org/1999/xlink" width="864pt" height="216pt" viewBox="0 0 864 216" xmlns="http://www.w3.org/2000/svg" version="1.1">
 <metadata>
  <rdf:RDF xmlns:dc="http://purl.org/dc/elements/1.1/" xmlns:cc="http://creativecommons.org/ns#" xmlns:rdf="http://www.w3.org/1999/02/22-rdf-syntax-ns#">
   <cc:Work>
    <dc:type rdf:resource="http://purl.org/dc/dcmitype/StillImage"/>
    <dc:date>2022-04-23T14:43:05.293915</dc:date>
    <dc:format>image/svg+xml</dc:format>
    <dc:creator>
     <cc:Agent>
      <dc:title>Matplotlib v3.5.1, https://matplotlib.org/</dc:title>
     </cc:Agent>
    </dc:creator>
   </cc:Work>
  </rdf:RDF>
 </metadata>
 <defs>
  <style type="text/css">*{stroke-linejoin: round; stroke-linecap: butt}</style>
 </defs>
 <g id="figure_1">
  <g id="patch_1">
   <path d="M 0 216 
L 864 216 
L 864 0 
L 0 0 
L 0 216 
z
" style="fill: none"/>
  </g>
  <g id="axes_1">
   <g id="patch_2">
    <path d="M 10.8 174.2 
L 853.2 174.2 
L 853.2 10.8 
L 10.8 10.8 
L 10.8 174.2 
z
" style="fill: none"/>
   </g>
   <g id="PolyCollection_1">
    <defs>
     <path id="m09cc905f1d" d="M 566.431741 -41.838889 
L 566.431741 -41.8 
L 567.680371 -41.8 
L 568.929001 -41.8 
L 570.177631 -41.8 
L 571.426261 -41.8 
L 572.674891 -41.8 
L 573.923521 -41.8 
L 575.172151 -41.8 
L 576.42078 -41.8 
L 577.66941 -41.8 
L 578.91804 -41.8 
L 580.16667 -41.8 
L 581.4153 -41.8 
L 582.66393 -41.8 
L 583.91256 -41.8 
L 585.16119 -41.8 
L 586.40982 -41.8 
L 587.65845 -41.8 
L 588.907079 -41.8 
L 590.155709 -41.8 
L 591.404339 -41.8 
L 592.652969 -41.8 
L 593.901599 -41.8 
L 595.150229 -41.8 
L 596.398859 -41.8 
L 597.647489 -41.8 
L 598.896119 -41.8 
L 600.144748 -41.8 
L 601.393378 -41.8 
L 602.642008 -41.8 
L 603.890638 -41.8 
L 605.139268 -41.8 
L 606.387898 -41.8 
L 607.636528 -41.8 
L 608.885158 -41.8 
L 610.133788 -41.8 
L 611.382418 -41.8 
L 612.631047 -41.8 
L 613.879677 -41.8 
L 615.128307 -41.8 
L 616.376937 -41.8 
L 617.625567 -41.8 
L 618.874197 -41.8 
L 620.122827 -41.8 
L 621.371457 -41.8 
L 622.620087 -41.8 
L 623.868717 -41.8 
L 625.117346 -41.8 
L 626.365976 -41.8 
L 627.614606 -41.8 
L 628.863236 -41.8 
L 630.111866 -41.8 
L 631.360496 -41.8 
L 632.609126 -41.8 
L 633.857756 -41.8 
L 635.106386 -41.8 
L 636.355016 -41.8 
L 637.603645 -41.8 
L 638.852275 -41.8 
L 640.100905 -41.8 
L 641.349535 -41.8 
L 642.598165 -41.8 
L 643.846795 -41.8 
L 645.095425 -41.8 
L 646.344055 -41.8 
L 647.592685 -41.8 
L 648.841314 -41.8 
L 650.089944 -41.8 
L 651.338574 -41.8 
L 652.587204 -41.8 
L 653.835834 -41.8 
L 655.084464 -41.8 
L 656.333094 -41.8 
L 657.581724 -41.8 
L 658.830354 -41.8 
L 660.078984 -41.8 
L 661.327613 -41.8 
L 662.576243 -41.8 
L 663.824873 -41.8 
L 665.073503 -41.8 
L 666.322133 -41.8 
L 667.570763 -41.8 
L 668.819393 -41.8 
L 670.068023 -41.8 
L 671.316653 -41.8 
L 672.565283 -41.8 
L 673.813912 -41.8 
L 675.062542 -41.8 
L 676.311172 -41.8 
L 677.559802 -41.8 
L 678.808432 -41.8 
L 680.057062 -41.8 
L 681.305692 -41.8 
L 682.554322 -41.8 
L 683.802952 -41.8 
L 685.051582 -41.8 
L 686.300211 -41.8 
L 687.548841 -41.8 
L 688.797471 -41.8 
L 690.046101 -41.8 
L 691.294731 -41.8 
L 692.543361 -41.8 
L 693.791991 -41.8 
L 695.040621 -41.8 
L 696.289251 -41.8 
L 697.537881 -41.8 
L 698.78651 -41.8 
L 700.03514 -41.8 
L 701.28377 -41.8 
L 702.5324 -41.8 
L 703.78103 -41.8 
L 705.02966 -41.8 
L 706.27829 -41.8 
L 707.52692 -41.8 
L 708.77555 -41.8 
L 710.024179 -41.8 
L 711.272809 -41.8 
L 712.521439 -41.8 
L 713.770069 -41.8 
L 715.018699 -41.8 
L 716.267329 -41.8 
L 717.515959 -41.8 
L 718.764589 -41.8 
L 720.013219 -41.8 
L 721.261849 -41.8 
L 722.510478 -41.8 
L 723.759108 -41.8 
L 725.007738 -41.8 
L 726.256368 -41.8 
L 727.504998 -41.8 
L 728.753628 -41.8 
L 730.002258 -41.8 
L 731.250888 -41.8 
L 732.499518 -41.8 
L 733.748148 -41.8 
L 734.996777 -41.8 
L 736.245407 -41.8 
L 737.494037 -41.8 
L 738.742667 -41.8 
L 739.991297 -41.8 
L 741.239927 -41.8 
L 742.488557 -41.8 
L 743.737187 -41.8 
L 744.985817 -41.8 
L 746.234447 -41.8 
L 747.483076 -41.8 
L 748.731706 -41.8 
L 749.980336 -41.8 
L 751.228966 -41.8 
L 752.477596 -41.8 
L 753.726226 -41.8 
L 754.974856 -41.8 
L 756.223486 -41.8 
L 757.472116 -41.8 
L 758.720746 -41.8 
L 759.969375 -41.8 
L 761.218005 -41.8 
L 762.466635 -41.8 
L 763.715265 -41.8 
L 764.963895 -41.8 
L 766.212525 -41.8 
L 767.461155 -41.8 
L 768.709785 -41.8 
L 769.958415 -41.8 
L 771.207044 -41.8 
L 772.455674 -41.8 
L 773.704304 -41.8 
L 774.952934 -41.8 
L 776.201564 -41.8 
L 777.450194 -41.8 
L 778.698824 -41.8 
L 779.947454 -41.8 
L 781.196084 -41.8 
L 782.444714 -41.8 
L 783.693343 -41.8 
L 784.941973 -41.8 
L 786.190603 -41.8 
L 787.439233 -41.8 
L 788.687863 -41.8 
L 789.936493 -41.8 
L 791.185123 -41.8 
L 792.433753 -41.8 
L 793.682383 -41.8 
L 794.931013 -41.8 
L 796.179642 -41.8 
L 797.428272 -41.8 
L 798.676902 -41.8 
L 799.925532 -41.8 
L 801.174162 -41.8 
L 802.422792 -41.8 
L 803.671422 -41.8 
L 804.920052 -41.8 
L 806.168682 -41.8 
L 807.417312 -41.8 
L 808.665941 -41.8 
L 809.914571 -41.8 
L 811.163201 -41.8 
L 812.411831 -41.8 
L 813.660461 -41.8 
L 814.909091 -41.8 
L 814.909091 -41.80617 
L 814.909091 -41.80617 
L 813.660461 -41.807892 
L 812.411831 -41.810026 
L 811.163201 -41.81265 
L 809.914571 -41.815852 
L 808.665941 -41.819728 
L 807.417312 -41.824384 
L 806.168682 -41.829935 
L 804.920052 -41.836501 
L 803.671422 -41.844204 
L 802.422792 -41.853172 
L 801.174162 -41.863529 
L 799.925532 -41.875393 
L 798.676902 -41.888874 
L 797.428272 -41.904069 
L 796.179642 -41.921055 
L 794.931013 -41.939888 
L 793.682383 -41.960593 
L 792.433753 -41.98317 
L 791.185123 -42.00758 
L 789.936493 -42.033751 
L 788.687863 -42.061577 
L 787.439233 -42.090913 
L 786.190603 -42.121586 
L 784.941973 -42.153395 
L 783.693343 -42.186119 
L 782.444714 -42.219524 
L 781.196084 -42.253379 
L 779.947454 -42.287462 
L 778.698824 -42.321575 
L 777.450194 -42.355558 
L 776.201564 -42.389306 
L 774.952934 -42.422778 
L 773.704304 -42.456016 
L 772.455674 -42.489151 
L 771.207044 -42.522423 
L 769.958415 -42.556181 
L 768.709785 -42.590897 
L 767.461155 -42.627167 
L 766.212525 -42.665715 
L 764.963895 -42.707396 
L 763.715265 -42.753188 
L 762.466635 -42.804193 
L 761.218005 -42.861631 
L 759.969375 -42.926828 
L 758.720746 -43.001211 
L 757.472116 -43.086293 
L 756.223486 -43.183661 
L 754.974856 -43.294963 
L 753.726226 -43.421885 
L 752.477596 -43.566136 
L 751.228966 -43.729424 
L 749.980336 -43.913428 
L 748.731706 -44.119771 
L 747.483076 -44.349988 
L 746.234447 -44.605489 
L 744.985817 -44.887516 
L 743.737187 -45.197107 
L 742.488557 -45.535048 
L 741.239927 -45.901825 
L 739.991297 -46.297583 
L 738.742667 -46.722076 
L 737.494037 -47.17463 
L 736.245407 -47.654104 
L 734.996777 -48.158858 
L 733.748148 -48.68674 
L 732.499518 -49.235067 
L 731.250888 -49.800635 
L 730.002258 -50.37973 
L 728.753628 -50.968167 
L 727.504998 -51.561329 
L 726.256368 -52.154238 
L 725.007738 -52.741631 
L 723.759108 -53.318049 
L 722.510478 -53.877947 
L 721.261849 -54.415804 
L 720.013219 -54.926243 
L 718.764589 -55.404155 
L 717.515959 -55.844821 
L 716.267329 -56.244023 
L 715.018699 -56.598156 
L 713.770069 -56.904317 
L 712.521439 -57.16038 
L 711.272809 -57.365053 
L 710.024179 -57.517908 
L 708.77555 -57.619391 
L 707.52692 -57.670805 
L 706.27829 -57.674268 
L 705.02966 -57.632655 
L 703.78103 -57.549512 
L 702.5324 -57.428958 
L 701.28377 -57.27558 
L 700.03514 -57.094307 
L 698.78651 -56.890297 
L 697.537881 -56.668814 
L 696.289251 -56.435124 
L 695.040621 -56.194389 
L 693.791991 -55.951585 
L 692.543361 -55.711434 
L 691.294731 -55.478357 
L 690.046101 -55.256438 
L 688.797471 -55.049415 
L 687.548841 -54.860681 
L 686.300211 -54.693301 
L 685.051582 -54.550033 
L 683.802952 -54.433364 
L 682.554322 -54.345535 
L 681.305692 -54.288571 
L 680.057062 -54.264297 
L 678.808432 -54.27435 
L 677.559802 -54.320168 
L 676.311172 -54.402973 
L 675.062542 -54.523731 
L 673.813912 -54.683102 
L 672.565283 -54.881377 
L 671.316653 -55.118403 
L 670.068023 -55.393508 
L 668.819393 -55.705427 
L 667.570763 -56.052234 
L 666.322133 -56.431286 
L 665.073503 -56.839191 
L 663.824873 -57.271793 
L 662.576243 -57.724197 
L 661.327613 -58.190811 
L 660.078984 -58.665438 
L 658.830354 -59.141381 
L 657.581724 -59.611595 
L 656.333094 -60.06885 
L 655.084464 -60.505923 
L 653.835834 -60.915791 
L 652.587204 -61.291836 
L 651.338574 -61.62803 
L 650.089944 -61.919114 
L 648.841314 -62.160746 
L 647.592685 -62.349611 
L 646.344055 -62.483499 
L 645.095425 -62.561331 
L 643.846795 -62.583144 
L 642.598165 -62.550027 
L 641.349535 -62.464019 
L 640.100905 -62.327964 
L 638.852275 -62.145349 
L 637.603645 -61.920109 
L 636.355016 -61.656435 
L 635.106386 -61.358576 
L 633.857756 -61.030655 
L 632.609126 -60.676511 
L 631.360496 -60.299565 
L 630.111866 -59.902724 
L 628.863236 -59.488322 
L 627.614606 -59.058108 
L 626.365976 -58.613261 
L 625.117346 -58.154458 
L 623.868717 -57.681956 
L 622.620087 -57.195706 
L 621.371457 -56.695482 
L 620.122827 -56.181016 
L 618.874197 -55.652127 
L 617.625567 -55.108846 
L 616.376937 -54.551524 
L 615.128307 -53.980908 
L 613.879677 -53.398202 
L 612.631047 -52.805094 
L 611.382418 -52.203751 
L 610.133788 -51.596791 
L 608.885158 -50.987226 
L 607.636528 -50.378384 
L 606.387898 -49.77382 
L 605.139268 -49.177206 
L 603.890638 -48.592229 
L 602.642008 -48.022479 
L 601.393378 -47.471348 
L 600.144748 -46.941939 
L 598.896119 -46.43699 
L 597.647489 -45.958811 
L 596.398859 -45.509242 
L 595.150229 -45.089631 
L 593.901599 -44.700825 
L 592.652969 -44.343182 
L 591.404339 -44.016601 
L 590.155709 -43.720552 
L 588.907079 -43.454132 
L 587.65845 -43.216115 
L 586.40982 -43.005015 
L 585.16119 -42.819139 
L 583.91256 -42.656655 
L 582.66393 -42.51564 
L 581.4153 -42.394136 
L 580.16667 -42.290192 
L 578.91804 -42.201906 
L 577.66941 -42.127453 
L 576.42078 -42.065112 
L 575.172151 -42.013283 
L 573.923521 -41.970498 
L 572.674891 -41.935429 
L 571.426261 -41.906887 
L 570.177631 -41.88382 
L 568.929001 -41.86531 
L 567.680371 -41.85056 
L 566.431741 -41.838889 
z
" style="stroke: #d62728"/>
    </defs>
    <g clip-path="url(#pcd9636cdf4)">
     <use xlink:href="#m09cc905f1d" x="0" y="216" style="fill: #d62728; fill-opacity: 0.25; stroke: #d62728"/>
    </g>
   </g>
   <g id="PolyCollection_2">
    <defs>
     <path id="m20562f52df" d="M 244.359755 -41.920434 
L 244.359755 -41.8 
L 244.743871 -41.8 
L 245.127986 -41.8 
L 245.512101 -41.8 
L 245.896217 -41.8 
L 246.280332 -41.8 
L 246.664447 -41.8 
L 247.048563 -41.8 
L 247.432678 -41.8 
L 247.816793 -41.8 
L 248.200909 -41.8 
L 248.585024 -41.8 
L 248.969139 -41.8 
L 249.353255 -41.8 
L 249.73737 -41.8 
L 250.121485 -41.8 
L 250.505601 -41.8 
L 250.889716 -41.8 
L 251.273831 -41.8 
L 251.657947 -41.8 
L 252.042062 -41.8 
L 252.426177 -41.8 
L 252.810293 -41.8 
L 253.194408 -41.8 
L 253.578523 -41.8 
L 253.962639 -41.8 
L 254.346754 -41.8 
L 254.730869 -41.8 
L 255.114985 -41.8 
L 255.4991 -41.8 
L 255.883215 -41.8 
L 256.267331 -41.8 
L 256.651446 -41.8 
L 257.035561 -41.8 
L 257.419677 -41.8 
L 257.803792 -41.8 
L 258.187907 -41.8 
L 258.572023 -41.8 
L 258.956138 -41.8 
L 259.340253 -41.8 
L 259.724369 -41.8 
L 260.108484 -41.8 
L 260.492599 -41.8 
L 260.876715 -41.8 
L 261.26083 -41.8 
L 261.644945 -41.8 
L 262.029061 -41.8 
L 262.413176 -41.8 
L 262.797291 -41.8 
L 263.181407 -41.8 
L 263.565522 -41.8 
L 263.949637 -41.8 
L 264.333753 -41.8 
L 264.717868 -41.8 
L 265.101983 -41.8 
L 265.486099 -41.8 
L 265.870214 -41.8 
L 266.254329 -41.8 
L 266.638445 -41.8 
L 267.02256 -41.8 
L 267.406675 -41.8 
L 267.79079 -41.8 
L 268.174906 -41.8 
L 268.559021 -41.8 
L 268.943136 -41.8 
L 269.327252 -41.8 
L 269.711367 -41.8 
L 270.095482 -41.8 
L 270.479598 -41.8 
L 270.863713 -41.8 
L 271.247828 -41.8 
L 271.631944 -41.8 
L 272.016059 -41.8 
L 272.400174 -41.8 
L 272.78429 -41.8 
L 273.168405 -41.8 
L 273.55252 -41.8 
L 273.936636 -41.8 
L 274.320751 -41.8 
L 274.704866 -41.8 
L 275.088982 -41.8 
L 275.473097 -41.8 
L 275.857212 -41.8 
L 276.241328 -41.8 
L 276.625443 -41.8 
L 277.009558 -41.8 
L 277.393674 -41.8 
L 277.777789 -41.8 
L 278.161904 -41.8 
L 278.54602 -41.8 
L 278.930135 -41.8 
L 279.31425 -41.8 
L 279.698366 -41.8 
L 280.082481 -41.8 
L 280.466596 -41.8 
L 280.850712 -41.8 
L 281.234827 -41.8 
L 281.618942 -41.8 
L 282.003058 -41.8 
L 282.387173 -41.8 
L 282.771288 -41.8 
L 283.155404 -41.8 
L 283.539519 -41.8 
L 283.923634 -41.8 
L 284.30775 -41.8 
L 284.691865 -41.8 
L 285.07598 -41.8 
L 285.460096 -41.8 
L 285.844211 -41.8 
L 286.228326 -41.8 
L 286.612442 -41.8 
L 286.996557 -41.8 
L 287.380672 -41.8 
L 287.764788 -41.8 
L 288.148903 -41.8 
L 288.533018 -41.8 
L 288.917134 -41.8 
L 289.301249 -41.8 
L 289.685364 -41.8 
L 290.06948 -41.8 
L 290.453595 -41.8 
L 290.83771 -41.8 
L 291.221826 -41.8 
L 291.605941 -41.8 
L 291.990056 -41.8 
L 292.374171 -41.8 
L 292.758287 -41.8 
L 293.142402 -41.8 
L 293.526517 -41.8 
L 293.910633 -41.8 
L 294.294748 -41.8 
L 294.678863 -41.8 
L 295.062979 -41.8 
L 295.447094 -41.8 
L 295.831209 -41.8 
L 296.215325 -41.8 
L 296.59944 -41.8 
L 296.983555 -41.8 
L 297.367671 -41.8 
L 297.751786 -41.8 
L 298.135901 -41.8 
L 298.520017 -41.8 
L 298.904132 -41.8 
L 299.288247 -41.8 
L 299.672363 -41.8 
L 300.056478 -41.8 
L 300.440593 -41.8 
L 300.824709 -41.8 
L 301.208824 -41.8 
L 301.592939 -41.8 
L 301.977055 -41.8 
L 302.36117 -41.8 
L 302.745285 -41.8 
L 303.129401 -41.8 
L 303.513516 -41.8 
L 303.897631 -41.8 
L 304.281747 -41.8 
L 304.665862 -41.8 
L 305.049977 -41.8 
L 305.434093 -41.8 
L 305.818208 -41.8 
L 306.202323 -41.8 
L 306.586439 -41.8 
L 306.970554 -41.8 
L 307.354669 -41.8 
L 307.738785 -41.8 
L 308.1229 -41.8 
L 308.507015 -41.8 
L 308.891131 -41.8 
L 309.275246 -41.8 
L 309.659361 -41.8 
L 310.043477 -41.8 
L 310.427592 -41.8 
L 310.811707 -41.8 
L 311.195823 -41.8 
L 311.579938 -41.8 
L 311.964053 -41.8 
L 312.348169 -41.8 
L 312.732284 -41.8 
L 313.116399 -41.8 
L 313.500515 -41.8 
L 313.88463 -41.8 
L 314.268745 -41.8 
L 314.652861 -41.8 
L 315.036976 -41.8 
L 315.421091 -41.8 
L 315.805207 -41.8 
L 316.189322 -41.8 
L 316.573437 -41.8 
L 316.957552 -41.8 
L 317.341668 -41.8 
L 317.725783 -41.8 
L 318.109898 -41.8 
L 318.494014 -41.8 
L 318.878129 -41.8 
L 319.262244 -41.8 
L 319.64636 -41.8 
L 320.030475 -41.8 
L 320.41459 -41.8 
L 320.798706 -41.8 
L 320.798706 -41.828305 
L 320.798706 -41.828305 
L 320.41459 -41.839993 
L 320.030475 -41.855732 
L 319.64636 -41.876599 
L 319.262244 -41.903836 
L 318.878129 -41.938827 
L 318.494014 -41.983062 
L 318.109898 -42.038083 
L 317.725783 -42.105393 
L 317.341668 -42.186361 
L 316.957552 -42.282091 
L 316.573437 -42.393291 
L 316.189322 -42.520129 
L 315.805207 -42.662098 
L 315.421091 -42.817907 
L 315.036976 -42.985403 
L 314.652861 -43.161546 
L 314.268745 -43.342446 
L 313.88463 -43.523471 
L 313.500515 -43.699417 
L 313.116399 -43.864755 
L 312.732284 -44.013922 
L 312.348169 -44.141649 
L 311.964053 -44.243297 
L 311.579938 -44.315174 
L 311.195823 -44.354815 
L 310.811707 -44.36118 
L 310.427592 -44.334781 
L 310.043477 -44.2777 
L 309.659361 -44.193509 
L 309.275246 -44.087101 
L 308.891131 -43.964435 
L 308.507015 -43.832218 
L 308.1229 -43.697554 
L 307.738785 -43.567579 
L 307.354669 -43.449091 
L 306.970554 -43.348227 
L 306.586439 -43.270161 
L 306.202323 -43.218873 
L 305.818208 -43.196962 
L 305.434093 -43.205542 
L 305.049977 -43.244185 
L 304.665862 -43.310945 
L 304.281747 -43.402448 
L 303.897631 -43.514039 
L 303.513516 -43.640006 
L 303.129401 -43.773848 
L 302.745285 -43.908603 
L 302.36117 -44.037208 
L 301.977055 -44.152874 
L 301.592939 -44.249463 
L 301.208824 -44.321841 
L 300.824709 -44.366176 
L 300.440593 -44.380173 
L 300.056478 -44.36321 
L 299.672363 -44.316388 
L 299.288247 -44.242467 
L 298.904132 -44.145708 
L 298.520017 -44.031634 
L 298.135901 -43.906711 
L 297.751786 -43.777999 
L 297.367671 -43.652766 
L 296.983555 -43.538124 
L 296.59944 -43.440668 
L 296.215325 -43.366177 
L 295.831209 -43.319356 
L 295.447094 -43.303651 
L 295.062979 -43.321127 
L 294.678863 -43.372421 
L 294.294748 -43.456756 
L 293.910633 -43.572029 
L 293.526517 -43.714947 
L 293.142402 -43.881218 
L 292.758287 -44.065776 
L 292.374171 -44.263036 
L 291.990056 -44.467155 
L 291.605941 -44.67229 
L 291.221826 -44.872826 
L 290.83771 -45.063579 
L 290.453595 -45.239935 
L 290.06948 -45.397946 
L 289.685364 -45.534364 
L 289.301249 -45.646625 
L 288.917134 -45.732796 
L 288.533018 -45.791504 
L 288.148903 -45.821848 
L 287.764788 -45.823336 
L 287.380672 -45.795842 
L 286.996557 -45.73959 
L 286.612442 -45.655178 
L 286.228326 -45.543632 
L 285.844211 -45.406459 
L 285.460096 -45.245721 
L 285.07598 -45.064081 
L 284.691865 -44.864815 
L 284.30775 -44.651802 
L 283.923634 -44.429449 
L 283.539519 -44.202595 
L 283.155404 -43.976374 
L 282.771288 -43.75606 
L 282.387173 -43.546917 
L 282.003058 -43.354061 
L 281.618942 -43.182346 
L 281.234827 -43.036299 
L 280.850712 -42.920097 
L 280.466596 -42.837588 
L 280.082481 -42.792368 
L 279.698366 -42.787893 
L 279.31425 -42.827629 
L 278.930135 -42.915231 
L 278.54602 -43.054754 
L 278.161904 -43.250869 
L 277.777789 -43.509104 
L 277.393674 -43.836081 
L 277.009558 -44.239752 
L 276.625443 -44.729609 
L 276.241328 -45.316858 
L 275.857212 -46.014524 
L 275.473097 -46.837466 
L 275.088982 -47.802278 
L 274.704866 -48.927054 
L 274.320751 -50.230998 
L 273.936636 -51.733895 
L 273.55252 -53.455444 
L 273.168405 -55.414508 
L 272.78429 -57.628305 
L 272.400174 -60.111634 
L 272.016059 -62.876178 
L 271.631944 -65.929967 
L 271.247828 -69.277042 
L 270.863713 -72.917363 
L 270.479598 -76.846947 
L 270.095482 -81.058233 
L 269.711367 -85.540592 
L 269.327252 -90.280908 
L 268.943136 -95.264136 
L 268.559021 -100.473721 
L 268.174906 -105.891808 
L 267.79079 -111.499143 
L 267.406675 -117.274672 
L 267.02256 -123.19482 
L 266.638445 -129.23252 
L 266.254329 -135.356092 
L 265.870214 -141.528095 
L 265.486099 -147.704305 
L 265.101983 -153.832969 
L 264.717868 -159.854468 
L 264.333753 -165.701497 
L 263.949637 -171.299819 
L 263.565522 -176.569607 
L 263.181407 -181.427332 
L 262.797291 -185.788111 
L 262.413176 -189.568385 
L 262.029061 -192.688781 
L 261.644945 -195.076989 
L 261.26083 -196.670498 
L 260.876715 -197.419048 
L 260.492599 -197.28668 
L 260.108484 -196.253297 
L 259.724369 -194.315676 
L 259.340253 -191.487912 
L 258.956138 -187.801301 
L 258.572023 -183.303664 
L 258.187907 -178.058181 
L 257.803792 -172.141756 
L 257.419677 -165.643003 
L 257.035561 -158.659897 
L 256.651446 -151.29718 
L 256.267331 -143.663608 
L 255.883215 -135.869115 
L 255.4991 -128.022 
L 255.114985 -120.226231 
L 254.730869 -112.578955 
L 254.346754 -105.168312 
L 253.962639 -98.071624 
L 253.578523 -91.354018 
L 253.194408 -85.067529 
L 252.810293 -79.250694 
L 252.426177 -73.928637 
L 252.042062 -69.113606 
L 251.657947 -64.805917 
L 251.273831 -60.995234 
L 250.889716 -57.662094 
L 250.505601 -54.779603 
L 250.121485 -52.315199 
L 249.73737 -50.232404 
L 249.353255 -48.492481 
L 248.969139 -47.05594 
L 248.585024 -45.883841 
L 248.200909 -44.93886 
L 247.816793 -44.186117 
L 247.432678 -43.593753 
L 247.048563 -43.133281 
L 246.664447 -42.779733 
L 246.280332 -42.511645 
L 245.896217 -42.310898 
L 245.512101 -42.162465 
L 245.127986 -42.054103 
L 244.743871 -41.976003 
L 244.359755 -41.920434 
z
" style="stroke: #2ca02c"/>
    </defs>
    <g clip-path="url(#pcd9636cdf4)">
     <use xlink:href="#m20562f52df" x="0" y="216" style="fill: #2ca02c; fill-opacity: 0.25; stroke: #2ca02c"/>
    </g>
   </g>
   <g id="PolyCollection_3">
    <defs>
     <path id="m586ab897ae" d="M 49.090909 -41.841941 
L 49.090909 -41.8 
L 49.521446 -41.8 
L 49.951983 -41.8 
L 50.38252 -41.8 
L 50.813058 -41.8 
L 51.243595 -41.8 
L 51.674132 -41.8 
L 52.104669 -41.8 
L 52.535206 -41.8 
L 52.965743 -41.8 
L 53.39628 -41.8 
L 53.826818 -41.8 
L 54.257355 -41.8 
L 54.687892 -41.8 
L 55.118429 -41.8 
L 55.548966 -41.8 
L 55.979503 -41.8 
L 56.41004 -41.8 
L 56.840577 -41.8 
L 57.271115 -41.8 
L 57.701652 -41.8 
L 58.132189 -41.8 
L 58.562726 -41.8 
L 58.993263 -41.8 
L 59.4238 -41.8 
L 59.854337 -41.8 
L 60.284874 -41.8 
L 60.715412 -41.8 
L 61.145949 -41.8 
L 61.576486 -41.8 
L 62.007023 -41.8 
L 62.43756 -41.8 
L 62.868097 -41.8 
L 63.298634 -41.8 
L 63.729171 -41.8 
L 64.159709 -41.8 
L 64.590246 -41.8 
L 65.020783 -41.8 
L 65.45132 -41.8 
L 65.881857 -41.8 
L 66.312394 -41.8 
L 66.742931 -41.8 
L 67.173469 -41.8 
L 67.604006 -41.8 
L 68.034543 -41.8 
L 68.46508 -41.8 
L 68.895617 -41.8 
L 69.326154 -41.8 
L 69.756691 -41.8 
L 70.187228 -41.8 
L 70.617766 -41.8 
L 71.048303 -41.8 
L 71.47884 -41.8 
L 71.909377 -41.8 
L 72.339914 -41.8 
L 72.770451 -41.8 
L 73.200988 -41.8 
L 73.631525 -41.8 
L 74.062063 -41.8 
L 74.4926 -41.8 
L 74.923137 -41.8 
L 75.353674 -41.8 
L 75.784211 -41.8 
L 76.214748 -41.8 
L 76.645285 -41.8 
L 77.075822 -41.8 
L 77.50636 -41.8 
L 77.936897 -41.8 
L 78.367434 -41.8 
L 78.797971 -41.8 
L 79.228508 -41.8 
L 79.659045 -41.8 
L 80.089582 -41.8 
L 80.52012 -41.8 
L 80.950657 -41.8 
L 81.381194 -41.8 
L 81.811731 -41.8 
L 82.242268 -41.8 
L 82.672805 -41.8 
L 83.103342 -41.8 
L 83.533879 -41.8 
L 83.964417 -41.8 
L 84.394954 -41.8 
L 84.825491 -41.8 
L 85.256028 -41.8 
L 85.686565 -41.8 
L 86.117102 -41.8 
L 86.547639 -41.8 
L 86.978176 -41.8 
L 87.408714 -41.8 
L 87.839251 -41.8 
L 88.269788 -41.8 
L 88.700325 -41.8 
L 89.130862 -41.8 
L 89.561399 -41.8 
L 89.991936 -41.8 
L 90.422473 -41.8 
L 90.853011 -41.8 
L 91.283548 -41.8 
L 91.714085 -41.8 
L 92.144622 -41.8 
L 92.575159 -41.8 
L 93.005696 -41.8 
L 93.436233 -41.8 
L 93.86677 -41.8 
L 94.297308 -41.8 
L 94.727845 -41.8 
L 95.158382 -41.8 
L 95.588919 -41.8 
L 96.019456 -41.8 
L 96.449993 -41.8 
L 96.88053 -41.8 
L 97.311068 -41.8 
L 97.741605 -41.8 
L 98.172142 -41.8 
L 98.602679 -41.8 
L 99.033216 -41.8 
L 99.463753 -41.8 
L 99.89429 -41.8 
L 100.324827 -41.8 
L 100.755365 -41.8 
L 101.185902 -41.8 
L 101.616439 -41.8 
L 102.046976 -41.8 
L 102.477513 -41.8 
L 102.90805 -41.8 
L 103.338587 -41.8 
L 103.769124 -41.8 
L 104.199662 -41.8 
L 104.630199 -41.8 
L 105.060736 -41.8 
L 105.491273 -41.8 
L 105.92181 -41.8 
L 106.352347 -41.8 
L 106.782884 -41.8 
L 107.213421 -41.8 
L 107.643959 -41.8 
L 108.074496 -41.8 
L 108.505033 -41.8 
L 108.93557 -41.8 
L 109.366107 -41.8 
L 109.796644 -41.8 
L 110.227181 -41.8 
L 110.657719 -41.8 
L 111.088256 -41.8 
L 111.518793 -41.8 
L 111.94933 -41.8 
L 112.379867 -41.8 
L 112.810404 -41.8 
L 113.240941 -41.8 
L 113.671478 -41.8 
L 114.102016 -41.8 
L 114.532553 -41.8 
L 114.96309 -41.8 
L 115.393627 -41.8 
L 115.824164 -41.8 
L 116.254701 -41.8 
L 116.685238 -41.8 
L 117.115775 -41.8 
L 117.546313 -41.8 
L 117.97685 -41.8 
L 118.407387 -41.8 
L 118.837924 -41.8 
L 119.268461 -41.8 
L 119.698998 -41.8 
L 120.129535 -41.8 
L 120.560072 -41.8 
L 120.99061 -41.8 
L 121.421147 -41.8 
L 121.851684 -41.8 
L 122.282221 -41.8 
L 122.712758 -41.8 
L 123.143295 -41.8 
L 123.573832 -41.8 
L 124.00437 -41.8 
L 124.434907 -41.8 
L 124.865444 -41.8 
L 125.295981 -41.8 
L 125.726518 -41.8 
L 126.157055 -41.8 
L 126.587592 -41.8 
L 127.018129 -41.8 
L 127.448667 -41.8 
L 127.879204 -41.8 
L 128.309741 -41.8 
L 128.740278 -41.8 
L 129.170815 -41.8 
L 129.601352 -41.8 
L 130.031889 -41.8 
L 130.462426 -41.8 
L 130.892964 -41.8 
L 131.323501 -41.8 
L 131.754038 -41.8 
L 132.184575 -41.8 
L 132.615112 -41.8 
L 133.045649 -41.8 
L 133.476186 -41.8 
L 133.906723 -41.8 
L 134.337261 -41.8 
L 134.767798 -41.8 
L 134.767798 -41.824237 
L 134.767798 -41.824237 
L 134.337261 -41.833772 
L 133.906723 -41.846471 
L 133.476186 -41.863144 
L 133.045649 -41.884729 
L 132.615112 -41.912275 
L 132.184575 -41.946927 
L 131.754038 -41.989887 
L 131.323501 -42.042375 
L 130.892964 -42.10556 
L 130.462426 -42.18049 
L 130.031889 -42.268015 
L 129.601352 -42.368694 
L 129.170815 -42.482717 
L 128.740278 -42.609832 
L 128.309741 -42.749288 
L 127.879204 -42.89981 
L 127.448667 -43.059603 
L 127.018129 -43.226393 
L 126.587592 -43.397509 
L 126.157055 -43.569994 
L 125.726518 -43.74075 
L 125.295981 -43.906696 
L 124.865444 -44.064929 
L 124.434907 -44.212876 
L 124.00437 -44.348413 
L 123.573832 -44.469952 
L 123.143295 -44.57647 
L 122.712758 -44.667491 
L 122.282221 -44.743017 
L 121.851684 -44.803413 
L 121.421147 -44.849267 
L 120.99061 -44.881239 
L 120.560072 -44.899916 
L 120.129535 -44.905695 
L 119.698998 -44.898707 
L 119.268461 -44.878795 
L 118.837924 -44.845538 
L 118.407387 -44.798338 
L 117.97685 -44.736535 
L 117.546313 -44.659556 
L 117.115775 -44.567064 
L 116.685238 -44.459098 
L 116.254701 -44.336184 
L 115.824164 -44.199397 
L 115.393627 -44.05038 
L 114.96309 -43.891301 
L 114.532553 -43.724773 
L 114.102016 -43.55372 
L 113.671478 -43.381233 
L 113.240941 -43.210403 
L 112.810404 -43.044165 
L 112.379867 -42.885158 
L 111.94933 -42.735613 
L 111.518793 -42.597278 
L 111.088256 -42.471376 
L 110.657719 -42.358611 
L 110.227181 -42.259191 
L 109.796644 -42.172889 
L 109.366107 -42.099113 
L 108.93557 -42.036996 
L 108.505033 -41.985475 
L 108.074496 -41.943377 
L 107.643959 -41.909491 
L 107.213421 -41.882626 
L 106.782884 -41.861662 
L 106.352347 -41.845584 
L 105.92181 -41.833503 
L 105.491273 -41.824674 
L 105.060736 -41.8185 
L 104.630199 -41.814536 
L 104.199662 -41.812494 
L 103.769124 -41.81224 
L 103.338587 -41.81381 
L 102.90805 -41.817412 
L 102.477513 -41.823452 
L 102.046976 -41.832552 
L 101.616439 -41.845584 
L 101.185902 -41.863707 
L 100.755365 -41.888409 
L 100.324827 -41.921548 
L 99.89429 -41.965406 
L 99.463753 -42.022732 
L 99.033216 -42.096792 
L 98.602679 -42.191411 
L 98.172142 -42.311019 
L 97.741605 -42.460694 
L 97.311068 -42.646211 
L 96.88053 -42.874094 
L 96.449993 -43.151682 
L 96.019456 -43.487204 
L 95.588919 -43.889881 
L 95.158382 -44.370031 
L 94.727845 -44.939189 
L 94.297308 -45.610216 
L 93.86677 -46.397391 
L 93.436233 -47.316435 
L 93.005696 -48.38446 
L 92.575159 -49.619782 
L 92.144622 -51.041571 
L 91.714085 -52.669317 
L 91.283548 -54.522068 
L 90.853011 -56.617466 
L 90.422473 -58.970593 
L 89.991936 -61.59267 
L 89.561399 -64.489699 
L 89.130862 -67.661134 
L 88.700325 -71.0987 
L 88.269788 -74.785486 
L 87.839251 -78.695416 
L 87.408714 -82.793196 
L 86.978176 -87.034803 
L 86.547639 -91.368521 
L 86.117102 -95.736511 
L 85.686565 -100.076821 
L 85.256028 -104.325725 
L 84.825491 -108.420228 
L 84.394954 -112.300577 
L 83.964417 -115.912593 
L 83.533879 -119.209674 
L 83.103342 -122.154349 
L 82.672805 -124.719298 
L 82.242268 -126.887806 
L 81.811731 -128.653672 
L 81.381194 -130.020626 
L 80.950657 -131.001351 
L 80.52012 -131.616217 
L 80.089582 -131.891852 
L 79.659045 -131.859645 
L 79.228508 -131.554298 
L 78.797971 -131.012474 
L 78.367434 -130.271609 
L 77.936897 -129.368898 
L 77.50636 -128.340457 
L 77.075822 -127.220659 
L 76.645285 -126.04161 
L 76.214748 -124.832752 
L 75.784211 -123.620553 
L 75.353674 -122.428281 
L 74.923137 -121.275824 
L 74.4926 -120.179556 
L 74.062063 -119.152223 
L 73.631525 -118.202854 
L 73.200988 -117.336678 
L 72.770451 -116.555048 
L 72.339914 -115.855378 
L 71.909377 -115.231086 
L 71.47884 -114.671582 
L 71.048303 -114.162298 
L 70.617766 -113.684807 
L 70.187228 -113.217058 
L 69.756691 -112.733764 
L 69.326154 -112.206968 
L 68.895617 -111.606803 
L 68.46508 -110.902457 
L 68.034543 -110.063313 
L 67.604006 -109.060229 
L 67.173469 -107.8669 
L 66.742931 -106.461222 
L 66.312394 -104.826563 
L 65.881857 -102.952859 
L 65.45132 -100.837442 
L 65.020783 -98.485532 
L 64.590246 -95.910345 
L 64.159709 -93.132785 
L 63.729171 -90.180753 
L 63.298634 -87.088085 
L 62.868097 -83.893205 
L 62.43756 -80.637565 
L 62.007023 -77.363985 
L 61.576486 -74.114981 
L 61.145949 -70.931186 
L 60.715412 -67.849954 
L 60.284874 -64.9042 
L 59.854337 -62.121545 
L 59.4238 -59.523759 
L 58.993263 -57.12653 
L 58.562726 -54.939518 
L 58.132189 -52.966673 
L 57.701652 -51.206753 
L 57.271115 -49.654008 
L 56.840577 -48.29895 
L 56.41004 -47.129177 
L 55.979503 -46.130189 
L 55.548966 -45.286161 
L 55.118429 -44.580645 
L 54.687892 -43.997171 
L 54.257355 -43.519747 
L 53.826818 -43.13324 
L 53.39628 -42.82366 
L 52.965743 -42.578333 
L 52.535206 -42.385999 
L 52.104669 -42.236826 
L 51.674132 -42.122371 
L 51.243595 -42.035504 
L 50.813058 -41.970292 
L 50.38252 -41.92187 
L 49.951983 -41.886312 
L 49.521446 -41.860487 
L 49.090909 -41.841941 
z
" style="stroke: #ff7f0e"/>
    </defs>
    <g clip-path="url(#pcd9636cdf4)">
     <use xlink:href="#m586ab897ae" x="0" y="216" style="fill: #ff7f0e; fill-opacity: 0.25; stroke: #ff7f0e"/>
    </g>
   </g>
   <g id="PolyCollection_4">
    <defs>
     <path id="mc8898b8da7" d="M 53.775457 -41.877054 
L 53.775457 -41.8 
L 54.150629 -41.8 
L 54.525801 -41.8 
L 54.900973 -41.8 
L 55.276145 -41.8 
L 55.651317 -41.8 
L 56.026489 -41.8 
L 56.401661 -41.8 
L 56.776832 -41.8 
L 57.152004 -41.8 
L 57.527176 -41.8 
L 57.902348 -41.8 
L 58.27752 -41.8 
L 58.652692 -41.8 
L 59.027864 -41.8 
L 59.403036 -41.8 
L 59.778208 -41.8 
L 60.15338 -41.8 
L 60.528551 -41.8 
L 60.903723 -41.8 
L 61.278895 -41.8 
L 61.654067 -41.8 
L 62.029239 -41.8 
L 62.404411 -41.8 
L 62.779583 -41.8 
L 63.154755 -41.8 
L 63.529927 -41.8 
L 63.905098 -41.8 
L 64.28027 -41.8 
L 64.655442 -41.8 
L 65.030614 -41.8 
L 65.405786 -41.8 
L 65.780958 -41.8 
L 66.15613 -41.8 
L 66.531302 -41.8 
L 66.906474 -41.8 
L 67.281645 -41.8 
L 67.656817 -41.8 
L 68.031989 -41.8 
L 68.407161 -41.8 
L 68.782333 -41.8 
L 69.157505 -41.8 
L 69.532677 -41.8 
L 69.907849 -41.8 
L 70.283021 -41.8 
L 70.658193 -41.8 
L 71.033364 -41.8 
L 71.408536 -41.8 
L 71.783708 -41.8 
L 72.15888 -41.8 
L 72.534052 -41.8 
L 72.909224 -41.8 
L 73.284396 -41.8 
L 73.659568 -41.8 
L 74.03474 -41.8 
L 74.409911 -41.8 
L 74.785083 -41.8 
L 75.160255 -41.8 
L 75.535427 -41.8 
L 75.910599 -41.8 
L 76.285771 -41.8 
L 76.660943 -41.8 
L 77.036115 -41.8 
L 77.411287 -41.8 
L 77.786458 -41.8 
L 78.16163 -41.8 
L 78.536802 -41.8 
L 78.911974 -41.8 
L 79.287146 -41.8 
L 79.662318 -41.8 
L 80.03749 -41.8 
L 80.412662 -41.8 
L 80.787834 -41.8 
L 81.163006 -41.8 
L 81.538177 -41.8 
L 81.913349 -41.8 
L 82.288521 -41.8 
L 82.663693 -41.8 
L 83.038865 -41.8 
L 83.414037 -41.8 
L 83.789209 -41.8 
L 84.164381 -41.8 
L 84.539553 -41.8 
L 84.914724 -41.8 
L 85.289896 -41.8 
L 85.665068 -41.8 
L 86.04024 -41.8 
L 86.415412 -41.8 
L 86.790584 -41.8 
L 87.165756 -41.8 
L 87.540928 -41.8 
L 87.9161 -41.8 
L 88.291272 -41.8 
L 88.666443 -41.8 
L 89.041615 -41.8 
L 89.416787 -41.8 
L 89.791959 -41.8 
L 90.167131 -41.8 
L 90.542303 -41.8 
L 90.917475 -41.8 
L 91.292647 -41.8 
L 91.667819 -41.8 
L 92.04299 -41.8 
L 92.418162 -41.8 
L 92.793334 -41.8 
L 93.168506 -41.8 
L 93.543678 -41.8 
L 93.91885 -41.8 
L 94.294022 -41.8 
L 94.669194 -41.8 
L 95.044366 -41.8 
L 95.419537 -41.8 
L 95.794709 -41.8 
L 96.169881 -41.8 
L 96.545053 -41.8 
L 96.920225 -41.8 
L 97.295397 -41.8 
L 97.670569 -41.8 
L 98.045741 -41.8 
L 98.420913 -41.8 
L 98.796085 -41.8 
L 99.171256 -41.8 
L 99.546428 -41.8 
L 99.9216 -41.8 
L 100.296772 -41.8 
L 100.671944 -41.8 
L 101.047116 -41.8 
L 101.422288 -41.8 
L 101.79746 -41.8 
L 102.172632 -41.8 
L 102.547803 -41.8 
L 102.922975 -41.8 
L 103.298147 -41.8 
L 103.673319 -41.8 
L 104.048491 -41.8 
L 104.423663 -41.8 
L 104.798835 -41.8 
L 105.174007 -41.8 
L 105.549179 -41.8 
L 105.92435 -41.8 
L 106.299522 -41.8 
L 106.674694 -41.8 
L 107.049866 -41.8 
L 107.425038 -41.8 
L 107.80021 -41.8 
L 108.175382 -41.8 
L 108.550554 -41.8 
L 108.925726 -41.8 
L 109.300898 -41.8 
L 109.676069 -41.8 
L 110.051241 -41.8 
L 110.426413 -41.8 
L 110.801585 -41.8 
L 111.176757 -41.8 
L 111.551929 -41.8 
L 111.927101 -41.8 
L 112.302273 -41.8 
L 112.677445 -41.8 
L 113.052616 -41.8 
L 113.427788 -41.8 
L 113.80296 -41.8 
L 114.178132 -41.8 
L 114.553304 -41.8 
L 114.928476 -41.8 
L 115.303648 -41.8 
L 115.67882 -41.8 
L 116.053992 -41.8 
L 116.429163 -41.8 
L 116.804335 -41.8 
L 117.179507 -41.8 
L 117.554679 -41.8 
L 117.929851 -41.8 
L 118.305023 -41.8 
L 118.680195 -41.8 
L 119.055367 -41.8 
L 119.430539 -41.8 
L 119.805711 -41.8 
L 120.180882 -41.8 
L 120.556054 -41.8 
L 120.931226 -41.8 
L 121.306398 -41.8 
L 121.68157 -41.8 
L 122.056742 -41.8 
L 122.431914 -41.8 
L 122.807086 -41.8 
L 123.182258 -41.8 
L 123.557429 -41.8 
L 123.932601 -41.8 
L 124.307773 -41.8 
L 124.682945 -41.8 
L 125.058117 -41.8 
L 125.433289 -41.8 
L 125.808461 -41.8 
L 126.183633 -41.8 
L 126.558805 -41.8 
L 126.933977 -41.8 
L 127.309148 -41.8 
L 127.68432 -41.8 
L 128.059492 -41.8 
L 128.434664 -41.8 
L 128.434664 -41.826915 
L 128.434664 -41.826915 
L 128.059492 -41.836517 
L 127.68432 -41.849063 
L 127.309148 -41.865278 
L 126.933977 -41.886016 
L 126.558805 -41.912252 
L 126.183633 -41.945093 
L 125.808461 -41.985764 
L 125.433289 -42.035594 
L 125.058117 -42.095997 
L 124.682945 -42.168438 
L 124.307773 -42.254395 
L 123.932601 -42.35531 
L 123.557429 -42.472533 
L 123.182258 -42.607266 
L 122.807086 -42.760498 
L 122.431914 -42.932947 
L 122.056742 -43.125006 
L 121.68157 -43.336692 
L 121.306398 -43.567615 
L 120.931226 -43.816954 
L 120.556054 -44.083456 
L 120.180882 -44.365443 
L 119.805711 -44.660847 
L 119.430539 -44.967247 
L 119.055367 -45.281925 
L 118.680195 -45.601929 
L 118.305023 -45.924131 
L 117.929851 -46.245293 
L 117.554679 -46.562119 
L 117.179507 -46.8713 
L 116.804335 -47.169546 
L 116.429163 -47.453612 
L 116.053992 -47.720311 
L 115.67882 -47.966519 
L 115.303648 -48.189186 
L 114.928476 -48.385348 
L 114.553304 -48.552146 
L 114.178132 -48.68687 
L 113.80296 -48.787013 
L 113.427788 -48.850347 
L 113.052616 -48.875016 
L 112.677445 -48.859648 
L 112.302273 -48.803466 
L 111.927101 -48.706403 
L 111.551929 -48.569199 
L 111.176757 -48.393483 
L 110.801585 -48.18182 
L 110.426413 -47.937712 
L 110.051241 -47.66556 
L 109.676069 -47.370581 
L 109.300898 -47.058666 
L 108.925726 -46.736213 
L 108.550554 -46.409909 
L 108.175382 -46.086504 
L 107.80021 -45.772563 
L 107.425038 -45.474222 
L 107.049866 -45.196965 
L 106.674694 -44.945419 
L 106.299522 -44.723192 
L 105.92435 -44.532747 
L 105.549179 -44.37534 
L 105.174007 -44.250995 
L 104.798835 -44.158546 
L 104.423663 -44.095713 
L 104.048491 -44.059243 
L 103.673319 -44.04507 
L 103.298147 -44.048516 
L 102.922975 -44.064512 
L 102.547803 -44.087822 
L 102.172632 -44.113276 
L 101.79746 -44.135984 
L 101.422288 -44.15153 
L 101.047116 -44.156138 
L 100.671944 -44.146804 
L 100.296772 -44.121375 
L 99.9216 -44.078599 
L 99.546428 -44.018117 
L 99.171256 -43.940418 
L 98.796085 -43.846764 
L 98.420913 -43.73907 
L 98.045741 -43.619777 
L 97.670569 -43.491702 
L 97.295397 -43.357899 
L 96.920225 -43.221508 
L 96.545053 -43.085639 
L 96.169881 -42.953262 
L 95.794709 -42.827131 
L 95.419537 -42.709734 
L 95.044366 -42.603268 
L 94.669194 -42.509646 
L 94.294022 -42.43052 
L 93.91885 -42.367324 
L 93.543678 -42.32133 
L 93.168506 -42.293705 
L 92.793334 -42.285576 
L 92.418162 -42.298081 
L 92.04299 -42.33242 
L 91.667819 -42.389891 
L 91.292647 -42.471916 
L 90.917475 -42.580064 
L 90.542303 -42.716067 
L 90.167131 -42.881835 
L 89.791959 -43.079482 
L 89.416787 -43.31137 
L 89.041615 -43.580177 
L 88.666443 -43.888987 
L 88.291272 -44.241429 
L 87.9161 -44.641843 
L 87.540928 -45.095487 
L 87.165756 -45.608772 
L 86.790584 -46.189512 
L 86.415412 -46.847176 
L 86.04024 -47.593123 
L 85.665068 -48.440779 
L 85.289896 -49.405748 
L 84.914724 -50.505817 
L 84.539553 -51.760829 
L 84.164381 -53.192413 
L 83.789209 -54.823548 
L 83.414037 -56.677967 
L 83.038865 -58.779407 
L 82.663693 -61.150739 
L 82.288521 -63.812999 
L 81.913349 -66.784382 
L 81.538177 -70.079252 
L 81.163006 -73.707223 
L 80.787834 -77.672374 
L 80.412662 -81.972658 
L 80.03749 -86.599525 
L 79.662318 -91.537807 
L 79.287146 -96.765852 
L 78.911974 -102.255895 
L 78.536802 -107.974626 
L 78.16163 -113.883903 
L 77.786458 -119.941539 
L 77.411287 -126.102089 
L 77.036115 -132.317574 
L 76.660943 -138.538075 
L 76.285771 -144.712164 
L 75.910599 -150.787161 
L 75.535427 -156.709217 
L 75.160255 -162.42328 
L 74.785083 -167.873007 
L 74.409911 -173.000691 
L 74.03474 -177.747326 
L 73.659568 -182.052868 
L 73.284396 -185.856799 
L 72.909224 -189.099025 
L 72.534052 -191.721145 
L 72.15888 -193.668067 
L 71.783708 -194.889905 
L 71.408536 -195.344086 
L 71.033364 -194.997503 
L 70.658193 -193.828605 
L 70.283021 -191.82924 
L 69.907849 -189.006113 
L 69.532677 -185.38172 
L 69.157505 -180.994664 
L 68.782333 -175.899292 
L 68.407161 -170.16463 
L 68.031989 -163.872665 
L 67.656817 -157.116043 
L 67.281645 -149.995301 
L 66.906474 -142.615795 
L 66.531302 -135.084465 
L 66.15613 -127.506628 
L 65.780958 -119.982953 
L 65.405786 -112.606757 
L 65.030614 -105.461739 
L 64.655442 -98.620245 
L 64.28027 -92.142085 
L 63.905098 -86.073936 
L 63.529927 -80.449287 
L 63.154755 -75.288887 
L 62.779583 -70.601606 
L 62.404411 -66.385634 
L 62.029239 -62.629915 
L 61.654067 -59.315717 
L 61.278895 -56.41826 
L 60.903723 -53.908305 
L 60.528551 -51.753664 
L 60.15338 -49.920555 
L 59.778208 -48.374784 
L 59.403036 -47.082738 
L 59.027864 -46.012167 
L 58.652692 -45.132781 
L 58.27752 -44.416655 
L 57.902348 -43.838482 
L 57.527176 -43.375682 
L 57.152004 -43.008399 
L 56.776832 -42.719411 
L 56.401661 -42.493972 
L 56.026489 -42.319615 
L 55.651317 -42.185924 
L 55.276145 -42.084298 
L 54.900973 -42.007715 
L 54.525801 -41.950507 
L 54.150629 -41.908146 
L 53.775457 -41.877054 
z
" style="stroke: #1f77b4"/>
    </defs>
    <g clip-path="url(#pcd9636cdf4)">
     <use xlink:href="#mc8898b8da7" x="0" y="216" style="fill: #1f77b4; fill-opacity: 0.25; stroke: #1f77b4"/>
    </g>
   </g>
   <g id="matplotlib.axis_1">
    <g id="xtick_1">
     <g id="line2d_1">
      <defs>
       <path id="mf43d3bf0d2" d="M 0 0 
L 0 3.5 
" style="stroke: #000000; stroke-width: 0.8"/>
      </defs>
      <g>
       <use xlink:href="#mf43d3bf0d2" x="62.729336" y="174.2" style="stroke: #000000; stroke-width: 0.8"/>
      </g>
     </g>
     <g id="text_1">
      <!-- 2 -->
      <g transform="translate(59.548086 188.798438)scale(0.1 -0.1)">
       <defs>
        <path id="DejaVuSans-32" d="M 1228 531 
L 3431 531 
L 3431 0 
L 469 0 
L 469 531 
Q 828 903 1448 1529 
Q 2069 2156 2228 2338 
Q 2531 2678 2651 2914 
Q 2772 3150 2772 3378 
Q 2772 3750 2511 3984 
Q 2250 4219 1831 4219 
Q 1534 4219 1204 4116 
Q 875 4013 500 3803 
L 500 4441 
Q 881 4594 1212 4672 
Q 1544 4750 1819 4750 
Q 2544 4750 2975 4387 
Q 3406 4025 3406 3419 
Q 3406 3131 3298 2873 
Q 3191 2616 2906 2266 
Q 2828 2175 2409 1742 
Q 1991 1309 1228 531 
z
" transform="scale(0.015625)"/>
       </defs>
       <use xlink:href="#DejaVuSans-32"/>
      </g>
     </g>
    </g>
    <g id="xtick_2">
     <g id="line2d_2">
      <g>
       <use xlink:href="#mf43d3bf0d2" x="212.374812" y="174.2" style="stroke: #000000; stroke-width: 0.8"/>
      </g>
     </g>
     <g id="text_2">
      <!-- 3 -->
      <g transform="translate(209.193562 188.798438)scale(0.1 -0.1)">
       <defs>
        <path id="DejaVuSans-33" d="M 2597 2516 
Q 3050 2419 3304 2112 
Q 3559 1806 3559 1356 
Q 3559 666 3084 287 
Q 2609 -91 1734 -91 
Q 1441 -91 1130 -33 
Q 819 25 488 141 
L 488 750 
Q 750 597 1062 519 
Q 1375 441 1716 441 
Q 2309 441 2620 675 
Q 2931 909 2931 1356 
Q 2931 1769 2642 2001 
Q 2353 2234 1838 2234 
L 1294 2234 
L 1294 2753 
L 1863 2753 
Q 2328 2753 2575 2939 
Q 2822 3125 2822 3475 
Q 2822 3834 2567 4026 
Q 2313 4219 1838 4219 
Q 1578 4219 1281 4162 
Q 984 4106 628 3988 
L 628 4550 
Q 988 4650 1302 4700 
Q 1616 4750 1894 4750 
Q 2613 4750 3031 4423 
Q 3450 4097 3450 3541 
Q 3450 3153 3228 2886 
Q 3006 2619 2597 2516 
z
" transform="scale(0.015625)"/>
       </defs>
       <use xlink:href="#DejaVuSans-33"/>
      </g>
     </g>
    </g>
    <g id="xtick_3">
     <g id="line2d_3">
      <g>
       <use xlink:href="#mf43d3bf0d2" x="362.020287" y="174.2" style="stroke: #000000; stroke-width: 0.8"/>
      </g>
     </g>
     <g id="text_3">
      <!-- 4 -->
      <g transform="translate(358.839037 188.798438)scale(0.1 -0.1)">
       <defs>
        <path id="DejaVuSans-34" d="M 2419 4116 
L 825 1625 
L 2419 1625 
L 2419 4116 
z
M 2253 4666 
L 3047 4666 
L 3047 1625 
L 3713 1625 
L 3713 1100 
L 3047 1100 
L 3047 0 
L 2419 0 
L 2419 1100 
L 313 1100 
L 313 1709 
L 2253 4666 
z
" transform="scale(0.015625)"/>
       </defs>
       <use xlink:href="#DejaVuSans-34"/>
      </g>
     </g>
    </g>
    <g id="xtick_4">
     <g id="line2d_4">
      <g>
       <use xlink:href="#mf43d3bf0d2" x="511.665763" y="174.2" style="stroke: #000000; stroke-width: 0.8"/>
      </g>
     </g>
     <g id="text_4">
      <!-- 5 -->
      <g transform="translate(508.484513 188.798438)scale(0.1 -0.1)">
       <defs>
        <path id="DejaVuSans-35" d="M 691 4666 
L 3169 4666 
L 3169 4134 
L 1269 4134 
L 1269 2991 
Q 1406 3038 1543 3061 
Q 1681 3084 1819 3084 
Q 2600 3084 3056 2656 
Q 3513 2228 3513 1497 
Q 3513 744 3044 326 
Q 2575 -91 1722 -91 
Q 1428 -91 1123 -41 
Q 819 9 494 109 
L 494 744 
Q 775 591 1075 516 
Q 1375 441 1709 441 
Q 2250 441 2565 725 
Q 2881 1009 2881 1497 
Q 2881 1984 2565 2268 
Q 2250 2553 1709 2553 
Q 1456 2553 1204 2497 
Q 953 2441 691 2322 
L 691 4666 
z
" transform="scale(0.015625)"/>
       </defs>
       <use xlink:href="#DejaVuSans-35"/>
      </g>
     </g>
    </g>
    <g id="xtick_5">
     <g id="line2d_5">
      <g>
       <use xlink:href="#mf43d3bf0d2" x="661.311238" y="174.2" style="stroke: #000000; stroke-width: 0.8"/>
      </g>
     </g>
     <g id="text_5">
      <!-- 6 -->
      <g transform="translate(658.129988 188.798438)scale(0.1 -0.1)">
       <defs>
        <path id="DejaVuSans-36" d="M 2113 2584 
Q 1688 2584 1439 2293 
Q 1191 2003 1191 1497 
Q 1191 994 1439 701 
Q 1688 409 2113 409 
Q 2538 409 2786 701 
Q 3034 994 3034 1497 
Q 3034 2003 2786 2293 
Q 2538 2584 2113 2584 
z
M 3366 4563 
L 3366 3988 
Q 3128 4100 2886 4159 
Q 2644 4219 2406 4219 
Q 1781 4219 1451 3797 
Q 1122 3375 1075 2522 
Q 1259 2794 1537 2939 
Q 1816 3084 2150 3084 
Q 2853 3084 3261 2657 
Q 3669 2231 3669 1497 
Q 3669 778 3244 343 
Q 2819 -91 2113 -91 
Q 1303 -91 875 529 
Q 447 1150 447 2328 
Q 447 3434 972 4092 
Q 1497 4750 2381 4750 
Q 2619 4750 2861 4703 
Q 3103 4656 3366 4563 
z
" transform="scale(0.015625)"/>
       </defs>
       <use xlink:href="#DejaVuSans-36"/>
      </g>
     </g>
    </g>
    <g id="xtick_6">
     <g id="line2d_6">
      <g>
       <use xlink:href="#mf43d3bf0d2" x="810.956714" y="174.2" style="stroke: #000000; stroke-width: 0.8"/>
      </g>
     </g>
     <g id="text_6">
      <!-- 7 -->
      <g transform="translate(807.775464 188.798438)scale(0.1 -0.1)">
       <defs>
        <path id="DejaVuSans-37" d="M 525 4666 
L 3525 4666 
L 3525 4397 
L 1831 0 
L 1172 0 
L 2766 4134 
L 525 4134 
L 525 4666 
z
" transform="scale(0.015625)"/>
       </defs>
       <use xlink:href="#DejaVuSans-37"/>
      </g>
     </g>
    </g>
    <g id="text_7">
     <!-- seconds -->
     <g transform="translate(411.5625 202.476562)scale(0.1 -0.1)">
      <defs>
       <path id="DejaVuSans-73" d="M 2834 3397 
L 2834 2853 
Q 2591 2978 2328 3040 
Q 2066 3103 1784 3103 
Q 1356 3103 1142 2972 
Q 928 2841 928 2578 
Q 928 2378 1081 2264 
Q 1234 2150 1697 2047 
L 1894 2003 
Q 2506 1872 2764 1633 
Q 3022 1394 3022 966 
Q 3022 478 2636 193 
Q 2250 -91 1575 -91 
Q 1294 -91 989 -36 
Q 684 19 347 128 
L 347 722 
Q 666 556 975 473 
Q 1284 391 1588 391 
Q 1994 391 2212 530 
Q 2431 669 2431 922 
Q 2431 1156 2273 1281 
Q 2116 1406 1581 1522 
L 1381 1569 
Q 847 1681 609 1914 
Q 372 2147 372 2553 
Q 372 3047 722 3315 
Q 1072 3584 1716 3584 
Q 2034 3584 2315 3537 
Q 2597 3491 2834 3397 
z
" transform="scale(0.015625)"/>
       <path id="DejaVuSans-65" d="M 3597 1894 
L 3597 1613 
L 953 1613 
Q 991 1019 1311 708 
Q 1631 397 2203 397 
Q 2534 397 2845 478 
Q 3156 559 3463 722 
L 3463 178 
Q 3153 47 2828 -22 
Q 2503 -91 2169 -91 
Q 1331 -91 842 396 
Q 353 884 353 1716 
Q 353 2575 817 3079 
Q 1281 3584 2069 3584 
Q 2775 3584 3186 3129 
Q 3597 2675 3597 1894 
z
M 3022 2063 
Q 3016 2534 2758 2815 
Q 2500 3097 2075 3097 
Q 1594 3097 1305 2825 
Q 1016 2553 972 2059 
L 3022 2063 
z
" transform="scale(0.015625)"/>
       <path id="DejaVuSans-63" d="M 3122 3366 
L 3122 2828 
Q 2878 2963 2633 3030 
Q 2388 3097 2138 3097 
Q 1578 3097 1268 2742 
Q 959 2388 959 1747 
Q 959 1106 1268 751 
Q 1578 397 2138 397 
Q 2388 397 2633 464 
Q 2878 531 3122 666 
L 3122 134 
Q 2881 22 2623 -34 
Q 2366 -91 2075 -91 
Q 1284 -91 818 406 
Q 353 903 353 1747 
Q 353 2603 823 3093 
Q 1294 3584 2113 3584 
Q 2378 3584 2631 3529 
Q 2884 3475 3122 3366 
z
" transform="scale(0.015625)"/>
       <path id="DejaVuSans-6f" d="M 1959 3097 
Q 1497 3097 1228 2736 
Q 959 2375 959 1747 
Q 959 1119 1226 758 
Q 1494 397 1959 397 
Q 2419 397 2687 759 
Q 2956 1122 2956 1747 
Q 2956 2369 2687 2733 
Q 2419 3097 1959 3097 
z
M 1959 3584 
Q 2709 3584 3137 3096 
Q 3566 2609 3566 1747 
Q 3566 888 3137 398 
Q 2709 -91 1959 -91 
Q 1206 -91 779 398 
Q 353 888 353 1747 
Q 353 2609 779 3096 
Q 1206 3584 1959 3584 
z
" transform="scale(0.015625)"/>
       <path id="DejaVuSans-6e" d="M 3513 2113 
L 3513 0 
L 2938 0 
L 2938 2094 
Q 2938 2591 2744 2837 
Q 2550 3084 2163 3084 
Q 1697 3084 1428 2787 
Q 1159 2491 1159 1978 
L 1159 0 
L 581 0 
L 581 3500 
L 1159 3500 
L 1159 2956 
Q 1366 3272 1645 3428 
Q 1925 3584 2291 3584 
Q 2894 3584 3203 3211 
Q 3513 2838 3513 2113 
z
" transform="scale(0.015625)"/>
       <path id="DejaVuSans-64" d="M 2906 2969 
L 2906 4863 
L 3481 4863 
L 3481 0 
L 2906 0 
L 2906 525 
Q 2725 213 2448 61 
Q 2172 -91 1784 -91 
Q 1150 -91 751 415 
Q 353 922 353 1747 
Q 353 2572 751 3078 
Q 1150 3584 1784 3584 
Q 2172 3584 2448 3432 
Q 2725 3281 2906 2969 
z
M 947 1747 
Q 947 1113 1208 752 
Q 1469 391 1925 391 
Q 2381 391 2643 752 
Q 2906 1113 2906 1747 
Q 2906 2381 2643 2742 
Q 2381 3103 1925 3103 
Q 1469 3103 1208 2742 
Q 947 2381 947 1747 
z
" transform="scale(0.015625)"/>
      </defs>
      <use xlink:href="#DejaVuSans-73"/>
      <use xlink:href="#DejaVuSans-65" x="52.099609"/>
      <use xlink:href="#DejaVuSans-63" x="113.623047"/>
      <use xlink:href="#DejaVuSans-6f" x="168.603516"/>
      <use xlink:href="#DejaVuSans-6e" x="229.785156"/>
      <use xlink:href="#DejaVuSans-64" x="293.164062"/>
      <use xlink:href="#DejaVuSans-73" x="356.640625"/>
     </g>
    </g>
   </g>
   <g id="patch_3">
    <path d="M 10.8 174.2 
L 853.2 174.2 
" style="fill: none; stroke: #000000; stroke-width: 0.8; stroke-linejoin: miter; stroke-linecap: square"/>
   </g>
   <g id="legend_1">
    <g id="patch_4">
     <path d="M 708.904688 27.398438 
L 728.904688 27.398438 
L 728.904688 20.398438 
L 708.904688 20.398438 
z
" style="fill: #1f77b4; fill-opacity: 0.25; stroke: #1f77b4; stroke-linejoin: miter"/>
    </g>
    <g id="text_8">
     <!-- python_pgeon_copy -->
     <g transform="translate(736.904688 27.398438)scale(0.1 -0.1)">
      <defs>
       <path id="DejaVuSans-70" d="M 1159 525 
L 1159 -1331 
L 581 -1331 
L 581 3500 
L 1159 3500 
L 1159 2969 
Q 1341 3281 1617 3432 
Q 1894 3584 2278 3584 
Q 2916 3584 3314 3078 
Q 3713 2572 3713 1747 
Q 3713 922 3314 415 
Q 2916 -91 2278 -91 
Q 1894 -91 1617 61 
Q 1341 213 1159 525 
z
M 3116 1747 
Q 3116 2381 2855 2742 
Q 2594 3103 2138 3103 
Q 1681 3103 1420 2742 
Q 1159 2381 1159 1747 
Q 1159 1113 1420 752 
Q 1681 391 2138 391 
Q 2594 391 2855 752 
Q 3116 1113 3116 1747 
z
" transform="scale(0.015625)"/>
       <path id="DejaVuSans-79" d="M 2059 -325 
Q 1816 -950 1584 -1140 
Q 1353 -1331 966 -1331 
L 506 -1331 
L 506 -850 
L 844 -850 
Q 1081 -850 1212 -737 
Q 1344 -625 1503 -206 
L 1606 56 
L 191 3500 
L 800 3500 
L 1894 763 
L 2988 3500 
L 3597 3500 
L 2059 -325 
z
" transform="scale(0.015625)"/>
       <path id="DejaVuSans-74" d="M 1172 4494 
L 1172 3500 
L 2356 3500 
L 2356 3053 
L 1172 3053 
L 1172 1153 
Q 1172 725 1289 603 
Q 1406 481 1766 481 
L 2356 481 
L 2356 0 
L 1766 0 
Q 1100 0 847 248 
Q 594 497 594 1153 
L 594 3053 
L 172 3053 
L 172 3500 
L 594 3500 
L 594 4494 
L 1172 4494 
z
" transform="scale(0.015625)"/>
       <path id="DejaVuSans-68" d="M 3513 2113 
L 3513 0 
L 2938 0 
L 2938 2094 
Q 2938 2591 2744 2837 
Q 2550 3084 2163 3084 
Q 1697 3084 1428 2787 
Q 1159 2491 1159 1978 
L 1159 0 
L 581 0 
L 581 4863 
L 1159 4863 
L 1159 2956 
Q 1366 3272 1645 3428 
Q 1925 3584 2291 3584 
Q 2894 3584 3203 3211 
Q 3513 2838 3513 2113 
z
" transform="scale(0.015625)"/>
       <path id="DejaVuSans-5f" d="M 3263 -1063 
L 3263 -1509 
L -63 -1509 
L -63 -1063 
L 3263 -1063 
z
" transform="scale(0.015625)"/>
       <path id="DejaVuSans-67" d="M 2906 1791 
Q 2906 2416 2648 2759 
Q 2391 3103 1925 3103 
Q 1463 3103 1205 2759 
Q 947 2416 947 1791 
Q 947 1169 1205 825 
Q 1463 481 1925 481 
Q 2391 481 2648 825 
Q 2906 1169 2906 1791 
z
M 3481 434 
Q 3481 -459 3084 -895 
Q 2688 -1331 1869 -1331 
Q 1566 -1331 1297 -1286 
Q 1028 -1241 775 -1147 
L 775 -588 
Q 1028 -725 1275 -790 
Q 1522 -856 1778 -856 
Q 2344 -856 2625 -561 
Q 2906 -266 2906 331 
L 2906 616 
Q 2728 306 2450 153 
Q 2172 0 1784 0 
Q 1141 0 747 490 
Q 353 981 353 1791 
Q 353 2603 747 3093 
Q 1141 3584 1784 3584 
Q 2172 3584 2450 3431 
Q 2728 3278 2906 2969 
L 2906 3500 
L 3481 3500 
L 3481 434 
z
" transform="scale(0.015625)"/>
      </defs>
      <use xlink:href="#DejaVuSans-70"/>
      <use xlink:href="#DejaVuSans-79" x="63.476562"/>
      <use xlink:href="#DejaVuSans-74" x="122.65625"/>
      <use xlink:href="#DejaVuSans-68" x="161.865234"/>
      <use xlink:href="#DejaVuSans-6f" x="225.244141"/>
      <use xlink:href="#DejaVuSans-6e" x="286.425781"/>
      <use xlink:href="#DejaVuSans-5f" x="349.804688"/>
      <use xlink:href="#DejaVuSans-70" x="399.804688"/>
      <use xlink:href="#DejaVuSans-67" x="463.28125"/>
      <use xlink:href="#DejaVuSans-65" x="526.757812"/>
      <use xlink:href="#DejaVuSans-6f" x="588.28125"/>
      <use xlink:href="#DejaVuSans-6e" x="649.462891"/>
      <use xlink:href="#DejaVuSans-5f" x="712.841797"/>
      <use xlink:href="#DejaVuSans-63" x="762.841797"/>
      <use xlink:href="#DejaVuSans-6f" x="817.822266"/>
      <use xlink:href="#DejaVuSans-70" x="879.003906"/>
      <use xlink:href="#DejaVuSans-79" x="942.480469"/>
     </g>
    </g>
    <g id="patch_5">
     <path d="M 708.904688 42.354688 
L 728.904688 42.354688 
L 728.904688 35.354688 
L 708.904688 35.354688 
z
" style="fill: #ff7f0e; fill-opacity: 0.25; stroke: #ff7f0e; stroke-linejoin: miter"/>
    </g>
    <g id="text_9">
     <!-- asyncpg_copy_binary -->
     <g transform="translate(736.904688 42.354688)scale(0.1 -0.1)">
      <defs>
       <path id="DejaVuSans-61" d="M 2194 1759 
Q 1497 1759 1228 1600 
Q 959 1441 959 1056 
Q 959 750 1161 570 
Q 1363 391 1709 391 
Q 2188 391 2477 730 
Q 2766 1069 2766 1631 
L 2766 1759 
L 2194 1759 
z
M 3341 1997 
L 3341 0 
L 2766 0 
L 2766 531 
Q 2569 213 2275 61 
Q 1981 -91 1556 -91 
Q 1019 -91 701 211 
Q 384 513 384 1019 
Q 384 1609 779 1909 
Q 1175 2209 1959 2209 
L 2766 2209 
L 2766 2266 
Q 2766 2663 2505 2880 
Q 2244 3097 1772 3097 
Q 1472 3097 1187 3025 
Q 903 2953 641 2809 
L 641 3341 
Q 956 3463 1253 3523 
Q 1550 3584 1831 3584 
Q 2591 3584 2966 3190 
Q 3341 2797 3341 1997 
z
" transform="scale(0.015625)"/>
       <path id="DejaVuSans-62" d="M 3116 1747 
Q 3116 2381 2855 2742 
Q 2594 3103 2138 3103 
Q 1681 3103 1420 2742 
Q 1159 2381 1159 1747 
Q 1159 1113 1420 752 
Q 1681 391 2138 391 
Q 2594 391 2855 752 
Q 3116 1113 3116 1747 
z
M 1159 2969 
Q 1341 3281 1617 3432 
Q 1894 3584 2278 3584 
Q 2916 3584 3314 3078 
Q 3713 2572 3713 1747 
Q 3713 922 3314 415 
Q 2916 -91 2278 -91 
Q 1894 -91 1617 61 
Q 1341 213 1159 525 
L 1159 0 
L 581 0 
L 581 4863 
L 1159 4863 
L 1159 2969 
z
" transform="scale(0.015625)"/>
       <path id="DejaVuSans-69" d="M 603 3500 
L 1178 3500 
L 1178 0 
L 603 0 
L 603 3500 
z
M 603 4863 
L 1178 4863 
L 1178 4134 
L 603 4134 
L 603 4863 
z
" transform="scale(0.015625)"/>
       <path id="DejaVuSans-72" d="M 2631 2963 
Q 2534 3019 2420 3045 
Q 2306 3072 2169 3072 
Q 1681 3072 1420 2755 
Q 1159 2438 1159 1844 
L 1159 0 
L 581 0 
L 581 3500 
L 1159 3500 
L 1159 2956 
Q 1341 3275 1631 3429 
Q 1922 3584 2338 3584 
Q 2397 3584 2469 3576 
Q 2541 3569 2628 3553 
L 2631 2963 
z
" transform="scale(0.015625)"/>
      </defs>
      <use xlink:href="#DejaVuSans-61"/>
      <use xlink:href="#DejaVuSans-73" x="61.279297"/>
      <use xlink:href="#DejaVuSans-79" x="113.378906"/>
      <use xlink:href="#DejaVuSans-6e" x="172.558594"/>
      <use xlink:href="#DejaVuSans-63" x="235.9375"/>
      <use xlink:href="#DejaVuSans-70" x="290.917969"/>
      <use xlink:href="#DejaVuSans-67" x="354.394531"/>
      <use xlink:href="#DejaVuSans-5f" x="417.871094"/>
      <use xlink:href="#DejaVuSans-63" x="467.871094"/>
      <use xlink:href="#DejaVuSans-6f" x="522.851562"/>
      <use xlink:href="#DejaVuSans-70" x="584.033203"/>
      <use xlink:href="#DejaVuSans-79" x="647.509766"/>
      <use xlink:href="#DejaVuSans-5f" x="706.689453"/>
      <use xlink:href="#DejaVuSans-62" x="756.689453"/>
      <use xlink:href="#DejaVuSans-69" x="820.166016"/>
      <use xlink:href="#DejaVuSans-6e" x="847.949219"/>
      <use xlink:href="#DejaVuSans-61" x="911.328125"/>
      <use xlink:href="#DejaVuSans-72" x="972.607422"/>
      <use xlink:href="#DejaVuSans-79" x="1013.720703"/>
     </g>
    </g>
    <g id="patch_6">
     <path d="M 708.904688 57.310938 
L 728.904688 57.310938 
L 728.904688 50.310938 
L 708.904688 50.310938 
z
" style="fill: #2ca02c; fill-opacity: 0.25; stroke: #2ca02c; stroke-linejoin: miter"/>
    </g>
    <g id="text_10">
     <!-- asyncpg_copy_csv -->
     <g transform="translate(736.904688 57.310938)scale(0.1 -0.1)">
      <defs>
       <path id="DejaVuSans-76" d="M 191 3500 
L 800 3500 
L 1894 563 
L 2988 3500 
L 3597 3500 
L 2284 0 
L 1503 0 
L 191 3500 
z
" transform="scale(0.015625)"/>
      </defs>
      <use xlink:href="#DejaVuSans-61"/>
      <use xlink:href="#DejaVuSans-73" x="61.279297"/>
      <use xlink:href="#DejaVuSans-79" x="113.378906"/>
      <use xlink:href="#DejaVuSans-6e" x="172.558594"/>
      <use xlink:href="#DejaVuSans-63" x="235.9375"/>
      <use xlink:href="#DejaVuSans-70" x="290.917969"/>
      <use xlink:href="#DejaVuSans-67" x="354.394531"/>
      <use xlink:href="#DejaVuSans-5f" x="417.871094"/>
      <use xlink:href="#DejaVuSans-63" x="467.871094"/>
      <use xlink:href="#DejaVuSans-6f" x="522.851562"/>
      <use xlink:href="#DejaVuSans-70" x="584.033203"/>
      <use xlink:href="#DejaVuSans-79" x="647.509766"/>
      <use xlink:href="#DejaVuSans-5f" x="706.689453"/>
      <use xlink:href="#DejaVuSans-63" x="756.689453"/>
      <use xlink:href="#DejaVuSans-73" x="811.669922"/>
      <use xlink:href="#DejaVuSans-76" x="863.769531"/>
     </g>
    </g>
    <g id="patch_7">
     <path d="M 708.904688 72.267188 
L 728.904688 72.267188 
L 728.904688 65.267188 
L 708.904688 65.267188 
z
" style="fill: #d62728; fill-opacity: 0.25; stroke: #d62728; stroke-linejoin: miter"/>
    </g>
    <g id="text_11">
     <!-- asyncpg_fetch -->
     <g transform="translate(736.904688 72.267188)scale(0.1 -0.1)">
      <defs>
       <path id="DejaVuSans-66" d="M 2375 4863 
L 2375 4384 
L 1825 4384 
Q 1516 4384 1395 4259 
Q 1275 4134 1275 3809 
L 1275 3500 
L 2222 3500 
L 2222 3053 
L 1275 3053 
L 1275 0 
L 697 0 
L 697 3053 
L 147 3053 
L 147 3500 
L 697 3500 
L 697 3744 
Q 697 4328 969 4595 
Q 1241 4863 1831 4863 
L 2375 4863 
z
" transform="scale(0.015625)"/>
      </defs>
      <use xlink:href="#DejaVuSans-61"/>
      <use xlink:href="#DejaVuSans-73" x="61.279297"/>
      <use xlink:href="#DejaVuSans-79" x="113.378906"/>
      <use xlink:href="#DejaVuSans-6e" x="172.558594"/>
      <use xlink:href="#DejaVuSans-63" x="235.9375"/>
      <use xlink:href="#DejaVuSans-70" x="290.917969"/>
      <use xlink:href="#DejaVuSans-67" x="354.394531"/>
      <use xlink:href="#DejaVuSans-5f" x="417.871094"/>
      <use xlink:href="#DejaVuSans-66" x="467.871094"/>
      <use xlink:href="#DejaVuSans-65" x="503.076172"/>
      <use xlink:href="#DejaVuSans-74" x="564.599609"/>
      <use xlink:href="#DejaVuSans-63" x="603.808594"/>
      <use xlink:href="#DejaVuSans-68" x="658.789062"/>
     </g>
    </g>
   </g>
  </g>
 </g>
 <defs>
  <clipPath id="pcd9636cdf4">
   <rect x="10.8" y="10.8" width="842.4" height="163.4"/>
  </clipPath>
 </defs>
</svg>
