<?xml version="1.0" encoding="utf-8" standalone="no"?>
<!DOCTYPE svg PUBLIC "-//W3C//DTD SVG 1.1//EN"
  "http://www.w3.org/Graphics/SVG/1.1/DTD/svg11.dtd">
<svg xmlns:xlink="http://www.w3.org/1999/xlink" width="864pt" height="216pt" viewBox="0 0 864 216" xmlns="http://www.w3.org/2000/svg" version="1.1">
 <metadata>
  <rdf:RDF xmlns:dc="http://purl.org/dc/elements/1.1/" xmlns:cc="http://creativecommons.org/ns#" xmlns:rdf="http://www.w3.org/1999/02/22-rdf-syntax-ns#">
   <cc:Work>
    <dc:type rdf:resource="http://purl.org/dc/dcmitype/StillImage"/>
    <dc:date>2023-02-19T13:54:02.625828</dc:date>
    <dc:format>image/svg+xml</dc:format>
    <dc:creator>
     <cc:Agent>
      <dc:title>Matplotlib v3.7.0, https://matplotlib.org/</dc:title>
     </cc:Agent>
    </dc:creator>
   </cc:Work>
  </rdf:RDF>
 </metadata>
 <defs>
  <style type="text/css">*{stroke-linejoin: round; stroke-linecap: butt}</style>
 </defs>
 <g id="figure_1">
  <g id="patch_1">
   <path d="M 0 216 
L 864 216 
L 864 0 
L 0 0 
z
" style="fill: #ffffff"/>
  </g>
  <g id="axes_1">
   <g id="patch_2">
    <path d="M 10.8 174.04 
L 853.2 174.04 
L 853.2 10.8 
L 10.8 10.8 
z
" style="fill: #ffffff"/>
   </g>
   <g id="PolyCollection_1">
    <defs>
     <path id="m59ab45e5e0" d="M 49.090909 -42.034503 
L 49.090909 -41.96 
L 49.195934 -41.96 
L 49.300959 -41.96 
L 49.405985 -41.96 
L 49.51101 -41.96 
L 49.616035 -41.96 
L 49.72106 -41.96 
L 49.826085 -41.96 
L 49.931111 -41.96 
L 50.036136 -41.96 
L 50.141161 -41.96 
L 50.246186 -41.96 
L 50.351211 -41.96 
L 50.456236 -41.96 
L 50.561262 -41.96 
L 50.666287 -41.96 
L 50.771312 -41.96 
L 50.876337 -41.96 
L 50.981362 -41.96 
L 51.086388 -41.96 
L 51.191413 -41.96 
L 51.296438 -41.96 
L 51.401463 -41.96 
L 51.506488 -41.96 
L 51.611513 -41.96 
L 51.716539 -41.96 
L 51.821564 -41.96 
L 51.926589 -41.96 
L 52.031614 -41.96 
L 52.136639 -41.96 
L 52.241664 -41.96 
L 52.34669 -41.96 
L 52.451715 -41.96 
L 52.55674 -41.96 
L 52.661765 -41.96 
L 52.76679 -41.96 
L 52.871816 -41.96 
L 52.976841 -41.96 
L 53.081866 -41.96 
L 53.186891 -41.96 
L 53.291916 -41.96 
L 53.396941 -41.96 
L 53.501967 -41.96 
L 53.606992 -41.96 
L 53.712017 -41.96 
L 53.817042 -41.96 
L 53.922067 -41.96 
L 54.027093 -41.96 
L 54.132118 -41.96 
L 54.237143 -41.96 
L 54.342168 -41.96 
L 54.447193 -41.96 
L 54.552218 -41.96 
L 54.657244 -41.96 
L 54.762269 -41.96 
L 54.867294 -41.96 
L 54.972319 -41.96 
L 55.077344 -41.96 
L 55.18237 -41.96 
L 55.287395 -41.96 
L 55.39242 -41.96 
L 55.497445 -41.96 
L 55.60247 -41.96 
L 55.707495 -41.96 
L 55.812521 -41.96 
L 55.917546 -41.96 
L 56.022571 -41.96 
L 56.127596 -41.96 
L 56.232621 -41.96 
L 56.337647 -41.96 
L 56.442672 -41.96 
L 56.547697 -41.96 
L 56.652722 -41.96 
L 56.757747 -41.96 
L 56.862772 -41.96 
L 56.967798 -41.96 
L 57.072823 -41.96 
L 57.177848 -41.96 
L 57.282873 -41.96 
L 57.387898 -41.96 
L 57.492923 -41.96 
L 57.597949 -41.96 
L 57.702974 -41.96 
L 57.807999 -41.96 
L 57.913024 -41.96 
L 58.018049 -41.96 
L 58.123075 -41.96 
L 58.2281 -41.96 
L 58.333125 -41.96 
L 58.43815 -41.96 
L 58.543175 -41.96 
L 58.6482 -41.96 
L 58.753226 -41.96 
L 58.858251 -41.96 
L 58.963276 -41.96 
L 59.068301 -41.96 
L 59.173326 -41.96 
L 59.278352 -41.96 
L 59.383377 -41.96 
L 59.488402 -41.96 
L 59.593427 -41.96 
L 59.698452 -41.96 
L 59.803477 -41.96 
L 59.908503 -41.96 
L 60.013528 -41.96 
L 60.118553 -41.96 
L 60.223578 -41.96 
L 60.328603 -41.96 
L 60.433629 -41.96 
L 60.538654 -41.96 
L 60.643679 -41.96 
L 60.748704 -41.96 
L 60.853729 -41.96 
L 60.958754 -41.96 
L 61.06378 -41.96 
L 61.168805 -41.96 
L 61.27383 -41.96 
L 61.378855 -41.96 
L 61.48388 -41.96 
L 61.588905 -41.96 
L 61.693931 -41.96 
L 61.798956 -41.96 
L 61.903981 -41.96 
L 62.009006 -41.96 
L 62.114031 -41.96 
L 62.219057 -41.96 
L 62.324082 -41.96 
L 62.429107 -41.96 
L 62.534132 -41.96 
L 62.639157 -41.96 
L 62.744182 -41.96 
L 62.849208 -41.96 
L 62.954233 -41.96 
L 63.059258 -41.96 
L 63.164283 -41.96 
L 63.269308 -41.96 
L 63.374334 -41.96 
L 63.479359 -41.96 
L 63.584384 -41.96 
L 63.689409 -41.96 
L 63.794434 -41.96 
L 63.899459 -41.96 
L 64.004485 -41.96 
L 64.10951 -41.96 
L 64.214535 -41.96 
L 64.31956 -41.96 
L 64.424585 -41.96 
L 64.529611 -41.96 
L 64.634636 -41.96 
L 64.739661 -41.96 
L 64.844686 -41.96 
L 64.949711 -41.96 
L 65.054736 -41.96 
L 65.159762 -41.96 
L 65.264787 -41.96 
L 65.369812 -41.96 
L 65.474837 -41.96 
L 65.579862 -41.96 
L 65.684888 -41.96 
L 65.789913 -41.96 
L 65.894938 -41.96 
L 65.999963 -41.96 
L 66.104988 -41.96 
L 66.210013 -41.96 
L 66.315039 -41.96 
L 66.420064 -41.96 
L 66.525089 -41.96 
L 66.630114 -41.96 
L 66.735139 -41.96 
L 66.840164 -41.96 
L 66.94519 -41.96 
L 67.050215 -41.96 
L 67.15524 -41.96 
L 67.260265 -41.96 
L 67.36529 -41.96 
L 67.470316 -41.96 
L 67.575341 -41.96 
L 67.680366 -41.96 
L 67.785391 -41.96 
L 67.890416 -41.96 
L 67.995441 -41.96 
L 68.100467 -41.96 
L 68.205492 -41.96 
L 68.310517 -41.96 
L 68.415542 -41.96 
L 68.520567 -41.96 
L 68.625593 -41.96 
L 68.730618 -41.96 
L 68.835643 -41.96 
L 68.940668 -41.96 
L 69.045693 -41.96 
L 69.150718 -41.96 
L 69.255744 -41.96 
L 69.360769 -41.96 
L 69.465794 -41.96 
L 69.570819 -41.96 
L 69.675844 -41.96 
L 69.78087 -41.96 
L 69.885895 -41.96 
L 69.99092 -41.96 
L 69.99092 -42.067569 
L 69.99092 -42.067569 
L 69.885895 -42.097658 
L 69.78087 -42.135309 
L 69.675844 -42.182181 
L 69.570819 -42.240232 
L 69.465794 -42.31176 
L 69.360769 -42.399443 
L 69.255744 -42.506379 
L 69.150718 -42.636131 
L 69.045693 -42.792763 
L 68.940668 -42.980882 
L 68.835643 -43.205668 
L 68.730618 -43.472899 
L 68.625593 -43.788974 
L 68.520567 -44.16092 
L 68.415542 -44.596384 
L 68.310517 -45.103615 
L 68.205492 -45.691424 
L 68.100467 -46.369133 
L 67.995441 -47.146488 
L 67.890416 -48.033563 
L 67.785391 -49.04063 
L 67.680366 -50.178014 
L 67.575341 -51.455913 
L 67.470316 -52.884207 
L 67.36529 -54.47224 
L 67.260265 -56.228586 
L 67.15524 -58.160803 
L 67.050215 -60.275185 
L 66.94519 -62.576504 
L 66.840164 -65.067771 
L 66.735139 -67.750002 
L 66.630114 -70.622018 
L 66.525089 -73.680266 
L 66.420064 -76.918694 
L 66.315039 -80.328666 
L 66.210013 -83.898938 
L 66.104988 -87.615699 
L 65.999963 -91.462669 
L 65.894938 -95.421279 
L 65.789913 -99.470905 
L 65.684888 -103.589174 
L 65.579862 -107.752333 
L 65.474837 -111.935655 
L 65.369812 -116.113895 
L 65.264787 -120.261769 
L 65.159762 -124.354444 
L 65.054736 -128.368014 
L 64.949711 -132.279966 
L 64.844686 -136.069596 
L 64.739661 -139.71837 
L 64.634636 -143.210222 
L 64.529611 -146.53176 
L 64.424585 -149.672385 
L 64.31956 -152.62432 
L 64.214535 -155.38253 
L 64.10951 -157.944564 
L 64.004485 -160.310294 
L 63.899459 -162.481597 
L 63.794434 -164.461964 
L 63.689409 -166.256075 
L 63.584384 -167.86935 
L 63.479359 -169.307501 
L 63.374334 -170.576104 
L 63.269308 -171.68021 
L 63.164283 -172.624021 
L 63.059258 -173.410631 
L 62.954233 -174.041867 
L 62.849208 -174.518212 
L 62.744182 -174.83883 
L 62.639157 -175.001691 
L 62.534132 -175.003779 
L 62.429107 -174.841385 
L 62.324082 -174.510461 
L 62.219057 -174.00703 
L 62.114031 -173.327617 
L 62.009006 -172.469695 
L 61.903981 -171.432121 
L 61.798956 -170.215542 
L 61.693931 -168.82275 
L 61.588905 -167.258975 
L 61.48388 -165.532109 
L 61.378855 -163.652835 
L 61.27383 -161.634676 
L 61.168805 -159.49395 
L 61.06378 -157.249631 
L 60.958754 -154.923137 
L 60.853729 -152.538034 
L 60.748704 -150.119682 
L 60.643679 -147.694819 
L 60.538654 -145.291117 
L 60.433629 -142.936706 
L 60.328603 -140.659681 
L 60.223578 -138.48762 
L 60.118553 -136.4471 
L 60.013528 -134.563245 
L 59.908503 -132.859295 
L 59.803477 -131.35622 
L 59.698452 -130.072366 
L 59.593427 -129.023155 
L 59.488402 -128.220829 
L 59.383377 -127.67424 
L 59.278352 -127.388705 
L 59.173326 -127.365893 
L 59.068301 -127.603782 
L 58.963276 -128.096654 
L 58.858251 -128.835151 
L 58.753226 -129.806383 
L 58.6482 -130.994077 
L 58.543175 -132.378795 
L 58.43815 -133.938186 
L 58.333125 -135.647297 
L 58.2281 -137.478925 
L 58.123075 -139.404015 
L 58.018049 -141.392094 
L 57.913024 -143.41173 
L 57.807999 -145.431021 
L 57.702974 -147.418093 
L 57.597949 -149.341605 
L 57.492923 -151.171233 
L 57.387898 -152.87815 
L 57.282873 -154.435463 
L 57.177848 -155.818605 
L 57.072823 -157.005679 
L 56.967798 -157.977737 
L 56.862772 -158.718982 
L 56.757747 -159.216907 
L 56.652722 -159.462346 
L 56.547697 -159.449457 
L 56.442672 -159.175626 
L 56.337647 -158.641307 
L 56.232621 -157.849802 
L 56.127596 -156.806998 
L 56.022571 -155.521056 
L 55.917546 -154.002088 
L 55.812521 -152.261817 
L 55.707495 -150.313234 
L 55.60247 -148.170283 
L 55.497445 -145.847549 
L 55.39242 -143.359996 
L 55.287395 -140.722733 
L 55.18237 -137.950825 
L 55.077344 -135.059147 
L 54.972319 -132.062283 
L 54.867294 -128.974461 
L 54.762269 -125.809524 
L 54.657244 -122.580935 
L 54.552218 -119.301795 
L 54.447193 -115.984881 
L 54.342168 -112.642686 
L 54.237143 -109.287462 
L 54.132118 -105.931251 
L 54.027093 -102.585908 
L 53.922067 -99.263098 
L 53.817042 -95.974283 
L 53.712017 -92.730685 
L 53.606992 -89.543227 
L 53.501967 -86.422459 
L 53.396941 -83.378472 
L 53.291916 -80.420795 
L 53.186891 -77.558293 
L 53.081866 -74.799062 
L 52.976841 -72.150331 
L 52.871816 -69.618371 
L 52.76679 -67.208415 
L 52.661765 -64.924609 
L 52.55674 -62.769965 
L 52.451715 -60.746347 
L 52.34669 -58.85448 
L 52.241664 -57.093973 
L 52.136639 -55.463375 
L 52.031614 -53.960237 
L 51.926589 -52.5812 
L 51.821564 -51.322096 
L 51.716539 -50.178051 
L 51.611513 -49.143606 
L 51.506488 -48.212832 
L 51.401463 -47.37945 
L 51.296438 -46.636945 
L 51.191413 -45.978678 
L 51.086388 -45.397986 
L 50.981362 -44.888272 
L 50.876337 -44.44309 
L 50.771312 -44.056211 
L 50.666287 -43.721681 
L 50.561262 -43.433865 
L 50.456236 -43.187483 
L 50.351211 -42.977629 
L 50.246186 -42.799789 
L 50.141161 -42.649837 
L 50.036136 -42.524039 
L 49.931111 -42.419037 
L 49.826085 -42.331837 
L 49.72106 -42.259789 
L 49.616035 -42.200561 
L 49.51101 -42.152121 
L 49.405985 -42.112705 
L 49.300959 -42.080796 
L 49.195934 -42.055096 
L 49.090909 -42.034503 
z
" style="stroke: #9467bd"/>
    </defs>
    <g clip-path="url(#p2910d2f6af)">
     <use xlink:href="#m59ab45e5e0" x="0" y="216" style="fill: #9467bd; fill-opacity: 0.25; stroke: #9467bd"/>
    </g>
   </g>
   <g id="PolyCollection_2">
    <defs>
     <path id="me49a41c367" d="M 358.153826 -41.998232 
L 358.153826 -41.96 
L 358.32213 -41.96 
L 358.490434 -41.96 
L 358.658738 -41.96 
L 358.827042 -41.96 
L 358.995346 -41.96 
L 359.163651 -41.96 
L 359.331955 -41.96 
L 359.500259 -41.96 
L 359.668563 -41.96 
L 359.836867 -41.96 
L 360.005171 -41.96 
L 360.173475 -41.96 
L 360.341779 -41.96 
L 360.510083 -41.96 
L 360.678388 -41.96 
L 360.846692 -41.96 
L 361.014996 -41.96 
L 361.1833 -41.96 
L 361.351604 -41.96 
L 361.519908 -41.96 
L 361.688212 -41.96 
L 361.856516 -41.96 
L 362.02482 -41.96 
L 362.193125 -41.96 
L 362.361429 -41.96 
L 362.529733 -41.96 
L 362.698037 -41.96 
L 362.866341 -41.96 
L 363.034645 -41.96 
L 363.202949 -41.96 
L 363.371253 -41.96 
L 363.539558 -41.96 
L 363.707862 -41.96 
L 363.876166 -41.96 
L 364.04447 -41.96 
L 364.212774 -41.96 
L 364.381078 -41.96 
L 364.549382 -41.96 
L 364.717686 -41.96 
L 364.88599 -41.96 
L 365.054295 -41.96 
L 365.222599 -41.96 
L 365.390903 -41.96 
L 365.559207 -41.96 
L 365.727511 -41.96 
L 365.895815 -41.96 
L 366.064119 -41.96 
L 366.232423 -41.96 
L 366.400727 -41.96 
L 366.569032 -41.96 
L 366.737336 -41.96 
L 366.90564 -41.96 
L 367.073944 -41.96 
L 367.242248 -41.96 
L 367.410552 -41.96 
L 367.578856 -41.96 
L 367.74716 -41.96 
L 367.915464 -41.96 
L 368.083769 -41.96 
L 368.252073 -41.96 
L 368.420377 -41.96 
L 368.588681 -41.96 
L 368.756985 -41.96 
L 368.925289 -41.96 
L 369.093593 -41.96 
L 369.261897 -41.96 
L 369.430202 -41.96 
L 369.598506 -41.96 
L 369.76681 -41.96 
L 369.935114 -41.96 
L 370.103418 -41.96 
L 370.271722 -41.96 
L 370.440026 -41.96 
L 370.60833 -41.96 
L 370.776634 -41.96 
L 370.944939 -41.96 
L 371.113243 -41.96 
L 371.281547 -41.96 
L 371.449851 -41.96 
L 371.618155 -41.96 
L 371.786459 -41.96 
L 371.954763 -41.96 
L 372.123067 -41.96 
L 372.291371 -41.96 
L 372.459676 -41.96 
L 372.62798 -41.96 
L 372.796284 -41.96 
L 372.964588 -41.96 
L 373.132892 -41.96 
L 373.301196 -41.96 
L 373.4695 -41.96 
L 373.637804 -41.96 
L 373.806109 -41.96 
L 373.974413 -41.96 
L 374.142717 -41.96 
L 374.311021 -41.96 
L 374.479325 -41.96 
L 374.647629 -41.96 
L 374.815933 -41.96 
L 374.984237 -41.96 
L 375.152541 -41.96 
L 375.320846 -41.96 
L 375.48915 -41.96 
L 375.657454 -41.96 
L 375.825758 -41.96 
L 375.994062 -41.96 
L 376.162366 -41.96 
L 376.33067 -41.96 
L 376.498974 -41.96 
L 376.667278 -41.96 
L 376.835583 -41.96 
L 377.003887 -41.96 
L 377.172191 -41.96 
L 377.340495 -41.96 
L 377.508799 -41.96 
L 377.677103 -41.96 
L 377.845407 -41.96 
L 378.013711 -41.96 
L 378.182015 -41.96 
L 378.35032 -41.96 
L 378.518624 -41.96 
L 378.686928 -41.96 
L 378.855232 -41.96 
L 379.023536 -41.96 
L 379.19184 -41.96 
L 379.360144 -41.96 
L 379.528448 -41.96 
L 379.696753 -41.96 
L 379.865057 -41.96 
L 380.033361 -41.96 
L 380.201665 -41.96 
L 380.369969 -41.96 
L 380.538273 -41.96 
L 380.706577 -41.96 
L 380.874881 -41.96 
L 381.043185 -41.96 
L 381.21149 -41.96 
L 381.379794 -41.96 
L 381.548098 -41.96 
L 381.716402 -41.96 
L 381.884706 -41.96 
L 382.05301 -41.96 
L 382.221314 -41.96 
L 382.389618 -41.96 
L 382.557922 -41.96 
L 382.726227 -41.96 
L 382.894531 -41.96 
L 383.062835 -41.96 
L 383.231139 -41.96 
L 383.399443 -41.96 
L 383.567747 -41.96 
L 383.736051 -41.96 
L 383.904355 -41.96 
L 384.072659 -41.96 
L 384.240964 -41.96 
L 384.409268 -41.96 
L 384.577572 -41.96 
L 384.745876 -41.96 
L 384.91418 -41.96 
L 385.082484 -41.96 
L 385.250788 -41.96 
L 385.419092 -41.96 
L 385.587397 -41.96 
L 385.755701 -41.96 
L 385.924005 -41.96 
L 386.092309 -41.96 
L 386.260613 -41.96 
L 386.428917 -41.96 
L 386.597221 -41.96 
L 386.765525 -41.96 
L 386.933829 -41.96 
L 387.102134 -41.96 
L 387.270438 -41.96 
L 387.438742 -41.96 
L 387.607046 -41.96 
L 387.77535 -41.96 
L 387.943654 -41.96 
L 388.111958 -41.96 
L 388.280262 -41.96 
L 388.448566 -41.96 
L 388.616871 -41.96 
L 388.785175 -41.96 
L 388.953479 -41.96 
L 389.121783 -41.96 
L 389.290087 -41.96 
L 389.458391 -41.96 
L 389.626695 -41.96 
L 389.794999 -41.96 
L 389.963304 -41.96 
L 390.131608 -41.96 
L 390.299912 -41.96 
L 390.468216 -41.96 
L 390.63652 -41.96 
L 390.804824 -41.96 
L 390.973128 -41.96 
L 391.141432 -41.96 
L 391.309736 -41.96 
L 391.478041 -41.96 
L 391.646345 -41.96 
L 391.646345 -42.000488 
L 391.646345 -42.000488 
L 391.478041 -42.015657 
L 391.309736 -42.035688 
L 391.141432 -42.06183 
L 390.973128 -42.095545 
L 390.804824 -42.138512 
L 390.63652 -42.192623 
L 390.468216 -42.259961 
L 390.299912 -42.342765 
L 390.131608 -42.443375 
L 389.963304 -42.56416 
L 389.794999 -42.70743 
L 389.626695 -42.875333 
L 389.458391 -43.069735 
L 389.290087 -43.292098 
L 389.121783 -43.54336 
L 388.953479 -43.823823 
L 388.785175 -44.133056 
L 388.616871 -44.46983 
L 388.448566 -44.832086 
L 388.280262 -45.216948 
L 388.111958 -45.620775 
L 387.943654 -46.039278 
L 387.77535 -46.467662 
L 387.607046 -46.900834 
L 387.438742 -47.333626 
L 387.270438 -47.761058 
L 387.102134 -48.178601 
L 386.933829 -48.582445 
L 386.765525 -48.969749 
L 386.597221 -49.338867 
L 386.428917 -49.689528 
L 386.260613 -50.022974 
L 386.092309 -50.342047 
L 385.924005 -50.651212 
L 385.755701 -50.956533 
L 385.587397 -51.265594 
L 385.419092 -51.587369 
L 385.250788 -51.932057 
L 385.082484 -52.310875 
L 384.91418 -52.73583 
L 384.745876 -53.219473 
L 384.577572 -53.774631 
L 384.409268 -54.414151 
L 384.240964 -55.150631 
L 384.072659 -55.996168 
L 383.904355 -56.962125 
L 383.736051 -58.058917 
L 383.567747 -59.295828 
L 383.399443 -60.680874 
L 383.231139 -62.220699 
L 383.062835 -63.92053 
L 382.894531 -65.784169 
L 382.726227 -67.814045 
L 382.557922 -70.011303 
L 382.389618 -72.375927 
L 382.221314 -74.906879 
L 382.05301 -77.602251 
L 381.884706 -80.459389 
L 381.716402 -83.47499 
L 381.548098 -86.645138 
L 381.379794 -89.96527 
L 381.21149 -93.430063 
L 381.043185 -97.033231 
L 380.874881 -100.767243 
L 380.706577 -104.622973 
L 380.538273 -108.589309 
L 380.369969 -112.652749 
L 380.201665 -116.797019 
L 380.033361 -121.002768 
L 379.865057 -125.247373 
L 379.696753 -129.504891 
L 379.528448 -133.746205 
L 379.360144 -137.939373 
L 379.19184 -142.050198 
L 379.023536 -146.042995 
L 378.855232 -149.881552 
L 378.686928 -153.530223 
L 378.518624 -156.955097 
L 378.35032 -160.125185 
L 378.182015 -163.013537 
L 378.013711 -165.598218 
L 377.845407 -167.863084 
L 377.677103 -169.798285 
L 377.508799 -171.400487 
L 377.340495 -172.67277 
L 377.172191 -173.624238 
L 377.003887 -174.269369 
L 376.835583 -174.627151 
L 376.667278 -174.72008 
L 376.498974 -174.573088 
L 376.33067 -174.212477 
L 376.162366 -173.664917 
L 375.994062 -172.95656 
L 375.825758 -172.1123 
L 375.657454 -171.155181 
L 375.48915 -170.105958 
L 375.320846 -168.982781 
L 375.152541 -167.800973 
L 374.984237 -166.572864 
L 374.815933 -165.307665 
L 374.647629 -164.01135 
L 374.479325 -162.686536 
L 374.311021 -161.332377 
L 374.142717 -159.944493 
L 373.974413 -158.514944 
L 373.806109 -157.032312 
L 373.637804 -155.48191 
L 373.4695 -153.846152 
L 373.301196 -152.105112 
L 373.132892 -150.237273 
L 372.964588 -148.220457 
L 372.796284 -146.032913 
L 372.62798 -143.6545 
L 372.459676 -141.067934 
L 372.291371 -138.259996 
L 372.123067 -135.222646 
L 371.954763 -131.953967 
L 371.786459 -128.458855 
L 371.618155 -124.749421 
L 371.449851 -120.845053 
L 371.281547 -116.772123 
L 371.113243 -112.563351 
L 370.944939 -108.256844 
L 370.776634 -103.894864 
L 370.60833 -99.522385 
L 370.440026 -95.185533 
L 370.271722 -90.929966 
L 370.103418 -86.799307 
L 369.935114 -82.833697 
L 369.76681 -79.068541 
L 369.598506 -75.533511 
L 369.430202 -72.251827 
L 369.261897 -69.239867 
L 369.093593 -66.507064 
L 368.925289 -64.05612 
L 368.756985 -61.883458 
L 368.588681 -59.979902 
L 368.420377 -58.33151 
L 368.252073 -56.920513 
L 368.083769 -55.726297 
L 367.915464 -54.726383 
L 367.74716 -53.89735 
L 367.578856 -53.215676 
L 367.410552 -52.65846 
L 367.242248 -52.204015 
L 367.073944 -51.832331 
L 366.90564 -51.525399 
L 366.737336 -51.267413 
L 366.569032 -51.044865 
L 366.400727 -50.846535 
L 366.232423 -50.663413 
L 366.064119 -50.488546 
L 365.895815 -50.316843 
L 365.727511 -50.144843 
L 365.559207 -49.970451 
L 365.390903 -49.79267 
L 365.222599 -49.611318 
L 365.054295 -49.426755 
L 364.88599 -49.239629 
L 364.717686 -49.05064 
L 364.549382 -48.860349 
L 364.381078 -48.66902 
L 364.212774 -48.476529 
L 364.04447 -48.28232 
L 363.876166 -48.085422 
L 363.707862 -47.884519 
L 363.539558 -47.678067 
L 363.371253 -47.464451 
L 363.202949 -47.242151 
L 363.034645 -47.009922 
L 362.866341 -46.766954 
L 362.698037 -46.513 
L 362.529733 -46.248472 
L 362.361429 -45.97447 
L 362.193125 -45.692774 
L 362.02482 -45.40577 
L 361.856516 -45.116337 
L 361.688212 -44.827698 
L 361.519908 -44.543244 
L 361.351604 -44.266359 
L 361.1833 -44.000248 
L 361.014996 -43.747782 
L 360.846692 -43.511376 
L 360.678388 -43.292906 
L 360.510083 -43.093661 
L 360.341779 -42.914331 
L 360.173475 -42.755038 
L 360.005171 -42.615389 
L 359.836867 -42.494549 
L 359.668563 -42.391336 
L 359.500259 -42.304311 
L 359.331955 -42.231872 
L 359.163651 -42.172341 
L 358.995346 -42.124035 
L 358.827042 -42.085331 
L 358.658738 -42.054706 
L 358.490434 -42.030776 
L 358.32213 -42.012309 
L 358.153826 -41.998232 
z
" style="stroke: #d62728"/>
    </defs>
    <g clip-path="url(#p2910d2f6af)">
     <use xlink:href="#me49a41c367" x="0" y="216" style="fill: #d62728; fill-opacity: 0.25; stroke: #d62728"/>
    </g>
   </g>
   <g id="PolyCollection_3">
    <defs>
     <path id="m4c87459c4c" d="M 558.366497 -42.007681 
L 558.366497 -41.96 
L 558.74699 -41.96 
L 559.127483 -41.96 
L 559.507975 -41.96 
L 559.888468 -41.96 
L 560.268961 -41.96 
L 560.649453 -41.96 
L 561.029946 -41.96 
L 561.410439 -41.96 
L 561.790931 -41.96 
L 562.171424 -41.96 
L 562.551916 -41.96 
L 562.932409 -41.96 
L 563.312902 -41.96 
L 563.693394 -41.96 
L 564.073887 -41.96 
L 564.45438 -41.96 
L 564.834872 -41.96 
L 565.215365 -41.96 
L 565.595858 -41.96 
L 565.97635 -41.96 
L 566.356843 -41.96 
L 566.737336 -41.96 
L 567.117828 -41.96 
L 567.498321 -41.96 
L 567.878814 -41.96 
L 568.259306 -41.96 
L 568.639799 -41.96 
L 569.020292 -41.96 
L 569.400784 -41.96 
L 569.781277 -41.96 
L 570.161769 -41.96 
L 570.542262 -41.96 
L 570.922755 -41.96 
L 571.303247 -41.96 
L 571.68374 -41.96 
L 572.064233 -41.96 
L 572.444725 -41.96 
L 572.825218 -41.96 
L 573.205711 -41.96 
L 573.586203 -41.96 
L 573.966696 -41.96 
L 574.347189 -41.96 
L 574.727681 -41.96 
L 575.108174 -41.96 
L 575.488667 -41.96 
L 575.869159 -41.96 
L 576.249652 -41.96 
L 576.630145 -41.96 
L 577.010637 -41.96 
L 577.39113 -41.96 
L 577.771622 -41.96 
L 578.152115 -41.96 
L 578.532608 -41.96 
L 578.9131 -41.96 
L 579.293593 -41.96 
L 579.674086 -41.96 
L 580.054578 -41.96 
L 580.435071 -41.96 
L 580.815564 -41.96 
L 581.196056 -41.96 
L 581.576549 -41.96 
L 581.957042 -41.96 
L 582.337534 -41.96 
L 582.718027 -41.96 
L 583.09852 -41.96 
L 583.479012 -41.96 
L 583.859505 -41.96 
L 584.239998 -41.96 
L 584.62049 -41.96 
L 585.000983 -41.96 
L 585.381475 -41.96 
L 585.761968 -41.96 
L 586.142461 -41.96 
L 586.522953 -41.96 
L 586.903446 -41.96 
L 587.283939 -41.96 
L 587.664431 -41.96 
L 588.044924 -41.96 
L 588.425417 -41.96 
L 588.805909 -41.96 
L 589.186402 -41.96 
L 589.566895 -41.96 
L 589.947387 -41.96 
L 590.32788 -41.96 
L 590.708373 -41.96 
L 591.088865 -41.96 
L 591.469358 -41.96 
L 591.849851 -41.96 
L 592.230343 -41.96 
L 592.610836 -41.96 
L 592.991329 -41.96 
L 593.371821 -41.96 
L 593.752314 -41.96 
L 594.132806 -41.96 
L 594.513299 -41.96 
L 594.893792 -41.96 
L 595.274284 -41.96 
L 595.654777 -41.96 
L 596.03527 -41.96 
L 596.415762 -41.96 
L 596.796255 -41.96 
L 597.176748 -41.96 
L 597.55724 -41.96 
L 597.937733 -41.96 
L 598.318226 -41.96 
L 598.698718 -41.96 
L 599.079211 -41.96 
L 599.459704 -41.96 
L 599.840196 -41.96 
L 600.220689 -41.96 
L 600.601182 -41.96 
L 600.981674 -41.96 
L 601.362167 -41.96 
L 601.742659 -41.96 
L 602.123152 -41.96 
L 602.503645 -41.96 
L 602.884137 -41.96 
L 603.26463 -41.96 
L 603.645123 -41.96 
L 604.025615 -41.96 
L 604.406108 -41.96 
L 604.786601 -41.96 
L 605.167093 -41.96 
L 605.547586 -41.96 
L 605.928079 -41.96 
L 606.308571 -41.96 
L 606.689064 -41.96 
L 607.069557 -41.96 
L 607.450049 -41.96 
L 607.830542 -41.96 
L 608.211035 -41.96 
L 608.591527 -41.96 
L 608.97202 -41.96 
L 609.352512 -41.96 
L 609.733005 -41.96 
L 610.113498 -41.96 
L 610.49399 -41.96 
L 610.874483 -41.96 
L 611.254976 -41.96 
L 611.635468 -41.96 
L 612.015961 -41.96 
L 612.396454 -41.96 
L 612.776946 -41.96 
L 613.157439 -41.96 
L 613.537932 -41.96 
L 613.918424 -41.96 
L 614.298917 -41.96 
L 614.67941 -41.96 
L 615.059902 -41.96 
L 615.440395 -41.96 
L 615.820888 -41.96 
L 616.20138 -41.96 
L 616.581873 -41.96 
L 616.962365 -41.96 
L 617.342858 -41.96 
L 617.723351 -41.96 
L 618.103843 -41.96 
L 618.484336 -41.96 
L 618.864829 -41.96 
L 619.245321 -41.96 
L 619.625814 -41.96 
L 620.006307 -41.96 
L 620.386799 -41.96 
L 620.767292 -41.96 
L 621.147785 -41.96 
L 621.528277 -41.96 
L 621.90877 -41.96 
L 622.289263 -41.96 
L 622.669755 -41.96 
L 623.050248 -41.96 
L 623.430741 -41.96 
L 623.811233 -41.96 
L 624.191726 -41.96 
L 624.572218 -41.96 
L 624.952711 -41.96 
L 625.333204 -41.96 
L 625.713696 -41.96 
L 626.094189 -41.96 
L 626.474682 -41.96 
L 626.855174 -41.96 
L 627.235667 -41.96 
L 627.61616 -41.96 
L 627.996652 -41.96 
L 628.377145 -41.96 
L 628.757638 -41.96 
L 629.13813 -41.96 
L 629.518623 -41.96 
L 629.899116 -41.96 
L 630.279608 -41.96 
L 630.660101 -41.96 
L 631.040594 -41.96 
L 631.421086 -41.96 
L 631.801579 -41.96 
L 632.182072 -41.96 
L 632.562564 -41.96 
L 632.943057 -41.96 
L 633.323549 -41.96 
L 633.704042 -41.96 
L 634.084535 -41.96 
L 634.084535 -41.97634 
L 634.084535 -41.97634 
L 633.704042 -41.980856 
L 633.323549 -41.986499 
L 632.943057 -41.993518 
L 632.562564 -42.002208 
L 632.182072 -42.012917 
L 631.801579 -42.026054 
L 631.421086 -42.0421 
L 631.040594 -42.06161 
L 630.660101 -42.08523 
L 630.279608 -42.113699 
L 629.899116 -42.147866 
L 629.518623 -42.188697 
L 629.13813 -42.237283 
L 628.757638 -42.294851 
L 628.377145 -42.362776 
L 627.996652 -42.442582 
L 627.61616 -42.535955 
L 627.235667 -42.64474 
L 626.855174 -42.770948 
L 626.474682 -42.916751 
L 626.094189 -43.084475 
L 625.713696 -43.276592 
L 625.333204 -43.495705 
L 624.952711 -43.744521 
L 624.572218 -44.025832 
L 624.191726 -44.342474 
L 623.811233 -44.69729 
L 623.430741 -45.093079 
L 623.050248 -45.532548 
L 622.669755 -46.018243 
L 622.289263 -46.552493 
L 621.90877 -47.137329 
L 621.528277 -47.77442 
L 621.147785 -48.464994 
L 620.767292 -49.209762 
L 620.386799 -50.008849 
L 620.006307 -50.861726 
L 619.625814 -51.767148 
L 619.245321 -52.723105 
L 618.864829 -53.726785 
L 618.484336 -54.774548 
L 618.103843 -55.86192 
L 617.723351 -56.983602 
L 617.342858 -58.133501 
L 616.962365 -59.304777 
L 616.581873 -60.489916 
L 616.20138 -61.680815 
L 615.820888 -62.868892 
L 615.440395 -64.045208 
L 615.059902 -65.200605 
L 614.67941 -66.325852 
L 614.298917 -67.411804 
L 613.918424 -68.449558 
L 613.537932 -69.430611 
L 613.157439 -70.347017 
L 612.776946 -71.191524 
L 612.396454 -71.957713 
L 612.015961 -72.640106 
L 611.635468 -73.234263 
L 611.254976 -73.736856 
L 610.874483 -74.145714 
L 610.49399 -74.459847 
L 610.113498 -74.679446 
L 609.733005 -74.805856 
L 609.352512 -74.841525 
L 608.97202 -74.78994 
L 608.591527 -74.655533 
L 608.211035 -74.443586 
L 607.830542 -74.160116 
L 607.450049 -73.811754 
L 607.069557 -73.405631 
L 606.689064 -72.949252 
L 606.308571 -72.450381 
L 605.928079 -71.916937 
L 605.547586 -71.356891 
L 605.167093 -70.778183 
L 604.786601 -70.188644 
L 604.406108 -69.59594 
L 604.025615 -69.007521 
L 603.645123 -68.430582 
L 603.26463 -67.872038 
L 602.884137 -67.338509 
L 602.503645 -66.8363 
L 602.123152 -66.371397 
L 601.742659 -65.949455 
L 601.362167 -65.575795 
L 600.981674 -65.255386 
L 600.601182 -64.992831 
L 600.220689 -64.792347 
L 599.840196 -64.657734 
L 599.459704 -64.592341 
L 599.079211 -64.599024 
L 598.698718 -64.6801 
L 598.318226 -64.837295 
L 597.937733 -65.071689 
L 597.55724 -65.38366 
L 597.176748 -65.772828 
L 596.796255 -66.238005 
L 596.415762 -66.777143 
L 596.03527 -67.387298 
L 595.654777 -68.064595 
L 595.274284 -68.804214 
L 594.893792 -69.600379 
L 594.513299 -70.446376 
L 594.132806 -71.334571 
L 593.752314 -72.256466 
L 593.371821 -73.202757 
L 592.991329 -74.163427 
L 592.610836 -75.127848 
L 592.230343 -76.084908 
L 591.849851 -77.023156 
L 591.469358 -77.930968 
L 591.088865 -78.796718 
L 590.708373 -79.608971 
L 590.32788 -80.356676 
L 589.947387 -81.029372 
L 589.566895 -81.617381 
L 589.186402 -82.112003 
L 588.805909 -82.5057 
L 588.425417 -82.792254 
L 588.044924 -82.966911 
L 587.664431 -83.026493 
L 587.283939 -82.969475 
L 586.903446 -82.796032 
L 586.522953 -82.50804 
L 586.142461 -82.109043 
L 585.761968 -81.604172 
L 585.381475 -81.000028 
L 585.000983 -80.304531 
L 584.62049 -79.526726 
L 584.239998 -78.676568 
L 583.859505 -77.764684 
L 583.479012 -76.802117 
L 583.09852 -75.80006 
L 582.718027 -74.769603 
L 582.337534 -73.721471 
L 581.957042 -72.665795 
L 581.576549 -71.611896 
L 581.196056 -70.568106 
L 580.815564 -69.541621 
L 580.435071 -68.538397 
L 580.054578 -67.563086 
L 579.674086 -66.619014 
L 579.293593 -65.708207 
L 578.9131 -64.831453 
L 578.532608 -63.988401 
L 578.152115 -63.177689 
L 577.771622 -62.397108 
L 577.39113 -61.64377 
L 577.010637 -60.914302 
L 576.630145 -60.205033 
L 576.249652 -59.512186 
L 575.869159 -58.832054 
L 575.488667 -58.161166 
L 575.108174 -57.496428 
L 574.727681 -56.835241 
L 574.347189 -56.175585 
L 573.966696 -55.516085 
L 573.586203 -54.856037 
L 573.205711 -54.195405 
L 572.825218 -53.534802 
L 572.444725 -52.875432 
L 572.064233 -52.219019 
L 571.68374 -51.567727 
L 571.303247 -50.924053 
L 570.922755 -50.290727 
L 570.542262 -49.670603 
L 570.161769 -49.066555 
L 569.781277 -48.481378 
L 569.400784 -47.9177 
L 569.020292 -47.377906 
L 568.639799 -46.864073 
L 568.259306 -46.377922 
L 567.878814 -45.920791 
L 567.498321 -45.493612 
L 567.117828 -45.096911 
L 566.737336 -44.730818 
L 566.356843 -44.395089 
L 565.97635 -44.089136 
L 565.595858 -43.812065 
L 565.215365 -43.562721 
L 564.834872 -43.339731 
L 564.45438 -43.141553 
L 564.073887 -42.96652 
L 563.693394 -42.812887 
L 563.312902 -42.678873 
L 562.932409 -42.562691 
L 562.551916 -42.462587 
L 562.171424 -42.376865 
L 561.790931 -42.303907 
L 561.410439 -42.24219 
L 561.029946 -42.190298 
L 560.649453 -42.146933 
L 560.268961 -42.11091 
L 559.888468 -42.081168 
L 559.507975 -42.056759 
L 559.127483 -42.036846 
L 558.74699 -42.020698 
L 558.366497 -42.007681 
z
" style="stroke: #2ca02c"/>
    </defs>
    <g clip-path="url(#p2910d2f6af)">
     <use xlink:href="#m4c87459c4c" x="0" y="216" style="fill: #2ca02c; fill-opacity: 0.25; stroke: #2ca02c"/>
    </g>
   </g>
   <g id="PolyCollection_4">
    <defs>
     <path id="m9e0bff9a6c" d="M 147.111394 -42.027151 
L 147.111394 -41.96 
L 147.206616 -41.96 
L 147.301838 -41.96 
L 147.39706 -41.96 
L 147.492282 -41.96 
L 147.587504 -41.96 
L 147.682726 -41.96 
L 147.777948 -41.96 
L 147.87317 -41.96 
L 147.968391 -41.96 
L 148.063613 -41.96 
L 148.158835 -41.96 
L 148.254057 -41.96 
L 148.349279 -41.96 
L 148.444501 -41.96 
L 148.539723 -41.96 
L 148.634945 -41.96 
L 148.730167 -41.96 
L 148.825389 -41.96 
L 148.92061 -41.96 
L 149.015832 -41.96 
L 149.111054 -41.96 
L 149.206276 -41.96 
L 149.301498 -41.96 
L 149.39672 -41.96 
L 149.491942 -41.96 
L 149.587164 -41.96 
L 149.682386 -41.96 
L 149.777608 -41.96 
L 149.872829 -41.96 
L 149.968051 -41.96 
L 150.063273 -41.96 
L 150.158495 -41.96 
L 150.253717 -41.96 
L 150.348939 -41.96 
L 150.444161 -41.96 
L 150.539383 -41.96 
L 150.634605 -41.96 
L 150.729827 -41.96 
L 150.825048 -41.96 
L 150.92027 -41.96 
L 151.015492 -41.96 
L 151.110714 -41.96 
L 151.205936 -41.96 
L 151.301158 -41.96 
L 151.39638 -41.96 
L 151.491602 -41.96 
L 151.586824 -41.96 
L 151.682046 -41.96 
L 151.777267 -41.96 
L 151.872489 -41.96 
L 151.967711 -41.96 
L 152.062933 -41.96 
L 152.158155 -41.96 
L 152.253377 -41.96 
L 152.348599 -41.96 
L 152.443821 -41.96 
L 152.539043 -41.96 
L 152.634265 -41.96 
L 152.729486 -41.96 
L 152.824708 -41.96 
L 152.91993 -41.96 
L 153.015152 -41.96 
L 153.110374 -41.96 
L 153.205596 -41.96 
L 153.300818 -41.96 
L 153.39604 -41.96 
L 153.491262 -41.96 
L 153.586484 -41.96 
L 153.681705 -41.96 
L 153.776927 -41.96 
L 153.872149 -41.96 
L 153.967371 -41.96 
L 154.062593 -41.96 
L 154.157815 -41.96 
L 154.253037 -41.96 
L 154.348259 -41.96 
L 154.443481 -41.96 
L 154.538703 -41.96 
L 154.633924 -41.96 
L 154.729146 -41.96 
L 154.824368 -41.96 
L 154.91959 -41.96 
L 155.014812 -41.96 
L 155.110034 -41.96 
L 155.205256 -41.96 
L 155.300478 -41.96 
L 155.3957 -41.96 
L 155.490922 -41.96 
L 155.586144 -41.96 
L 155.681365 -41.96 
L 155.776587 -41.96 
L 155.871809 -41.96 
L 155.967031 -41.96 
L 156.062253 -41.96 
L 156.157475 -41.96 
L 156.252697 -41.96 
L 156.347919 -41.96 
L 156.443141 -41.96 
L 156.538363 -41.96 
L 156.633584 -41.96 
L 156.728806 -41.96 
L 156.824028 -41.96 
L 156.91925 -41.96 
L 157.014472 -41.96 
L 157.109694 -41.96 
L 157.204916 -41.96 
L 157.300138 -41.96 
L 157.39536 -41.96 
L 157.490582 -41.96 
L 157.585803 -41.96 
L 157.681025 -41.96 
L 157.776247 -41.96 
L 157.871469 -41.96 
L 157.966691 -41.96 
L 158.061913 -41.96 
L 158.157135 -41.96 
L 158.252357 -41.96 
L 158.347579 -41.96 
L 158.442801 -41.96 
L 158.538022 -41.96 
L 158.633244 -41.96 
L 158.728466 -41.96 
L 158.823688 -41.96 
L 158.91891 -41.96 
L 159.014132 -41.96 
L 159.109354 -41.96 
L 159.204576 -41.96 
L 159.299798 -41.96 
L 159.39502 -41.96 
L 159.490241 -41.96 
L 159.585463 -41.96 
L 159.680685 -41.96 
L 159.775907 -41.96 
L 159.871129 -41.96 
L 159.966351 -41.96 
L 160.061573 -41.96 
L 160.156795 -41.96 
L 160.252017 -41.96 
L 160.347239 -41.96 
L 160.44246 -41.96 
L 160.537682 -41.96 
L 160.632904 -41.96 
L 160.728126 -41.96 
L 160.823348 -41.96 
L 160.91857 -41.96 
L 161.013792 -41.96 
L 161.109014 -41.96 
L 161.204236 -41.96 
L 161.299458 -41.96 
L 161.394679 -41.96 
L 161.489901 -41.96 
L 161.585123 -41.96 
L 161.680345 -41.96 
L 161.775567 -41.96 
L 161.870789 -41.96 
L 161.966011 -41.96 
L 162.061233 -41.96 
L 162.156455 -41.96 
L 162.251677 -41.96 
L 162.346898 -41.96 
L 162.44212 -41.96 
L 162.537342 -41.96 
L 162.632564 -41.96 
L 162.727786 -41.96 
L 162.823008 -41.96 
L 162.91823 -41.96 
L 163.013452 -41.96 
L 163.108674 -41.96 
L 163.203896 -41.96 
L 163.299117 -41.96 
L 163.394339 -41.96 
L 163.489561 -41.96 
L 163.584783 -41.96 
L 163.680005 -41.96 
L 163.775227 -41.96 
L 163.870449 -41.96 
L 163.965671 -41.96 
L 164.060893 -41.96 
L 164.156115 -41.96 
L 164.251336 -41.96 
L 164.346558 -41.96 
L 164.44178 -41.96 
L 164.537002 -41.96 
L 164.632224 -41.96 
L 164.727446 -41.96 
L 164.822668 -41.96 
L 164.91789 -41.96 
L 165.013112 -41.96 
L 165.108334 -41.96 
L 165.203555 -41.96 
L 165.298777 -41.96 
L 165.393999 -41.96 
L 165.489221 -41.96 
L 165.584443 -41.96 
L 165.679665 -41.96 
L 165.774887 -41.96 
L 165.870109 -41.96 
L 165.965331 -41.96 
L 166.060553 -41.96 
L 166.060553 -42.016489 
L 166.060553 -42.016489 
L 165.965331 -42.03351 
L 165.870109 -42.054907 
L 165.774887 -42.081567 
L 165.679665 -42.114492 
L 165.584443 -42.154792 
L 165.489221 -42.203679 
L 165.393999 -42.262447 
L 165.298777 -42.332455 
L 165.203555 -42.415092 
L 165.108334 -42.511741 
L 165.013112 -42.623733 
L 164.91789 -42.752298 
L 164.822668 -42.89851 
L 164.727446 -43.063227 
L 164.632224 -43.247045 
L 164.537002 -43.450239 
L 164.44178 -43.672735 
L 164.346558 -43.914078 
L 164.251336 -44.173438 
L 164.156115 -44.44962 
L 164.060893 -44.741118 
L 163.965671 -45.04619 
L 163.870449 -45.362965 
L 163.775227 -45.689584 
L 163.680005 -46.024356 
L 163.584783 -46.365953 
L 163.489561 -46.713604 
L 163.394339 -47.067306 
L 163.299117 -47.42802 
L 163.203896 -47.797861 
L 163.108674 -48.180252 
L 163.013452 -48.58004 
L 162.91823 -49.003565 
L 162.823008 -49.458666 
L 162.727786 -49.954624 
L 162.632564 -50.502042 
L 162.537342 -51.112651 
L 162.44212 -51.79907 
L 162.346898 -52.574499 
L 162.251677 -53.452389 
L 162.156455 -54.446085 
L 162.061233 -55.56846 
L 161.966011 -56.831571 
L 161.870789 -58.246347 
L 161.775567 -59.822318 
L 161.680345 -61.567421 
L 161.585123 -63.487859 
L 161.489901 -65.588054 
L 161.394679 -67.870659 
L 161.299458 -70.336641 
L 161.204236 -72.985418 
L 161.109014 -75.815032 
L 161.013792 -78.822329 
L 160.91857 -82.003137 
L 160.823348 -85.352409 
L 160.728126 -88.864318 
L 160.632904 -92.532277 
L 160.537682 -96.34889 
L 160.44246 -100.305815 
L 160.347239 -104.393562 
L 160.252017 -108.601226 
L 160.156795 -112.916183 
L 160.061573 -117.323786 
L 159.966351 -121.807085 
L 159.871129 -126.346608 
L 159.775907 -130.920251 
L 159.680685 -135.503292 
L 159.585463 -140.068565 
L 159.490241 -144.586806 
L 159.39502 -149.027171 
L 159.299798 -153.357924 
L 159.204576 -157.547258 
L 159.109354 -161.564235 
L 159.014132 -165.379773 
L 158.91891 -168.967652 
L 158.823688 -172.305461 
L 158.728466 -175.375445 
L 158.633244 -178.165184 
L 158.538022 -180.668076 
L 158.442801 -182.883575 
L 158.347579 -184.817172 
L 158.252357 -186.480123 
L 158.157135 -187.88892 
L 158.061913 -189.064554 
L 157.966691 -190.031586 
L 157.871469 -190.817109 
L 157.776247 -191.449621 
L 157.681025 -191.957906 
L 157.585803 -192.369951 
L 157.490582 -192.711969 
L 157.39536 -193.007564 
L 157.300138 -193.277075 
L 157.204916 -193.537112 
L 157.109694 -193.800301 
L 157.014472 -194.075222 
L 156.91925 -194.366535 
L 156.824028 -194.675267 
L 156.728806 -194.999225 
L 156.633584 -195.333515 
L 156.538363 -195.671118 
L 156.443141 -196.003513 
L 156.347919 -196.321292 
L 156.252697 -196.614775 
L 156.157475 -196.87457 
L 156.062253 -197.092102 
L 155.967031 -197.260065 
L 155.871809 -197.372812 
L 155.776587 -197.426667 
L 155.681365 -197.420153 
L 155.586144 -197.35414 
L 155.490922 -197.231884 
L 155.3957 -197.058986 
L 155.300478 -196.843228 
L 155.205256 -196.594312 
L 155.110034 -196.323474 
L 155.014812 -196.043006 
L 154.91959 -195.765658 
L 154.824368 -195.503969 
L 154.729146 -195.269516 
L 154.633924 -195.072139 
L 154.538703 -194.919152 
L 154.443481 -194.814596 
L 154.348259 -194.758561 
L 154.253037 -194.74664 
L 154.157815 -194.769534 
L 154.062593 -194.812855 
L 153.967371 -194.857149 
L 153.872149 -194.878158 
L 153.776927 -194.847317 
L 153.681705 -194.732486 
L 153.586484 -194.498883 
L 153.491262 -194.110189 
L 153.39604 -193.529773 
L 153.300818 -192.721984 
L 153.205596 -191.653458 
L 153.110374 -190.294359 
L 153.015152 -188.619522 
L 152.91993 -186.609423 
L 152.824708 -184.250945 
L 152.729486 -181.537904 
L 152.634265 -178.471317 
L 152.539043 -175.059407 
L 152.443821 -171.317346 
L 152.348599 -167.26677 
L 152.253377 -162.935083 
L 152.158155 -158.354594 
L 152.062933 -153.561537 
L 151.967711 -148.595013 
L 151.872489 -143.495901 
L 151.777267 -138.305798 
L 151.682046 -133.066001 
L 151.586824 -127.816594 
L 151.491602 -122.595644 
L 151.39638 -117.438537 
L 151.301158 -112.377452 
L 151.205936 -107.440997 
L 151.110714 -102.653974 
L 151.015492 -98.037287 
L 150.92027 -93.607965 
L 150.825048 -89.379288 
L 150.729827 -85.360994 
L 150.634605 -81.559548 
L 150.539383 -77.978459 
L 150.444161 -74.618608 
L 150.348939 -71.478602 
L 150.253717 -68.555111 
L 150.158495 -65.843193 
L 150.063273 -63.336593 
L 149.968051 -61.02802 
L 149.872829 -58.909385 
L 149.777608 -56.972009 
L 149.682386 -55.206802 
L 149.587164 -53.604407 
L 149.491942 -52.155327 
L 149.39672 -50.85002 
L 149.301498 -49.678984 
L 149.206276 -48.632825 
L 149.111054 -47.702309 
L 149.015832 -46.878413 
L 148.92061 -46.152368 
L 148.825389 -45.515694 
L 148.730167 -44.960234 
L 148.634945 -44.478188 
L 148.539723 -44.062138 
L 148.444501 -43.705075 
L 148.349279 -43.400415 
L 148.254057 -43.142022 
L 148.158835 -42.924215 
L 148.063613 -42.741772 
L 147.968391 -42.589933 
L 147.87317 -42.464394 
L 147.777948 -42.361292 
L 147.682726 -42.277195 
L 147.587504 -42.209071 
L 147.492282 -42.154275 
L 147.39706 -42.110511 
L 147.301838 -42.07581 
L 147.206616 -42.048495 
L 147.111394 -42.027151 
z
" style="stroke: #ff7f0e"/>
    </defs>
    <g clip-path="url(#p2910d2f6af)">
     <use xlink:href="#m9e0bff9a6c" x="0" y="216" style="fill: #ff7f0e; fill-opacity: 0.25; stroke: #ff7f0e"/>
    </g>
   </g>
   <g id="PolyCollection_5">
    <defs>
     <path id="m7d7b21deb3" d="M 652.68063 -41.972241 
L 652.68063 -41.96 
L 653.495849 -41.96 
L 654.311067 -41.96 
L 655.126286 -41.96 
L 655.941504 -41.96 
L 656.756722 -41.96 
L 657.571941 -41.96 
L 658.387159 -41.96 
L 659.202378 -41.96 
L 660.017596 -41.96 
L 660.832814 -41.96 
L 661.648033 -41.96 
L 662.463251 -41.96 
L 663.27847 -41.96 
L 664.093688 -41.96 
L 664.908906 -41.96 
L 665.724125 -41.96 
L 666.539343 -41.96 
L 667.354562 -41.96 
L 668.16978 -41.96 
L 668.984998 -41.96 
L 669.800217 -41.96 
L 670.615435 -41.96 
L 671.430654 -41.96 
L 672.245872 -41.96 
L 673.06109 -41.96 
L 673.876309 -41.96 
L 674.691527 -41.96 
L 675.506745 -41.96 
L 676.321964 -41.96 
L 677.137182 -41.96 
L 677.952401 -41.96 
L 678.767619 -41.96 
L 679.582837 -41.96 
L 680.398056 -41.96 
L 681.213274 -41.96 
L 682.028493 -41.96 
L 682.843711 -41.96 
L 683.658929 -41.96 
L 684.474148 -41.96 
L 685.289366 -41.96 
L 686.104585 -41.96 
L 686.919803 -41.96 
L 687.735021 -41.96 
L 688.55024 -41.96 
L 689.365458 -41.96 
L 690.180677 -41.96 
L 690.995895 -41.96 
L 691.811113 -41.96 
L 692.626332 -41.96 
L 693.44155 -41.96 
L 694.256769 -41.96 
L 695.071987 -41.96 
L 695.887205 -41.96 
L 696.702424 -41.96 
L 697.517642 -41.96 
L 698.332861 -41.96 
L 699.148079 -41.96 
L 699.963297 -41.96 
L 700.778516 -41.96 
L 701.593734 -41.96 
L 702.408952 -41.96 
L 703.224171 -41.96 
L 704.039389 -41.96 
L 704.854608 -41.96 
L 705.669826 -41.96 
L 706.485044 -41.96 
L 707.300263 -41.96 
L 708.115481 -41.96 
L 708.9307 -41.96 
L 709.745918 -41.96 
L 710.561136 -41.96 
L 711.376355 -41.96 
L 712.191573 -41.96 
L 713.006792 -41.96 
L 713.82201 -41.96 
L 714.637228 -41.96 
L 715.452447 -41.96 
L 716.267665 -41.96 
L 717.082884 -41.96 
L 717.898102 -41.96 
L 718.71332 -41.96 
L 719.528539 -41.96 
L 720.343757 -41.96 
L 721.158976 -41.96 
L 721.974194 -41.96 
L 722.789412 -41.96 
L 723.604631 -41.96 
L 724.419849 -41.96 
L 725.235068 -41.96 
L 726.050286 -41.96 
L 726.865504 -41.96 
L 727.680723 -41.96 
L 728.495941 -41.96 
L 729.31116 -41.96 
L 730.126378 -41.96 
L 730.941596 -41.96 
L 731.756815 -41.96 
L 732.572033 -41.96 
L 733.387251 -41.96 
L 734.20247 -41.96 
L 735.017688 -41.96 
L 735.832907 -41.96 
L 736.648125 -41.96 
L 737.463343 -41.96 
L 738.278562 -41.96 
L 739.09378 -41.96 
L 739.908999 -41.96 
L 740.724217 -41.96 
L 741.539435 -41.96 
L 742.354654 -41.96 
L 743.169872 -41.96 
L 743.985091 -41.96 
L 744.800309 -41.96 
L 745.615527 -41.96 
L 746.430746 -41.96 
L 747.245964 -41.96 
L 748.061183 -41.96 
L 748.876401 -41.96 
L 749.691619 -41.96 
L 750.506838 -41.96 
L 751.322056 -41.96 
L 752.137275 -41.96 
L 752.952493 -41.96 
L 753.767711 -41.96 
L 754.58293 -41.96 
L 755.398148 -41.96 
L 756.213367 -41.96 
L 757.028585 -41.96 
L 757.843803 -41.96 
L 758.659022 -41.96 
L 759.47424 -41.96 
L 760.289458 -41.96 
L 761.104677 -41.96 
L 761.919895 -41.96 
L 762.735114 -41.96 
L 763.550332 -41.96 
L 764.36555 -41.96 
L 765.180769 -41.96 
L 765.995987 -41.96 
L 766.811206 -41.96 
L 767.626424 -41.96 
L 768.441642 -41.96 
L 769.256861 -41.96 
L 770.072079 -41.96 
L 770.887298 -41.96 
L 771.702516 -41.96 
L 772.517734 -41.96 
L 773.332953 -41.96 
L 774.148171 -41.96 
L 774.96339 -41.96 
L 775.778608 -41.96 
L 776.593826 -41.96 
L 777.409045 -41.96 
L 778.224263 -41.96 
L 779.039482 -41.96 
L 779.8547 -41.96 
L 780.669918 -41.96 
L 781.485137 -41.96 
L 782.300355 -41.96 
L 783.115574 -41.96 
L 783.930792 -41.96 
L 784.74601 -41.96 
L 785.561229 -41.96 
L 786.376447 -41.96 
L 787.191666 -41.96 
L 788.006884 -41.96 
L 788.822102 -41.96 
L 789.637321 -41.96 
L 790.452539 -41.96 
L 791.267757 -41.96 
L 792.082976 -41.96 
L 792.898194 -41.96 
L 793.713413 -41.96 
L 794.528631 -41.96 
L 795.343849 -41.96 
L 796.159068 -41.96 
L 796.974286 -41.96 
L 797.789505 -41.96 
L 798.604723 -41.96 
L 799.419941 -41.96 
L 800.23516 -41.96 
L 801.050378 -41.96 
L 801.865597 -41.96 
L 802.680815 -41.96 
L 803.496033 -41.96 
L 804.311252 -41.96 
L 805.12647 -41.96 
L 805.941689 -41.96 
L 806.756907 -41.96 
L 807.572125 -41.96 
L 808.387344 -41.96 
L 809.202562 -41.96 
L 810.017781 -41.96 
L 810.832999 -41.96 
L 811.648217 -41.96 
L 812.463436 -41.96 
L 813.278654 -41.96 
L 814.093873 -41.96 
L 814.909091 -41.96 
L 814.909091 -41.967015 
L 814.909091 -41.967015 
L 814.093873 -41.969142 
L 813.278654 -41.971833 
L 812.463436 -41.975211 
L 811.648217 -41.97942 
L 810.832999 -41.984626 
L 810.017781 -41.99102 
L 809.202562 -41.998816 
L 808.387344 -42.008255 
L 807.572125 -42.019603 
L 806.756907 -42.033153 
L 805.941689 -42.049223 
L 805.12647 -42.068155 
L 804.311252 -42.090313 
L 803.496033 -42.116082 
L 802.680815 -42.145864 
L 801.865597 -42.180073 
L 801.050378 -42.219136 
L 800.23516 -42.263485 
L 799.419941 -42.313554 
L 798.604723 -42.369777 
L 797.789505 -42.432581 
L 796.974286 -42.502385 
L 796.159068 -42.579595 
L 795.343849 -42.664604 
L 794.528631 -42.757783 
L 793.713413 -42.859483 
L 792.898194 -42.970034 
L 792.082976 -43.089738 
L 791.267757 -43.218872 
L 790.452539 -43.357683 
L 789.637321 -43.50639 
L 788.822102 -43.665181 
L 788.006884 -43.834211 
L 787.191666 -44.013607 
L 786.376447 -44.203463 
L 785.561229 -44.403845 
L 784.74601 -44.614791 
L 783.930792 -44.836311 
L 783.115574 -45.068393 
L 782.300355 -45.311003 
L 781.485137 -45.564088 
L 780.669918 -45.827576 
L 779.8547 -46.10138 
L 779.039482 -46.385395 
L 778.224263 -46.679496 
L 777.409045 -46.983532 
L 776.593826 -47.297324 
L 775.778608 -47.620651 
L 774.96339 -47.953243 
L 774.148171 -48.294769 
L 773.332953 -48.644821 
L 772.517734 -49.002908 
L 771.702516 -49.368438 
L 770.887298 -49.740714 
L 770.072079 -50.118924 
L 769.256861 -50.50214 
L 768.441642 -50.889324 
L 767.626424 -51.279329 
L 766.811206 -51.670916 
L 765.995987 -52.06277 
L 765.180769 -52.45352 
L 764.36555 -52.84177 
L 763.550332 -53.226119 
L 762.735114 -53.605197 
L 761.919895 -53.977693 
L 761.104677 -54.342388 
L 760.289458 -54.69818 
L 759.47424 -55.044117 
L 758.659022 -55.37942 
L 757.843803 -55.70351 
L 757.028585 -56.01603 
L 756.213367 -56.316864 
L 755.398148 -56.60616 
L 754.58293 -56.884342 
L 753.767711 -57.152128 
L 752.952493 -57.410533 
L 752.137275 -57.660879 
L 751.322056 -57.904788 
L 750.506838 -58.144167 
L 749.691619 -58.381184 
L 748.876401 -58.618229 
L 748.061183 -58.857858 
L 747.245964 -59.10272 
L 746.430746 -59.355471 
L 745.615527 -59.618668 
L 744.800309 -59.894651 
L 743.985091 -60.185416 
L 743.169872 -60.492482 
L 742.354654 -60.816762 
L 741.539435 -61.158431 
L 740.724217 -61.516826 
L 739.908999 -61.890353 
L 739.09378 -62.276431 
L 738.278562 -62.671465 
L 737.463343 -63.070865 
L 736.648125 -63.469104 
L 735.832907 -63.859813 
L 735.017688 -64.235929 
L 734.20247 -64.589867 
L 733.387251 -64.913739 
L 732.572033 -65.19958 
L 731.756815 -65.439601 
L 730.941596 -65.626443 
L 730.126378 -65.753423 
L 729.31116 -65.814763 
L 728.495941 -65.805794 
L 727.680723 -65.72312 
L 726.865504 -65.564747 
L 726.050286 -65.33015 
L 725.235068 -65.020305 
L 724.419849 -64.637657 
L 723.604631 -64.186044 
L 722.789412 -63.670579 
L 721.974194 -63.097485 
L 721.158976 -62.473907 
L 720.343757 -61.8077 
L 719.528539 -61.107198 
L 718.71332 -60.380992 
L 717.898102 -59.637704 
L 717.082884 -58.885779 
L 716.267665 -58.1333 
L 715.452447 -57.387826 
L 714.637228 -56.656261 
L 713.82201 -55.944763 
L 713.006792 -55.25867 
L 712.191573 -54.602475 
L 711.376355 -53.979812 
L 710.561136 -53.393487 
L 709.745918 -52.845505 
L 708.9307 -52.337136 
L 708.115481 -51.868975 
L 707.300263 -51.441012 
L 706.485044 -51.052709 
L 705.669826 -50.703066 
L 704.854608 -50.390688 
L 704.039389 -50.11384 
L 703.224171 -49.870503 
L 702.408952 -49.658408 
L 701.593734 -49.475078 
L 700.778516 -49.317852 
L 699.963297 -49.183913 
L 699.148079 -49.070306 
L 698.332861 -48.973965 
L 697.517642 -48.891734 
L 696.702424 -48.820393 
L 695.887205 -48.756694 
L 695.071987 -48.697395 
L 694.256769 -48.639306 
L 693.44155 -48.579332 
L 692.626332 -48.51453 
L 691.811113 -48.442159 
L 690.995895 -48.359739 
L 690.180677 -48.265098 
L 689.365458 -48.156426 
L 688.55024 -48.032309 
L 687.735021 -47.891769 
L 686.919803 -47.734283 
L 686.104585 -47.559788 
L 685.289366 -47.368683 
L 684.474148 -47.16181 
L 683.658929 -46.94042 
L 682.843711 -46.706138 
L 682.028493 -46.460902 
L 681.213274 -46.206907 
L 680.398056 -45.946534 
L 679.582837 -45.682281 
L 678.767619 -45.416692 
L 677.952401 -45.152284 
L 677.137182 -44.891483 
L 676.321964 -44.636564 
L 675.506745 -44.389604 
L 674.691527 -44.152434 
L 673.876309 -43.926617 
L 673.06109 -43.713419 
L 672.245872 -43.51381 
L 671.430654 -43.328457 
L 670.615435 -43.15774 
L 669.800217 -43.001765 
L 668.984998 -42.860395 
L 668.16978 -42.733273 
L 667.354562 -42.619859 
L 666.539343 -42.519463 
L 665.724125 -42.431277 
L 664.908906 -42.354413 
L 664.093688 -42.28793 
L 663.27847 -42.230865 
L 662.463251 -42.182256 
L 661.648033 -42.141162 
L 660.832814 -42.106685 
L 660.017596 -42.077976 
L 659.202378 -42.05425 
L 658.387159 -42.034789 
L 657.571941 -42.018946 
L 656.756722 -42.006144 
L 655.941504 -41.995877 
L 655.126286 -41.987704 
L 654.311067 -41.981247 
L 653.495849 -41.976183 
L 652.68063 -41.972241 
z
" style="stroke: #1f77b4"/>
    </defs>
    <g clip-path="url(#p2910d2f6af)">
     <use xlink:href="#m7d7b21deb3" x="0" y="216" style="fill: #1f77b4; fill-opacity: 0.25; stroke: #1f77b4"/>
    </g>
   </g>
   <g id="matplotlib.axis_1">
    <g id="xtick_1">
     <g id="line2d_1">
      <defs>
       <path id="m83f0314938" d="M 0 0 
L 0 3.5 
" style="stroke: #000000; stroke-width: 0.8"/>
      </defs>
      <g>
       <use xlink:href="#m83f0314938" x="30.844942" y="174.04" style="stroke: #000000; stroke-width: 0.8"/>
      </g>
     </g>
     <g id="text_1">
      <!-- 2 -->
      <g transform="translate(27.663692 188.638438) scale(0.1 -0.1)">
       <defs>
        <path id="DejaVuSans-32" d="M 1228 531 
L 3431 531 
L 3431 0 
L 469 0 
L 469 531 
Q 828 903 1448 1529 
Q 2069 2156 2228 2338 
Q 2531 2678 2651 2914 
Q 2772 3150 2772 3378 
Q 2772 3750 2511 3984 
Q 2250 4219 1831 4219 
Q 1534 4219 1204 4116 
Q 875 4013 500 3803 
L 500 4441 
Q 881 4594 1212 4672 
Q 1544 4750 1819 4750 
Q 2544 4750 2975 4387 
Q 3406 4025 3406 3419 
Q 3406 3131 3298 2873 
Q 3191 2616 2906 2266 
Q 2828 2175 2409 1742 
Q 1991 1309 1228 531 
z
" transform="scale(0.015625)"/>
       </defs>
       <use xlink:href="#DejaVuSans-32"/>
      </g>
     </g>
    </g>
    <g id="xtick_2">
     <g id="line2d_2">
      <g>
       <use xlink:href="#m83f0314938" x="201.250095" y="174.04" style="stroke: #000000; stroke-width: 0.8"/>
      </g>
     </g>
     <g id="text_2">
      <!-- 4 -->
      <g transform="translate(198.068845 188.638438) scale(0.1 -0.1)">
       <defs>
        <path id="DejaVuSans-34" d="M 2419 4116 
L 825 1625 
L 2419 1625 
L 2419 4116 
z
M 2253 4666 
L 3047 4666 
L 3047 1625 
L 3713 1625 
L 3713 1100 
L 3047 1100 
L 3047 0 
L 2419 0 
L 2419 1100 
L 313 1100 
L 313 1709 
L 2253 4666 
z
" transform="scale(0.015625)"/>
       </defs>
       <use xlink:href="#DejaVuSans-34"/>
      </g>
     </g>
    </g>
    <g id="xtick_3">
     <g id="line2d_3">
      <g>
       <use xlink:href="#m83f0314938" x="371.655248" y="174.04" style="stroke: #000000; stroke-width: 0.8"/>
      </g>
     </g>
     <g id="text_3">
      <!-- 6 -->
      <g transform="translate(368.473998 188.638438) scale(0.1 -0.1)">
       <defs>
        <path id="DejaVuSans-36" d="M 2113 2584 
Q 1688 2584 1439 2293 
Q 1191 2003 1191 1497 
Q 1191 994 1439 701 
Q 1688 409 2113 409 
Q 2538 409 2786 701 
Q 3034 994 3034 1497 
Q 3034 2003 2786 2293 
Q 2538 2584 2113 2584 
z
M 3366 4563 
L 3366 3988 
Q 3128 4100 2886 4159 
Q 2644 4219 2406 4219 
Q 1781 4219 1451 3797 
Q 1122 3375 1075 2522 
Q 1259 2794 1537 2939 
Q 1816 3084 2150 3084 
Q 2853 3084 3261 2657 
Q 3669 2231 3669 1497 
Q 3669 778 3244 343 
Q 2819 -91 2113 -91 
Q 1303 -91 875 529 
Q 447 1150 447 2328 
Q 447 3434 972 4092 
Q 1497 4750 2381 4750 
Q 2619 4750 2861 4703 
Q 3103 4656 3366 4563 
z
" transform="scale(0.015625)"/>
       </defs>
       <use xlink:href="#DejaVuSans-36"/>
      </g>
     </g>
    </g>
    <g id="xtick_4">
     <g id="line2d_4">
      <g>
       <use xlink:href="#m83f0314938" x="542.060401" y="174.04" style="stroke: #000000; stroke-width: 0.8"/>
      </g>
     </g>
     <g id="text_4">
      <!-- 8 -->
      <g transform="translate(538.879151 188.638438) scale(0.1 -0.1)">
       <defs>
        <path id="DejaVuSans-38" d="M 2034 2216 
Q 1584 2216 1326 1975 
Q 1069 1734 1069 1313 
Q 1069 891 1326 650 
Q 1584 409 2034 409 
Q 2484 409 2743 651 
Q 3003 894 3003 1313 
Q 3003 1734 2745 1975 
Q 2488 2216 2034 2216 
z
M 1403 2484 
Q 997 2584 770 2862 
Q 544 3141 544 3541 
Q 544 4100 942 4425 
Q 1341 4750 2034 4750 
Q 2731 4750 3128 4425 
Q 3525 4100 3525 3541 
Q 3525 3141 3298 2862 
Q 3072 2584 2669 2484 
Q 3125 2378 3379 2068 
Q 3634 1759 3634 1313 
Q 3634 634 3220 271 
Q 2806 -91 2034 -91 
Q 1263 -91 848 271 
Q 434 634 434 1313 
Q 434 1759 690 2068 
Q 947 2378 1403 2484 
z
M 1172 3481 
Q 1172 3119 1398 2916 
Q 1625 2713 2034 2713 
Q 2441 2713 2670 2916 
Q 2900 3119 2900 3481 
Q 2900 3844 2670 4047 
Q 2441 4250 2034 4250 
Q 1625 4250 1398 4047 
Q 1172 3844 1172 3481 
z
" transform="scale(0.015625)"/>
       </defs>
       <use xlink:href="#DejaVuSans-38"/>
      </g>
     </g>
    </g>
    <g id="xtick_5">
     <g id="line2d_5">
      <g>
       <use xlink:href="#m83f0314938" x="712.465554" y="174.04" style="stroke: #000000; stroke-width: 0.8"/>
      </g>
     </g>
     <g id="text_5">
      <!-- 10 -->
      <g transform="translate(706.103054 188.638438) scale(0.1 -0.1)">
       <defs>
        <path id="DejaVuSans-31" d="M 794 531 
L 1825 531 
L 1825 4091 
L 703 3866 
L 703 4441 
L 1819 4666 
L 2450 4666 
L 2450 531 
L 3481 531 
L 3481 0 
L 794 0 
L 794 531 
z
" transform="scale(0.015625)"/>
        <path id="DejaVuSans-30" d="M 2034 4250 
Q 1547 4250 1301 3770 
Q 1056 3291 1056 2328 
Q 1056 1369 1301 889 
Q 1547 409 2034 409 
Q 2525 409 2770 889 
Q 3016 1369 3016 2328 
Q 3016 3291 2770 3770 
Q 2525 4250 2034 4250 
z
M 2034 4750 
Q 2819 4750 3233 4129 
Q 3647 3509 3647 2328 
Q 3647 1150 3233 529 
Q 2819 -91 2034 -91 
Q 1250 -91 836 529 
Q 422 1150 422 2328 
Q 422 3509 836 4129 
Q 1250 4750 2034 4750 
z
" transform="scale(0.015625)"/>
       </defs>
       <use xlink:href="#DejaVuSans-31"/>
       <use xlink:href="#DejaVuSans-30" x="63.623047"/>
      </g>
     </g>
    </g>
    <g id="text_6">
     <!-- seconds -->
     <g transform="translate(411.5625 202.316563) scale(0.1 -0.1)">
      <defs>
       <path id="DejaVuSans-73" d="M 2834 3397 
L 2834 2853 
Q 2591 2978 2328 3040 
Q 2066 3103 1784 3103 
Q 1356 3103 1142 2972 
Q 928 2841 928 2578 
Q 928 2378 1081 2264 
Q 1234 2150 1697 2047 
L 1894 2003 
Q 2506 1872 2764 1633 
Q 3022 1394 3022 966 
Q 3022 478 2636 193 
Q 2250 -91 1575 -91 
Q 1294 -91 989 -36 
Q 684 19 347 128 
L 347 722 
Q 666 556 975 473 
Q 1284 391 1588 391 
Q 1994 391 2212 530 
Q 2431 669 2431 922 
Q 2431 1156 2273 1281 
Q 2116 1406 1581 1522 
L 1381 1569 
Q 847 1681 609 1914 
Q 372 2147 372 2553 
Q 372 3047 722 3315 
Q 1072 3584 1716 3584 
Q 2034 3584 2315 3537 
Q 2597 3491 2834 3397 
z
" transform="scale(0.015625)"/>
       <path id="DejaVuSans-65" d="M 3597 1894 
L 3597 1613 
L 953 1613 
Q 991 1019 1311 708 
Q 1631 397 2203 397 
Q 2534 397 2845 478 
Q 3156 559 3463 722 
L 3463 178 
Q 3153 47 2828 -22 
Q 2503 -91 2169 -91 
Q 1331 -91 842 396 
Q 353 884 353 1716 
Q 353 2575 817 3079 
Q 1281 3584 2069 3584 
Q 2775 3584 3186 3129 
Q 3597 2675 3597 1894 
z
M 3022 2063 
Q 3016 2534 2758 2815 
Q 2500 3097 2075 3097 
Q 1594 3097 1305 2825 
Q 1016 2553 972 2059 
L 3022 2063 
z
" transform="scale(0.015625)"/>
       <path id="DejaVuSans-63" d="M 3122 3366 
L 3122 2828 
Q 2878 2963 2633 3030 
Q 2388 3097 2138 3097 
Q 1578 3097 1268 2742 
Q 959 2388 959 1747 
Q 959 1106 1268 751 
Q 1578 397 2138 397 
Q 2388 397 2633 464 
Q 2878 531 3122 666 
L 3122 134 
Q 2881 22 2623 -34 
Q 2366 -91 2075 -91 
Q 1284 -91 818 406 
Q 353 903 353 1747 
Q 353 2603 823 3093 
Q 1294 3584 2113 3584 
Q 2378 3584 2631 3529 
Q 2884 3475 3122 3366 
z
" transform="scale(0.015625)"/>
       <path id="DejaVuSans-6f" d="M 1959 3097 
Q 1497 3097 1228 2736 
Q 959 2375 959 1747 
Q 959 1119 1226 758 
Q 1494 397 1959 397 
Q 2419 397 2687 759 
Q 2956 1122 2956 1747 
Q 2956 2369 2687 2733 
Q 2419 3097 1959 3097 
z
M 1959 3584 
Q 2709 3584 3137 3096 
Q 3566 2609 3566 1747 
Q 3566 888 3137 398 
Q 2709 -91 1959 -91 
Q 1206 -91 779 398 
Q 353 888 353 1747 
Q 353 2609 779 3096 
Q 1206 3584 1959 3584 
z
" transform="scale(0.015625)"/>
       <path id="DejaVuSans-6e" d="M 3513 2113 
L 3513 0 
L 2938 0 
L 2938 2094 
Q 2938 2591 2744 2837 
Q 2550 3084 2163 3084 
Q 1697 3084 1428 2787 
Q 1159 2491 1159 1978 
L 1159 0 
L 581 0 
L 581 3500 
L 1159 3500 
L 1159 2956 
Q 1366 3272 1645 3428 
Q 1925 3584 2291 3584 
Q 2894 3584 3203 3211 
Q 3513 2838 3513 2113 
z
" transform="scale(0.015625)"/>
       <path id="DejaVuSans-64" d="M 2906 2969 
L 2906 4863 
L 3481 4863 
L 3481 0 
L 2906 0 
L 2906 525 
Q 2725 213 2448 61 
Q 2172 -91 1784 -91 
Q 1150 -91 751 415 
Q 353 922 353 1747 
Q 353 2572 751 3078 
Q 1150 3584 1784 3584 
Q 2172 3584 2448 3432 
Q 2725 3281 2906 2969 
z
M 947 1747 
Q 947 1113 1208 752 
Q 1469 391 1925 391 
Q 2381 391 2643 752 
Q 2906 1113 2906 1747 
Q 2906 2381 2643 2742 
Q 2381 3103 1925 3103 
Q 1469 3103 1208 2742 
Q 947 2381 947 1747 
z
" transform="scale(0.015625)"/>
      </defs>
      <use xlink:href="#DejaVuSans-73"/>
      <use xlink:href="#DejaVuSans-65" x="52.099609"/>
      <use xlink:href="#DejaVuSans-63" x="113.623047"/>
      <use xlink:href="#DejaVuSans-6f" x="168.603516"/>
      <use xlink:href="#DejaVuSans-6e" x="229.785156"/>
      <use xlink:href="#DejaVuSans-64" x="293.164062"/>
      <use xlink:href="#DejaVuSans-73" x="356.640625"/>
     </g>
    </g>
   </g>
   <g id="patch_3">
    <path d="M 10.8 174.04 
L 853.2 174.04 
" style="fill: none; stroke: #000000; stroke-width: 0.8; stroke-linejoin: miter; stroke-linecap: square"/>
   </g>
   <g id="legend_1">
    <g id="patch_4">
     <path d="M 723.898438 27.398438 
L 743.898438 27.398438 
L 743.898438 20.398438 
L 723.898438 20.398438 
z
" style="fill: #1f77b4; fill-opacity: 0.25; stroke: #1f77b4; stroke-linejoin: miter"/>
    </g>
    <g id="text_7">
     <!-- asyncpg_fetch -->
     <g transform="translate(751.898438 27.398438) scale(0.1 -0.1)">
      <defs>
       <path id="DejaVuSans-61" d="M 2194 1759 
Q 1497 1759 1228 1600 
Q 959 1441 959 1056 
Q 959 750 1161 570 
Q 1363 391 1709 391 
Q 2188 391 2477 730 
Q 2766 1069 2766 1631 
L 2766 1759 
L 2194 1759 
z
M 3341 1997 
L 3341 0 
L 2766 0 
L 2766 531 
Q 2569 213 2275 61 
Q 1981 -91 1556 -91 
Q 1019 -91 701 211 
Q 384 513 384 1019 
Q 384 1609 779 1909 
Q 1175 2209 1959 2209 
L 2766 2209 
L 2766 2266 
Q 2766 2663 2505 2880 
Q 2244 3097 1772 3097 
Q 1472 3097 1187 3025 
Q 903 2953 641 2809 
L 641 3341 
Q 956 3463 1253 3523 
Q 1550 3584 1831 3584 
Q 2591 3584 2966 3190 
Q 3341 2797 3341 1997 
z
" transform="scale(0.015625)"/>
       <path id="DejaVuSans-79" d="M 2059 -325 
Q 1816 -950 1584 -1140 
Q 1353 -1331 966 -1331 
L 506 -1331 
L 506 -850 
L 844 -850 
Q 1081 -850 1212 -737 
Q 1344 -625 1503 -206 
L 1606 56 
L 191 3500 
L 800 3500 
L 1894 763 
L 2988 3500 
L 3597 3500 
L 2059 -325 
z
" transform="scale(0.015625)"/>
       <path id="DejaVuSans-70" d="M 1159 525 
L 1159 -1331 
L 581 -1331 
L 581 3500 
L 1159 3500 
L 1159 2969 
Q 1341 3281 1617 3432 
Q 1894 3584 2278 3584 
Q 2916 3584 3314 3078 
Q 3713 2572 3713 1747 
Q 3713 922 3314 415 
Q 2916 -91 2278 -91 
Q 1894 -91 1617 61 
Q 1341 213 1159 525 
z
M 3116 1747 
Q 3116 2381 2855 2742 
Q 2594 3103 2138 3103 
Q 1681 3103 1420 2742 
Q 1159 2381 1159 1747 
Q 1159 1113 1420 752 
Q 1681 391 2138 391 
Q 2594 391 2855 752 
Q 3116 1113 3116 1747 
z
" transform="scale(0.015625)"/>
       <path id="DejaVuSans-67" d="M 2906 1791 
Q 2906 2416 2648 2759 
Q 2391 3103 1925 3103 
Q 1463 3103 1205 2759 
Q 947 2416 947 1791 
Q 947 1169 1205 825 
Q 1463 481 1925 481 
Q 2391 481 2648 825 
Q 2906 1169 2906 1791 
z
M 3481 434 
Q 3481 -459 3084 -895 
Q 2688 -1331 1869 -1331 
Q 1566 -1331 1297 -1286 
Q 1028 -1241 775 -1147 
L 775 -588 
Q 1028 -725 1275 -790 
Q 1522 -856 1778 -856 
Q 2344 -856 2625 -561 
Q 2906 -266 2906 331 
L 2906 616 
Q 2728 306 2450 153 
Q 2172 0 1784 0 
Q 1141 0 747 490 
Q 353 981 353 1791 
Q 353 2603 747 3093 
Q 1141 3584 1784 3584 
Q 2172 3584 2450 3431 
Q 2728 3278 2906 2969 
L 2906 3500 
L 3481 3500 
L 3481 434 
z
" transform="scale(0.015625)"/>
       <path id="DejaVuSans-5f" d="M 3263 -1063 
L 3263 -1509 
L -63 -1509 
L -63 -1063 
L 3263 -1063 
z
" transform="scale(0.015625)"/>
       <path id="DejaVuSans-66" d="M 2375 4863 
L 2375 4384 
L 1825 4384 
Q 1516 4384 1395 4259 
Q 1275 4134 1275 3809 
L 1275 3500 
L 2222 3500 
L 2222 3053 
L 1275 3053 
L 1275 0 
L 697 0 
L 697 3053 
L 147 3053 
L 147 3500 
L 697 3500 
L 697 3744 
Q 697 4328 969 4595 
Q 1241 4863 1831 4863 
L 2375 4863 
z
" transform="scale(0.015625)"/>
       <path id="DejaVuSans-74" d="M 1172 4494 
L 1172 3500 
L 2356 3500 
L 2356 3053 
L 1172 3053 
L 1172 1153 
Q 1172 725 1289 603 
Q 1406 481 1766 481 
L 2356 481 
L 2356 0 
L 1766 0 
Q 1100 0 847 248 
Q 594 497 594 1153 
L 594 3053 
L 172 3053 
L 172 3500 
L 594 3500 
L 594 4494 
L 1172 4494 
z
" transform="scale(0.015625)"/>
       <path id="DejaVuSans-68" d="M 3513 2113 
L 3513 0 
L 2938 0 
L 2938 2094 
Q 2938 2591 2744 2837 
Q 2550 3084 2163 3084 
Q 1697 3084 1428 2787 
Q 1159 2491 1159 1978 
L 1159 0 
L 581 0 
L 581 4863 
L 1159 4863 
L 1159 2956 
Q 1366 3272 1645 3428 
Q 1925 3584 2291 3584 
Q 2894 3584 3203 3211 
Q 3513 2838 3513 2113 
z
" transform="scale(0.015625)"/>
      </defs>
      <use xlink:href="#DejaVuSans-61"/>
      <use xlink:href="#DejaVuSans-73" x="61.279297"/>
      <use xlink:href="#DejaVuSans-79" x="113.378906"/>
      <use xlink:href="#DejaVuSans-6e" x="172.558594"/>
      <use xlink:href="#DejaVuSans-63" x="235.9375"/>
      <use xlink:href="#DejaVuSans-70" x="290.917969"/>
      <use xlink:href="#DejaVuSans-67" x="354.394531"/>
      <use xlink:href="#DejaVuSans-5f" x="417.871094"/>
      <use xlink:href="#DejaVuSans-66" x="467.871094"/>
      <use xlink:href="#DejaVuSans-65" x="503.076172"/>
      <use xlink:href="#DejaVuSans-74" x="564.599609"/>
      <use xlink:href="#DejaVuSans-63" x="603.808594"/>
      <use xlink:href="#DejaVuSans-68" x="658.789062"/>
     </g>
    </g>
    <g id="patch_5">
     <path d="M 723.898438 42.354688 
L 743.898438 42.354688 
L 743.898438 35.354688 
L 723.898438 35.354688 
z
" style="fill: #ff7f0e; fill-opacity: 0.25; stroke: #ff7f0e; stroke-linejoin: miter"/>
    </g>
    <g id="text_8">
     <!-- asyncpg_copy_csv -->
     <g transform="translate(751.898438 42.354688) scale(0.1 -0.1)">
      <defs>
       <path id="DejaVuSans-76" d="M 191 3500 
L 800 3500 
L 1894 563 
L 2988 3500 
L 3597 3500 
L 2284 0 
L 1503 0 
L 191 3500 
z
" transform="scale(0.015625)"/>
      </defs>
      <use xlink:href="#DejaVuSans-61"/>
      <use xlink:href="#DejaVuSans-73" x="61.279297"/>
      <use xlink:href="#DejaVuSans-79" x="113.378906"/>
      <use xlink:href="#DejaVuSans-6e" x="172.558594"/>
      <use xlink:href="#DejaVuSans-63" x="235.9375"/>
      <use xlink:href="#DejaVuSans-70" x="290.917969"/>
      <use xlink:href="#DejaVuSans-67" x="354.394531"/>
      <use xlink:href="#DejaVuSans-5f" x="417.871094"/>
      <use xlink:href="#DejaVuSans-63" x="467.871094"/>
      <use xlink:href="#DejaVuSans-6f" x="522.851562"/>
      <use xlink:href="#DejaVuSans-70" x="584.033203"/>
      <use xlink:href="#DejaVuSans-79" x="647.509766"/>
      <use xlink:href="#DejaVuSans-5f" x="706.689453"/>
      <use xlink:href="#DejaVuSans-63" x="756.689453"/>
      <use xlink:href="#DejaVuSans-73" x="811.669922"/>
      <use xlink:href="#DejaVuSans-76" x="863.769531"/>
     </g>
    </g>
    <g id="patch_6">
     <path d="M 723.898438 57.310937 
L 743.898438 57.310937 
L 743.898438 50.310937 
L 723.898438 50.310937 
z
" style="fill: #2ca02c; fill-opacity: 0.25; stroke: #2ca02c; stroke-linejoin: miter"/>
    </g>
    <g id="text_9">
     <!-- psycopg_fetchall -->
     <g transform="translate(751.898438 57.310937) scale(0.1 -0.1)">
      <defs>
       <path id="DejaVuSans-6c" d="M 603 4863 
L 1178 4863 
L 1178 0 
L 603 0 
L 603 4863 
z
" transform="scale(0.015625)"/>
      </defs>
      <use xlink:href="#DejaVuSans-70"/>
      <use xlink:href="#DejaVuSans-73" x="63.476562"/>
      <use xlink:href="#DejaVuSans-79" x="115.576172"/>
      <use xlink:href="#DejaVuSans-63" x="174.755859"/>
      <use xlink:href="#DejaVuSans-6f" x="229.736328"/>
      <use xlink:href="#DejaVuSans-70" x="290.917969"/>
      <use xlink:href="#DejaVuSans-67" x="354.394531"/>
      <use xlink:href="#DejaVuSans-5f" x="417.871094"/>
      <use xlink:href="#DejaVuSans-66" x="467.871094"/>
      <use xlink:href="#DejaVuSans-65" x="503.076172"/>
      <use xlink:href="#DejaVuSans-74" x="564.599609"/>
      <use xlink:href="#DejaVuSans-63" x="603.808594"/>
      <use xlink:href="#DejaVuSans-68" x="658.789062"/>
      <use xlink:href="#DejaVuSans-61" x="722.167969"/>
      <use xlink:href="#DejaVuSans-6c" x="783.447266"/>
      <use xlink:href="#DejaVuSans-6c" x="811.230469"/>
     </g>
    </g>
    <g id="patch_7">
     <path d="M 723.898438 72.267188 
L 743.898438 72.267188 
L 743.898438 65.267188 
L 723.898438 65.267188 
z
" style="fill: #d62728; fill-opacity: 0.25; stroke: #d62728; stroke-linejoin: miter"/>
    </g>
    <g id="text_10">
     <!-- psycopg_copy_csv -->
     <g transform="translate(751.898438 72.267188) scale(0.1 -0.1)">
      <use xlink:href="#DejaVuSans-70"/>
      <use xlink:href="#DejaVuSans-73" x="63.476562"/>
      <use xlink:href="#DejaVuSans-79" x="115.576172"/>
      <use xlink:href="#DejaVuSans-63" x="174.755859"/>
      <use xlink:href="#DejaVuSans-6f" x="229.736328"/>
      <use xlink:href="#DejaVuSans-70" x="290.917969"/>
      <use xlink:href="#DejaVuSans-67" x="354.394531"/>
      <use xlink:href="#DejaVuSans-5f" x="417.871094"/>
      <use xlink:href="#DejaVuSans-63" x="467.871094"/>
      <use xlink:href="#DejaVuSans-6f" x="522.851562"/>
      <use xlink:href="#DejaVuSans-70" x="584.033203"/>
      <use xlink:href="#DejaVuSans-79" x="647.509766"/>
      <use xlink:href="#DejaVuSans-5f" x="706.689453"/>
      <use xlink:href="#DejaVuSans-63" x="756.689453"/>
      <use xlink:href="#DejaVuSans-73" x="811.669922"/>
      <use xlink:href="#DejaVuSans-76" x="863.769531"/>
     </g>
    </g>
    <g id="patch_8">
     <path d="M 723.898438 87.223437 
L 743.898438 87.223437 
L 743.898438 80.223437 
L 723.898438 80.223437 
z
" style="fill: #9467bd; fill-opacity: 0.25; stroke: #9467bd; stroke-linejoin: miter"/>
    </g>
    <g id="text_11">
     <!-- pgeon_copy -->
     <g transform="translate(751.898438 87.223437) scale(0.1 -0.1)">
      <use xlink:href="#DejaVuSans-70"/>
      <use xlink:href="#DejaVuSans-67" x="63.476562"/>
      <use xlink:href="#DejaVuSans-65" x="126.953125"/>
      <use xlink:href="#DejaVuSans-6f" x="188.476562"/>
      <use xlink:href="#DejaVuSans-6e" x="249.658203"/>
      <use xlink:href="#DejaVuSans-5f" x="313.037109"/>
      <use xlink:href="#DejaVuSans-63" x="363.037109"/>
      <use xlink:href="#DejaVuSans-6f" x="418.017578"/>
      <use xlink:href="#DejaVuSans-70" x="479.199219"/>
      <use xlink:href="#DejaVuSans-79" x="542.675781"/>
     </g>
    </g>
   </g>
  </g>
 </g>
 <defs>
  <clipPath id="p2910d2f6af">
   <rect x="10.8" y="10.8" width="842.4" height="163.24"/>
  </clipPath>
 </defs>
</svg>
