<?xml version="1.0" encoding="utf-8" standalone="no"?>
<!DOCTYPE svg PUBLIC "-//W3C//DTD SVG 1.1//EN"
  "http://www.w3.org/Graphics/SVG/1.1/DTD/svg11.dtd">
<svg xmlns:xlink="http://www.w3.org/1999/xlink" width="576pt" height="216pt" viewBox="0 0 576 216" xmlns="http://www.w3.org/2000/svg" version="1.1">
 <metadata>
  <rdf:RDF xmlns:dc="http://purl.org/dc/elements/1.1/" xmlns:cc="http://creativecommons.org/ns#" xmlns:rdf="http://www.w3.org/1999/02/22-rdf-syntax-ns#">
   <cc:Work>
    <dc:type rdf:resource="http://purl.org/dc/dcmitype/StillImage"/>
    <dc:date>2023-02-19T11:09:32.198696</dc:date>
    <dc:format>image/svg+xml</dc:format>
    <dc:creator>
     <cc:Agent>
      <dc:title>Matplotlib v3.7.0, https://matplotlib.org/</dc:title>
     </cc:Agent>
    </dc:creator>
   </cc:Work>
  </rdf:RDF>
 </metadata>
 <defs>
  <style type="text/css">*{stroke-linejoin: round; stroke-linecap: butt}</style>
 </defs>
 <g id="figure_1">
  <g id="patch_1">
   <path d="M 0 216 
L 576 216 
L 576 0 
L 0 0 
z
" style="fill: #ffffff"/>
  </g>
  <g id="axes_1">
   <g id="patch_2">
    <path d="M 10.8 174.04 
L 565.2 174.04 
L 565.2 10.8 
L 10.8 10.8 
z
" style="fill: #ffffff"/>
   </g>
   <g id="PolyCollection_1">
    <defs>
     <path id="mb023bf964b" d="M 36 -42.885761 
L 36 -41.96 
L 36.143135 -41.96 
L 36.28627 -41.96 
L 36.429405 -41.96 
L 36.572541 -41.96 
L 36.715676 -41.96 
L 36.858811 -41.96 
L 37.001946 -41.96 
L 37.145081 -41.96 
L 37.288216 -41.96 
L 37.431351 -41.96 
L 37.574486 -41.96 
L 37.717622 -41.96 
L 37.860757 -41.96 
L 38.003892 -41.96 
L 38.147027 -41.96 
L 38.290162 -41.96 
L 38.433297 -41.96 
L 38.576432 -41.96 
L 38.719568 -41.96 
L 38.862703 -41.96 
L 39.005838 -41.96 
L 39.148973 -41.96 
L 39.292108 -41.96 
L 39.435243 -41.96 
L 39.578378 -41.96 
L 39.721513 -41.96 
L 39.864649 -41.96 
L 40.007784 -41.96 
L 40.150919 -41.96 
L 40.294054 -41.96 
L 40.437189 -41.96 
L 40.580324 -41.96 
L 40.723459 -41.96 
L 40.866594 -41.96 
L 41.00973 -41.96 
L 41.152865 -41.96 
L 41.296 -41.96 
L 41.439135 -41.96 
L 41.58227 -41.96 
L 41.725405 -41.96 
L 41.86854 -41.96 
L 42.011676 -41.96 
L 42.154811 -41.96 
L 42.297946 -41.96 
L 42.441081 -41.96 
L 42.584216 -41.96 
L 42.727351 -41.96 
L 42.870486 -41.96 
L 43.013621 -41.96 
L 43.156757 -41.96 
L 43.299892 -41.96 
L 43.443027 -41.96 
L 43.586162 -41.96 
L 43.729297 -41.96 
L 43.872432 -41.96 
L 44.015567 -41.96 
L 44.158703 -41.96 
L 44.301838 -41.96 
L 44.444973 -41.96 
L 44.588108 -41.96 
L 44.731243 -41.96 
L 44.874378 -41.96 
L 45.017513 -41.96 
L 45.160648 -41.96 
L 45.303784 -41.96 
L 45.446919 -41.96 
L 45.590054 -41.96 
L 45.733189 -41.96 
L 45.876324 -41.96 
L 46.019459 -41.96 
L 46.162594 -41.96 
L 46.305729 -41.96 
L 46.448865 -41.96 
L 46.592 -41.96 
L 46.735135 -41.96 
L 46.87827 -41.96 
L 47.021405 -41.96 
L 47.16454 -41.96 
L 47.307675 -41.96 
L 47.450811 -41.96 
L 47.593946 -41.96 
L 47.737081 -41.96 
L 47.880216 -41.96 
L 48.023351 -41.96 
L 48.166486 -41.96 
L 48.309621 -41.96 
L 48.452756 -41.96 
L 48.595892 -41.96 
L 48.739027 -41.96 
L 48.882162 -41.96 
L 49.025297 -41.96 
L 49.168432 -41.96 
L 49.311567 -41.96 
L 49.454702 -41.96 
L 49.597838 -41.96 
L 49.740973 -41.96 
L 49.884108 -41.96 
L 50.027243 -41.96 
L 50.170378 -41.96 
L 50.313513 -41.96 
L 50.456648 -41.96 
L 50.599783 -41.96 
L 50.742919 -41.96 
L 50.886054 -41.96 
L 51.029189 -41.96 
L 51.172324 -41.96 
L 51.315459 -41.96 
L 51.458594 -41.96 
L 51.601729 -41.96 
L 51.744865 -41.96 
L 51.888 -41.96 
L 52.031135 -41.96 
L 52.17427 -41.96 
L 52.317405 -41.96 
L 52.46054 -41.96 
L 52.603675 -41.96 
L 52.74681 -41.96 
L 52.889946 -41.96 
L 53.033081 -41.96 
L 53.176216 -41.96 
L 53.319351 -41.96 
L 53.462486 -41.96 
L 53.605621 -41.96 
L 53.748756 -41.96 
L 53.891891 -41.96 
L 54.035027 -41.96 
L 54.178162 -41.96 
L 54.321297 -41.96 
L 54.464432 -41.96 
L 54.607567 -41.96 
L 54.750702 -41.96 
L 54.893837 -41.96 
L 55.036973 -41.96 
L 55.180108 -41.96 
L 55.323243 -41.96 
L 55.466378 -41.96 
L 55.609513 -41.96 
L 55.752648 -41.96 
L 55.895783 -41.96 
L 56.038918 -41.96 
L 56.182054 -41.96 
L 56.325189 -41.96 
L 56.468324 -41.96 
L 56.611459 -41.96 
L 56.754594 -41.96 
L 56.897729 -41.96 
L 57.040864 -41.96 
L 57.184 -41.96 
L 57.327135 -41.96 
L 57.47027 -41.96 
L 57.613405 -41.96 
L 57.75654 -41.96 
L 57.899675 -41.96 
L 58.04281 -41.96 
L 58.185945 -41.96 
L 58.329081 -41.96 
L 58.472216 -41.96 
L 58.615351 -41.96 
L 58.758486 -41.96 
L 58.901621 -41.96 
L 59.044756 -41.96 
L 59.187891 -41.96 
L 59.331027 -41.96 
L 59.474162 -41.96 
L 59.617297 -41.96 
L 59.760432 -41.96 
L 59.903567 -41.96 
L 60.046702 -41.96 
L 60.189837 -41.96 
L 60.332972 -41.96 
L 60.476108 -41.96 
L 60.619243 -41.96 
L 60.762378 -41.96 
L 60.905513 -41.96 
L 61.048648 -41.96 
L 61.191783 -41.96 
L 61.334918 -41.96 
L 61.478053 -41.96 
L 61.621189 -41.96 
L 61.764324 -41.96 
L 61.907459 -41.96 
L 62.050594 -41.96 
L 62.193729 -41.96 
L 62.336864 -41.96 
L 62.479999 -41.96 
L 62.623135 -41.96 
L 62.76627 -41.96 
L 62.909405 -41.96 
L 63.05254 -41.96 
L 63.195675 -41.96 
L 63.33881 -41.96 
L 63.481945 -41.96 
L 63.62508 -41.96 
L 63.768216 -41.96 
L 63.911351 -41.96 
L 64.054486 -41.96 
L 64.197621 -41.96 
L 64.340756 -41.96 
L 64.483891 -41.96 
L 64.483891 -42.821493 
L 64.483891 -42.821493 
L 64.340756 -42.937553 
L 64.197621 -43.067268 
L 64.054486 -43.211957 
L 63.911351 -43.373026 
L 63.768216 -43.551972 
L 63.62508 -43.750383 
L 63.481945 -43.969934 
L 63.33881 -44.21239 
L 63.195675 -44.4796 
L 63.05254 -44.773496 
L 62.909405 -45.09609 
L 62.76627 -45.449463 
L 62.623135 -45.835763 
L 62.479999 -46.257194 
L 62.336864 -46.716008 
L 62.193729 -47.214494 
L 62.050594 -47.754963 
L 61.907459 -48.339737 
L 61.764324 -48.971134 
L 61.621189 -49.651447 
L 61.478053 -50.382932 
L 61.334918 -51.167784 
L 61.191783 -52.008122 
L 61.048648 -52.905961 
L 60.905513 -53.863197 
L 60.762378 -54.881581 
L 60.619243 -55.962698 
L 60.476108 -57.10794 
L 60.332972 -58.318492 
L 60.189837 -59.595299 
L 60.046702 -60.939055 
L 59.903567 -62.350174 
L 59.760432 -63.828777 
L 59.617297 -65.374672 
L 59.474162 -66.98734 
L 59.331027 -68.665922 
L 59.187891 -70.40921 
L 59.044756 -72.215638 
L 58.901621 -74.08328 
L 58.758486 -76.009849 
L 58.615351 -77.992702 
L 58.472216 -80.028847 
L 58.329081 -82.114953 
L 58.185945 -84.24737 
L 58.04281 -86.422143 
L 57.899675 -88.635042 
L 57.75654 -90.881587 
L 57.613405 -93.15708 
L 57.47027 -95.456641 
L 57.327135 -97.775247 
L 57.184 -100.107773 
L 57.040864 -102.449037 
L 56.897729 -104.793848 
L 56.754594 -107.137049 
L 56.611459 -109.473571 
L 56.468324 -111.798477 
L 56.325189 -114.107016 
L 56.182054 -116.394666 
L 56.038918 -118.657182 
L 55.895783 -120.890637 
L 55.752648 -123.091466 
L 55.609513 -125.256497 
L 55.466378 -127.38299 
L 55.323243 -129.468655 
L 55.180108 -131.511681 
L 55.036973 -133.510747 
L 54.893837 -135.465031 
L 54.750702 -137.374215 
L 54.607567 -139.238477 
L 54.464432 -141.058479 
L 54.321297 -142.835351 
L 54.178162 -144.57066 
L 54.035027 -146.266384 
L 53.891891 -147.924865 
L 53.748756 -149.54877 
L 53.605621 -151.141036 
L 53.462486 -152.704816 
L 53.319351 -154.243418 
L 53.176216 -155.760241 
L 53.033081 -157.258709 
L 52.889946 -158.742204 
L 52.74681 -160.213994 
L 52.603675 -161.677166 
L 52.46054 -163.13456 
L 52.317405 -164.588698 
L 52.17427 -166.041726 
L 52.031135 -167.495354 
L 51.888 -168.950799 
L 51.744865 -170.408742 
L 51.601729 -171.869281 
L 51.458594 -173.3319 
L 51.315459 -174.795437 
L 51.172324 -176.258072 
L 51.029189 -177.717309 
L 50.886054 -179.169979 
L 50.742919 -180.612246 
L 50.599783 -182.039622 
L 50.456648 -183.446991 
L 50.313513 -184.828646 
L 50.170378 -186.178325 
L 50.027243 -187.489266 
L 49.884108 -188.754256 
L 49.740973 -189.965703 
L 49.597838 -191.115697 
L 49.454702 -192.196086 
L 49.311567 -193.198557 
L 49.168432 -194.114711 
L 49.025297 -194.93615 
L 48.882162 -195.654561 
L 48.739027 -196.261799 
L 48.595892 -196.749971 
L 48.452756 -197.111521 
L 48.309621 -197.339304 
L 48.166486 -197.426667 
L 48.023351 -197.367515 
L 47.880216 -197.156381 
L 47.737081 -196.788487 
L 47.593946 -196.259793 
L 47.450811 -195.567045 
L 47.307675 -194.707818 
L 47.16454 -193.68054 
L 47.021405 -192.48452 
L 46.87827 -191.11996 
L 46.735135 -189.58796 
L 46.592 -187.890518 
L 46.448865 -186.030518 
L 46.305729 -184.011711 
L 46.162594 -181.838686 
L 46.019459 -179.516843 
L 45.876324 -177.052343 
L 45.733189 -174.452071 
L 45.590054 -171.723575 
L 45.446919 -168.875012 
L 45.303784 -165.915085 
L 45.160648 -162.852979 
L 45.017513 -159.698289 
L 44.874378 -156.460951 
L 44.731243 -153.15117 
L 44.588108 -149.779346 
L 44.444973 -146.356002 
L 44.301838 -142.891709 
L 44.158703 -139.397021 
L 44.015567 -135.882399 
L 43.872432 -132.358152 
L 43.729297 -128.834369 
L 43.586162 -125.320866 
L 43.443027 -121.827124 
L 43.299892 -118.362244 
L 43.156757 -114.9349 
L 43.013621 -111.5533 
L 42.870486 -108.22515 
L 42.727351 -104.957623 
L 42.584216 -101.757338 
L 42.441081 -98.630341 
L 42.297946 -95.582089 
L 42.154811 -92.617446 
L 42.011676 -89.740675 
L 41.86854 -86.955445 
L 41.725405 -84.264836 
L 41.58227 -81.671349 
L 41.439135 -79.176921 
L 41.296 -76.782943 
L 41.152865 -74.490285 
L 41.00973 -72.299314 
L 40.866594 -70.209929 
L 40.723459 -68.221584 
L 40.580324 -66.33332 
L 40.437189 -64.543799 
L 40.294054 -62.851336 
L 40.150919 -61.25393 
L 40.007784 -59.749301 
L 39.864649 -58.334921 
L 39.721513 -57.008048 
L 39.578378 -55.765759 
L 39.435243 -54.604978 
L 39.292108 -53.52251 
L 39.148973 -52.515069 
L 39.005838 -51.5793 
L 38.862703 -50.711813 
L 38.719568 -49.9092 
L 38.576432 -49.16806 
L 38.433297 -48.485016 
L 38.290162 -47.856738 
L 38.147027 -47.279955 
L 38.003892 -46.751469 
L 37.860757 -46.268171 
L 37.717622 -45.827047 
L 37.574486 -45.425192 
L 37.431351 -45.059811 
L 37.288216 -44.728231 
L 37.145081 -44.427899 
L 37.001946 -44.15639 
L 36.858811 -43.911405 
L 36.715676 -43.690775 
L 36.572541 -43.492455 
L 36.429405 -43.314528 
L 36.28627 -43.1552 
L 36.143135 -43.012797 
L 36 -42.885761 
z
" style="stroke: #9467bd"/>
    </defs>
    <g clip-path="url(#p4f8911416c)">
     <use xlink:href="#mb023bf964b" x="0" y="216" style="fill: #9467bd; fill-opacity: 0.25; stroke: #9467bd"/>
    </g>
   </g>
   <g id="PolyCollection_2">
    <defs>
     <path id="m8c2b07a85b" d="M 217.7959 -42.300449 
L 217.7959 -41.96 
L 218.173004 -41.96 
L 218.550108 -41.96 
L 218.927212 -41.96 
L 219.304315 -41.96 
L 219.681419 -41.96 
L 220.058523 -41.96 
L 220.435627 -41.96 
L 220.812731 -41.96 
L 221.189835 -41.96 
L 221.566939 -41.96 
L 221.944043 -41.96 
L 222.321146 -41.96 
L 222.69825 -41.96 
L 223.075354 -41.96 
L 223.452458 -41.96 
L 223.829562 -41.96 
L 224.206666 -41.96 
L 224.58377 -41.96 
L 224.960874 -41.96 
L 225.337977 -41.96 
L 225.715081 -41.96 
L 226.092185 -41.96 
L 226.469289 -41.96 
L 226.846393 -41.96 
L 227.223497 -41.96 
L 227.600601 -41.96 
L 227.977704 -41.96 
L 228.354808 -41.96 
L 228.731912 -41.96 
L 229.109016 -41.96 
L 229.48612 -41.96 
L 229.863224 -41.96 
L 230.240328 -41.96 
L 230.617432 -41.96 
L 230.994535 -41.96 
L 231.371639 -41.96 
L 231.748743 -41.96 
L 232.125847 -41.96 
L 232.502951 -41.96 
L 232.880055 -41.96 
L 233.257159 -41.96 
L 233.634263 -41.96 
L 234.011366 -41.96 
L 234.38847 -41.96 
L 234.765574 -41.96 
L 235.142678 -41.96 
L 235.519782 -41.96 
L 235.896886 -41.96 
L 236.27399 -41.96 
L 236.651093 -41.96 
L 237.028197 -41.96 
L 237.405301 -41.96 
L 237.782405 -41.96 
L 238.159509 -41.96 
L 238.536613 -41.96 
L 238.913717 -41.96 
L 239.290821 -41.96 
L 239.667924 -41.96 
L 240.045028 -41.96 
L 240.422132 -41.96 
L 240.799236 -41.96 
L 241.17634 -41.96 
L 241.553444 -41.96 
L 241.930548 -41.96 
L 242.307652 -41.96 
L 242.684755 -41.96 
L 243.061859 -41.96 
L 243.438963 -41.96 
L 243.816067 -41.96 
L 244.193171 -41.96 
L 244.570275 -41.96 
L 244.947379 -41.96 
L 245.324482 -41.96 
L 245.701586 -41.96 
L 246.07869 -41.96 
L 246.455794 -41.96 
L 246.832898 -41.96 
L 247.210002 -41.96 
L 247.587106 -41.96 
L 247.96421 -41.96 
L 248.341313 -41.96 
L 248.718417 -41.96 
L 249.095521 -41.96 
L 249.472625 -41.96 
L 249.849729 -41.96 
L 250.226833 -41.96 
L 250.603937 -41.96 
L 250.981041 -41.96 
L 251.358144 -41.96 
L 251.735248 -41.96 
L 252.112352 -41.96 
L 252.489456 -41.96 
L 252.86656 -41.96 
L 253.243664 -41.96 
L 253.620768 -41.96 
L 253.997872 -41.96 
L 254.374975 -41.96 
L 254.752079 -41.96 
L 255.129183 -41.96 
L 255.506287 -41.96 
L 255.883391 -41.96 
L 256.260495 -41.96 
L 256.637599 -41.96 
L 257.014702 -41.96 
L 257.391806 -41.96 
L 257.76891 -41.96 
L 258.146014 -41.96 
L 258.523118 -41.96 
L 258.900222 -41.96 
L 259.277326 -41.96 
L 259.65443 -41.96 
L 260.031533 -41.96 
L 260.408637 -41.96 
L 260.785741 -41.96 
L 261.162845 -41.96 
L 261.539949 -41.96 
L 261.917053 -41.96 
L 262.294157 -41.96 
L 262.671261 -41.96 
L 263.048364 -41.96 
L 263.425468 -41.96 
L 263.802572 -41.96 
L 264.179676 -41.96 
L 264.55678 -41.96 
L 264.933884 -41.96 
L 265.310988 -41.96 
L 265.688091 -41.96 
L 266.065195 -41.96 
L 266.442299 -41.96 
L 266.819403 -41.96 
L 267.196507 -41.96 
L 267.573611 -41.96 
L 267.950715 -41.96 
L 268.327819 -41.96 
L 268.704922 -41.96 
L 269.082026 -41.96 
L 269.45913 -41.96 
L 269.836234 -41.96 
L 270.213338 -41.96 
L 270.590442 -41.96 
L 270.967546 -41.96 
L 271.34465 -41.96 
L 271.721753 -41.96 
L 272.098857 -41.96 
L 272.475961 -41.96 
L 272.853065 -41.96 
L 273.230169 -41.96 
L 273.607273 -41.96 
L 273.984377 -41.96 
L 274.36148 -41.96 
L 274.738584 -41.96 
L 275.115688 -41.96 
L 275.492792 -41.96 
L 275.869896 -41.96 
L 276.247 -41.96 
L 276.624104 -41.96 
L 277.001208 -41.96 
L 277.378311 -41.96 
L 277.755415 -41.96 
L 278.132519 -41.96 
L 278.509623 -41.96 
L 278.886727 -41.96 
L 279.263831 -41.96 
L 279.640935 -41.96 
L 280.018039 -41.96 
L 280.395142 -41.96 
L 280.772246 -41.96 
L 281.14935 -41.96 
L 281.526454 -41.96 
L 281.903558 -41.96 
L 282.280662 -41.96 
L 282.657766 -41.96 
L 283.034869 -41.96 
L 283.411973 -41.96 
L 283.789077 -41.96 
L 284.166181 -41.96 
L 284.543285 -41.96 
L 284.920389 -41.96 
L 285.297493 -41.96 
L 285.674597 -41.96 
L 286.0517 -41.96 
L 286.428804 -41.96 
L 286.805908 -41.96 
L 287.183012 -41.96 
L 287.560116 -41.96 
L 287.93722 -41.96 
L 288.314324 -41.96 
L 288.691428 -41.96 
L 289.068531 -41.96 
L 289.445635 -41.96 
L 289.822739 -41.96 
L 290.199843 -41.96 
L 290.576947 -41.96 
L 290.954051 -41.96 
L 291.331155 -41.96 
L 291.708259 -41.96 
L 292.085362 -41.96 
L 292.462466 -41.96 
L 292.83957 -41.96 
L 292.83957 -42.288752 
L 292.83957 -42.288752 
L 292.462466 -42.333256 
L 292.085362 -42.383025 
L 291.708259 -42.43857 
L 291.331155 -42.500437 
L 290.954051 -42.569209 
L 290.576947 -42.645504 
L 290.199843 -42.729973 
L 289.822739 -42.823305 
L 289.445635 -42.926221 
L 289.068531 -43.039475 
L 288.691428 -43.163855 
L 288.314324 -43.300175 
L 287.93722 -43.449277 
L 287.560116 -43.612026 
L 287.183012 -43.789307 
L 286.805908 -43.982022 
L 286.428804 -44.191082 
L 286.0517 -44.417405 
L 285.674597 -44.661911 
L 285.297493 -44.92551 
L 284.920389 -45.209101 
L 284.543285 -45.513564 
L 284.166181 -45.83975 
L 283.789077 -46.188474 
L 283.411973 -46.560506 
L 283.034869 -46.956566 
L 282.657766 -47.377311 
L 282.280662 -47.823328 
L 281.903558 -48.295125 
L 281.526454 -48.793125 
L 281.14935 -49.317653 
L 280.772246 -49.868932 
L 280.395142 -50.447074 
L 280.018039 -51.052075 
L 279.640935 -51.683807 
L 279.263831 -52.342012 
L 278.886727 -53.026303 
L 278.509623 -53.736155 
L 278.132519 -54.470907 
L 277.755415 -55.229762 
L 277.378311 -56.011782 
L 277.001208 -56.815899 
L 276.624104 -57.640913 
L 276.247 -58.485497 
L 275.869896 -59.348209 
L 275.492792 -60.227492 
L 275.115688 -61.121693 
L 274.738584 -62.029067 
L 274.36148 -62.947791 
L 273.984377 -63.875981 
L 273.607273 -64.8117 
L 273.230169 -65.752981 
L 272.853065 -66.697836 
L 272.475961 -67.644279 
L 272.098857 -68.590337 
L 271.721753 -69.534073 
L 271.34465 -70.473596 
L 270.967546 -71.407083 
L 270.590442 -72.332796 
L 270.213338 -73.249089 
L 269.836234 -74.15443 
L 269.45913 -75.047411 
L 269.082026 -75.926758 
L 268.704922 -76.791341 
L 268.327819 -77.640182 
L 267.950715 -78.47246 
L 267.573611 -79.287517 
L 267.196507 -80.084853 
L 266.819403 -80.864133 
L 266.442299 -81.625175 
L 266.065195 -82.367954 
L 265.688091 -83.092585 
L 265.310988 -83.799318 
L 264.933884 -84.488526 
L 264.55678 -85.16069 
L 264.179676 -85.816384 
L 263.802572 -86.456255 
L 263.425468 -87.081012 
L 263.048364 -87.691398 
L 262.671261 -88.288176 
L 262.294157 -88.872108 
L 261.917053 -89.443932 
L 261.539949 -90.004344 
L 261.162845 -90.553978 
L 260.785741 -91.093384 
L 260.408637 -91.623017 
L 260.031533 -92.143211 
L 259.65443 -92.654172 
L 259.277326 -93.15596 
L 258.900222 -93.64848 
L 258.523118 -94.131472 
L 258.146014 -94.604503 
L 257.76891 -95.066966 
L 257.391806 -95.518074 
L 257.014702 -95.956862 
L 256.637599 -96.382193 
L 256.260495 -96.792759 
L 255.883391 -97.187092 
L 255.506287 -97.563574 
L 255.129183 -97.920448 
L 254.752079 -98.255833 
L 254.374975 -98.567745 
L 253.997872 -98.854107 
L 253.620768 -99.112775 
L 253.243664 -99.341557 
L 252.86656 -99.538234 
L 252.489456 -99.700583 
L 252.112352 -99.8264 
L 251.735248 -99.913523 
L 251.358144 -99.959856 
L 250.981041 -99.963388 
L 250.603937 -99.92222 
L 250.226833 -99.834584 
L 249.849729 -99.698862 
L 249.472625 -99.513607 
L 249.095521 -99.277558 
L 248.718417 -98.989659 
L 248.341313 -98.649069 
L 247.96421 -98.255177 
L 247.587106 -97.807613 
L 247.210002 -97.30625 
L 246.832898 -96.751218 
L 246.455794 -96.1429 
L 246.07869 -95.481937 
L 245.701586 -94.769228 
L 245.324482 -94.005922 
L 244.947379 -93.193419 
L 244.570275 -92.333355 
L 244.193171 -91.427601 
L 243.816067 -90.478245 
L 243.438963 -89.487581 
L 243.061859 -88.458095 
L 242.684755 -87.392447 
L 242.307652 -86.293459 
L 241.930548 -85.164087 
L 241.553444 -84.00741 
L 241.17634 -82.826605 
L 240.799236 -81.62493 
L 240.422132 -80.4057 
L 240.045028 -79.172265 
L 239.667924 -77.927994 
L 239.290821 -76.676247 
L 238.913717 -75.420361 
L 238.536613 -74.163627 
L 238.159509 -72.909272 
L 237.782405 -71.660438 
L 237.405301 -70.420171 
L 237.028197 -69.191399 
L 236.651093 -67.976921 
L 236.27399 -66.779395 
L 235.896886 -65.601321 
L 235.519782 -64.445038 
L 235.142678 -63.312709 
L 234.765574 -62.206319 
L 234.38847 -61.127668 
L 234.011366 -60.078367 
L 233.634263 -59.059836 
L 233.257159 -58.073304 
L 232.880055 -57.11981 
L 232.502951 -56.200204 
L 232.125847 -55.315154 
L 231.748743 -54.465146 
L 231.371639 -53.650495 
L 230.994535 -52.871349 
L 230.617432 -52.127698 
L 230.240328 -51.419381 
L 229.863224 -50.746099 
L 229.48612 -50.107421 
L 229.109016 -49.502798 
L 228.731912 -48.93157 
L 228.354808 -48.392979 
L 227.977704 -47.88618 
L 227.600601 -47.410251 
L 227.223497 -46.964203 
L 226.846393 -46.546991 
L 226.469289 -46.157528 
L 226.092185 -45.794686 
L 225.715081 -45.457316 
L 225.337977 -45.144246 
L 224.960874 -44.8543 
L 224.58377 -44.586295 
L 224.206666 -44.339059 
L 223.829562 -44.111428 
L 223.452458 -43.902257 
L 223.075354 -43.710424 
L 222.69825 -43.534835 
L 222.321146 -43.374428 
L 221.944043 -43.228174 
L 221.566939 -43.095083 
L 221.189835 -42.974206 
L 220.812731 -42.864635 
L 220.435627 -42.765504 
L 220.058523 -42.675992 
L 219.681419 -42.595321 
L 219.304315 -42.522758 
L 218.927212 -42.457614 
L 218.550108 -42.399244 
L 218.173004 -42.347043 
L 217.7959 -42.300449 
z
" style="stroke: #d62728"/>
    </defs>
    <g clip-path="url(#p4f8911416c)">
     <use xlink:href="#m8c2b07a85b" x="0" y="216" style="fill: #d62728; fill-opacity: 0.25; stroke: #d62728"/>
    </g>
   </g>
   <g id="PolyCollection_3">
    <defs>
     <path id="md2a529810f" d="M 291.212459 -42.119626 
L 291.212459 -41.96 
L 292.462647 -41.96 
L 293.712836 -41.96 
L 294.963024 -41.96 
L 296.213213 -41.96 
L 297.463402 -41.96 
L 298.71359 -41.96 
L 299.963779 -41.96 
L 301.213968 -41.96 
L 302.464156 -41.96 
L 303.714345 -41.96 
L 304.964534 -41.96 
L 306.214722 -41.96 
L 307.464911 -41.96 
L 308.7151 -41.96 
L 309.965288 -41.96 
L 311.215477 -41.96 
L 312.465666 -41.96 
L 313.715854 -41.96 
L 314.966043 -41.96 
L 316.216232 -41.96 
L 317.46642 -41.96 
L 318.716609 -41.96 
L 319.966797 -41.96 
L 321.216986 -41.96 
L 322.467175 -41.96 
L 323.717363 -41.96 
L 324.967552 -41.96 
L 326.217741 -41.96 
L 327.467929 -41.96 
L 328.718118 -41.96 
L 329.968307 -41.96 
L 331.218495 -41.96 
L 332.468684 -41.96 
L 333.718873 -41.96 
L 334.969061 -41.96 
L 336.21925 -41.96 
L 337.469439 -41.96 
L 338.719627 -41.96 
L 339.969816 -41.96 
L 341.220005 -41.96 
L 342.470193 -41.96 
L 343.720382 -41.96 
L 344.97057 -41.96 
L 346.220759 -41.96 
L 347.470948 -41.96 
L 348.721136 -41.96 
L 349.971325 -41.96 
L 351.221514 -41.96 
L 352.471702 -41.96 
L 353.721891 -41.96 
L 354.97208 -41.96 
L 356.222268 -41.96 
L 357.472457 -41.96 
L 358.722646 -41.96 
L 359.972834 -41.96 
L 361.223023 -41.96 
L 362.473212 -41.96 
L 363.7234 -41.96 
L 364.973589 -41.96 
L 366.223778 -41.96 
L 367.473966 -41.96 
L 368.724155 -41.96 
L 369.974344 -41.96 
L 371.224532 -41.96 
L 372.474721 -41.96 
L 373.724909 -41.96 
L 374.975098 -41.96 
L 376.225287 -41.96 
L 377.475475 -41.96 
L 378.725664 -41.96 
L 379.975853 -41.96 
L 381.226041 -41.96 
L 382.47623 -41.96 
L 383.726419 -41.96 
L 384.976607 -41.96 
L 386.226796 -41.96 
L 387.476985 -41.96 
L 388.727173 -41.96 
L 389.977362 -41.96 
L 391.227551 -41.96 
L 392.477739 -41.96 
L 393.727928 -41.96 
L 394.978117 -41.96 
L 396.228305 -41.96 
L 397.478494 -41.96 
L 398.728682 -41.96 
L 399.978871 -41.96 
L 401.22906 -41.96 
L 402.479248 -41.96 
L 403.729437 -41.96 
L 404.979626 -41.96 
L 406.229814 -41.96 
L 407.480003 -41.96 
L 408.730192 -41.96 
L 409.98038 -41.96 
L 411.230569 -41.96 
L 412.480758 -41.96 
L 413.730946 -41.96 
L 414.981135 -41.96 
L 416.231324 -41.96 
L 417.481512 -41.96 
L 418.731701 -41.96 
L 419.98189 -41.96 
L 421.232078 -41.96 
L 422.482267 -41.96 
L 423.732455 -41.96 
L 424.982644 -41.96 
L 426.232833 -41.96 
L 427.483021 -41.96 
L 428.73321 -41.96 
L 429.983399 -41.96 
L 431.233587 -41.96 
L 432.483776 -41.96 
L 433.733965 -41.96 
L 434.984153 -41.96 
L 436.234342 -41.96 
L 437.484531 -41.96 
L 438.734719 -41.96 
L 439.984908 -41.96 
L 441.235097 -41.96 
L 442.485285 -41.96 
L 443.735474 -41.96 
L 444.985663 -41.96 
L 446.235851 -41.96 
L 447.48604 -41.96 
L 448.736229 -41.96 
L 449.986417 -41.96 
L 451.236606 -41.96 
L 452.486794 -41.96 
L 453.736983 -41.96 
L 454.987172 -41.96 
L 456.23736 -41.96 
L 457.487549 -41.96 
L 458.737738 -41.96 
L 459.987926 -41.96 
L 461.238115 -41.96 
L 462.488304 -41.96 
L 463.738492 -41.96 
L 464.988681 -41.96 
L 466.23887 -41.96 
L 467.489058 -41.96 
L 468.739247 -41.96 
L 469.989436 -41.96 
L 471.239624 -41.96 
L 472.489813 -41.96 
L 473.740002 -41.96 
L 474.99019 -41.96 
L 476.240379 -41.96 
L 477.490567 -41.96 
L 478.740756 -41.96 
L 479.990945 -41.96 
L 481.241133 -41.96 
L 482.491322 -41.96 
L 483.741511 -41.96 
L 484.991699 -41.96 
L 486.241888 -41.96 
L 487.492077 -41.96 
L 488.742265 -41.96 
L 489.992454 -41.96 
L 491.242643 -41.96 
L 492.492831 -41.96 
L 493.74302 -41.96 
L 494.993209 -41.96 
L 496.243397 -41.96 
L 497.493586 -41.96 
L 498.743775 -41.96 
L 499.993963 -41.96 
L 501.244152 -41.96 
L 502.49434 -41.96 
L 503.744529 -41.96 
L 504.994718 -41.96 
L 506.244906 -41.96 
L 507.495095 -41.96 
L 508.745284 -41.96 
L 509.995472 -41.96 
L 511.245661 -41.96 
L 512.49585 -41.96 
L 513.746038 -41.96 
L 514.996227 -41.96 
L 516.246416 -41.96 
L 517.496604 -41.96 
L 518.746793 -41.96 
L 519.996982 -41.96 
L 521.24717 -41.96 
L 522.497359 -41.96 
L 523.747548 -41.96 
L 524.997736 -41.96 
L 526.247925 -41.96 
L 527.498113 -41.96 
L 528.748302 -41.96 
L 529.998491 -41.96 
L 531.248679 -41.96 
L 532.498868 -41.96 
L 533.749057 -41.96 
L 534.999245 -41.96 
L 536.249434 -41.96 
L 537.499623 -41.96 
L 538.749811 -41.96 
L 540 -41.96 
L 540 -42.056008 
L 540 -42.056008 
L 538.749811 -42.068587 
L 537.499623 -42.082605 
L 536.249434 -42.098197 
L 534.999245 -42.115507 
L 533.749057 -42.134686 
L 532.498868 -42.155898 
L 531.248679 -42.179311 
L 529.998491 -42.205105 
L 528.748302 -42.233468 
L 527.498113 -42.264593 
L 526.247925 -42.298685 
L 524.997736 -42.335952 
L 523.747548 -42.376612 
L 522.497359 -42.420885 
L 521.24717 -42.468998 
L 519.996982 -42.52118 
L 518.746793 -42.577663 
L 517.496604 -42.63868 
L 516.246416 -42.704462 
L 514.996227 -42.775237 
L 513.746038 -42.851232 
L 512.49585 -42.932665 
L 511.245661 -43.019747 
L 509.995472 -43.112678 
L 508.745284 -43.211647 
L 507.495095 -43.316825 
L 506.244906 -43.428371 
L 504.994718 -43.546419 
L 503.744529 -43.671086 
L 502.49434 -43.802462 
L 501.244152 -43.940611 
L 499.993963 -44.085569 
L 498.743775 -44.237343 
L 497.493586 -44.395904 
L 496.243397 -44.561193 
L 494.993209 -44.733111 
L 493.74302 -44.911527 
L 492.492831 -45.096268 
L 491.242643 -45.287125 
L 489.992454 -45.483851 
L 488.742265 -45.686158 
L 487.492077 -45.893723 
L 486.241888 -46.106185 
L 484.991699 -46.323147 
L 483.741511 -46.544178 
L 482.491322 -46.768818 
L 481.241133 -46.996575 
L 479.990945 -47.226936 
L 478.740756 -47.459363 
L 477.490567 -47.693301 
L 476.240379 -47.928183 
L 474.99019 -48.163433 
L 473.740002 -48.398471 
L 472.489813 -48.63272 
L 471.239624 -48.865611 
L 469.989436 -49.096588 
L 468.739247 -49.325115 
L 467.489058 -49.55068 
L 466.23887 -49.772803 
L 464.988681 -49.99104 
L 463.738492 -50.20499 
L 462.488304 -50.414299 
L 461.238115 -50.618663 
L 459.987926 -50.817838 
L 458.737738 -51.011636 
L 457.487549 -51.199936 
L 456.23736 -51.382682 
L 454.987172 -51.559884 
L 453.736983 -51.731622 
L 452.486794 -51.898047 
L 451.236606 -52.059375 
L 449.986417 -52.215891 
L 448.736229 -52.367944 
L 447.48604 -52.515945 
L 446.235851 -52.66036 
L 444.985663 -52.801708 
L 443.735474 -52.940555 
L 442.485285 -53.077506 
L 441.235097 -53.213196 
L 439.984908 -53.348285 
L 438.734719 -53.483448 
L 437.484531 -53.619367 
L 436.234342 -53.756718 
L 434.984153 -53.896165 
L 433.733965 -54.038347 
L 432.483776 -54.183872 
L 431.233587 -54.333302 
L 429.983399 -54.487147 
L 428.73321 -54.645853 
L 427.483021 -54.809796 
L 426.232833 -54.97927 
L 424.982644 -55.154485 
L 423.732455 -55.335552 
L 422.482267 -55.522486 
L 421.232078 -55.715195 
L 419.98189 -55.913477 
L 418.731701 -56.117023 
L 417.481512 -56.325409 
L 416.231324 -56.538097 
L 414.981135 -56.754442 
L 413.730946 -56.973689 
L 412.480758 -57.194978 
L 411.230569 -57.41735 
L 409.98038 -57.639756 
L 408.730192 -57.86106 
L 407.480003 -58.080051 
L 406.229814 -58.295453 
L 404.979626 -58.505934 
L 403.729437 -58.710118 
L 402.479248 -58.906599 
L 401.22906 -59.093953 
L 399.978871 -59.27075 
L 398.728682 -59.435568 
L 397.478494 -59.587008 
L 396.228305 -59.723707 
L 394.978117 -59.844349 
L 393.727928 -59.947682 
L 392.477739 -60.032525 
L 391.227551 -60.097785 
L 389.977362 -60.142464 
L 388.727173 -60.165673 
L 387.476985 -60.166635 
L 386.226796 -60.1447 
L 384.976607 -60.099343 
L 383.726419 -60.030178 
L 382.47623 -59.936957 
L 381.226041 -59.819572 
L 379.975853 -59.678059 
L 378.725664 -59.512595 
L 377.475475 -59.323499 
L 376.225287 -59.111227 
L 374.975098 -58.876369 
L 373.724909 -58.619642 
L 372.474721 -58.341887 
L 371.224532 -58.044055 
L 369.974344 -57.727206 
L 368.724155 -57.392494 
L 367.473966 -57.041159 
L 366.223778 -56.674517 
L 364.973589 -56.293946 
L 363.7234 -55.900879 
L 362.473212 -55.496788 
L 361.223023 -55.083175 
L 359.972834 -54.66156 
L 358.722646 -54.233468 
L 357.472457 -53.80042 
L 356.222268 -53.363921 
L 354.97208 -52.925449 
L 353.721891 -52.486448 
L 352.471702 -52.048317 
L 351.221514 -51.6124 
L 349.971325 -51.179985 
L 348.721136 -50.75229 
L 347.470948 -50.330463 
L 346.220759 -49.915572 
L 344.97057 -49.508607 
L 343.720382 -49.110471 
L 342.470193 -48.721983 
L 341.220005 -48.343874 
L 339.969816 -47.976785 
L 338.719627 -47.621272 
L 337.469439 -47.277804 
L 336.21925 -46.946763 
L 334.969061 -46.628451 
L 333.718873 -46.323088 
L 332.468684 -46.03082 
L 331.218495 -45.751718 
L 329.968307 -45.485788 
L 328.718118 -45.232969 
L 327.467929 -44.993143 
L 326.217741 -44.766138 
L 324.967552 -44.55173 
L 323.717363 -44.349654 
L 322.467175 -44.159604 
L 321.216986 -43.981241 
L 319.966797 -43.814196 
L 318.716609 -43.658076 
L 317.46642 -43.512465 
L 316.216232 -43.376936 
L 314.966043 -43.251047 
L 313.715854 -43.134348 
L 312.465666 -43.026387 
L 311.215477 -42.926709 
L 309.965288 -42.834862 
L 308.7151 -42.750399 
L 307.464911 -42.672879 
L 306.214722 -42.601871 
L 304.964534 -42.536956 
L 303.714345 -42.477726 
L 302.464156 -42.423788 
L 301.213968 -42.374765 
L 299.963779 -42.330294 
L 298.71359 -42.29003 
L 297.463402 -42.253645 
L 296.213213 -42.220828 
L 294.963024 -42.191285 
L 293.712836 -42.164741 
L 292.462647 -42.140935 
L 291.212459 -42.119626 
z
" style="stroke: #2ca02c"/>
    </defs>
    <g clip-path="url(#p4f8911416c)">
     <use xlink:href="#md2a529810f" x="0" y="216" style="fill: #2ca02c; fill-opacity: 0.25; stroke: #2ca02c"/>
    </g>
   </g>
   <g id="PolyCollection_4">
    <defs>
     <path id="m85a8c9dc60" d="M 84.185019 -42.262758 
L 84.185019 -41.96 
L 84.590673 -41.96 
L 84.996327 -41.96 
L 85.40198 -41.96 
L 85.807634 -41.96 
L 86.213288 -41.96 
L 86.618942 -41.96 
L 87.024596 -41.96 
L 87.430249 -41.96 
L 87.835903 -41.96 
L 88.241557 -41.96 
L 88.647211 -41.96 
L 89.052865 -41.96 
L 89.458518 -41.96 
L 89.864172 -41.96 
L 90.269826 -41.96 
L 90.67548 -41.96 
L 91.081134 -41.96 
L 91.486787 -41.96 
L 91.892441 -41.96 
L 92.298095 -41.96 
L 92.703749 -41.96 
L 93.109403 -41.96 
L 93.515056 -41.96 
L 93.92071 -41.96 
L 94.326364 -41.96 
L 94.732018 -41.96 
L 95.137672 -41.96 
L 95.543325 -41.96 
L 95.948979 -41.96 
L 96.354633 -41.96 
L 96.760287 -41.96 
L 97.165941 -41.96 
L 97.571594 -41.96 
L 97.977248 -41.96 
L 98.382902 -41.96 
L 98.788556 -41.96 
L 99.19421 -41.96 
L 99.599863 -41.96 
L 100.005517 -41.96 
L 100.411171 -41.96 
L 100.816825 -41.96 
L 101.222479 -41.96 
L 101.628132 -41.96 
L 102.033786 -41.96 
L 102.43944 -41.96 
L 102.845094 -41.96 
L 103.250748 -41.96 
L 103.656401 -41.96 
L 104.062055 -41.96 
L 104.467709 -41.96 
L 104.873363 -41.96 
L 105.279017 -41.96 
L 105.68467 -41.96 
L 106.090324 -41.96 
L 106.495978 -41.96 
L 106.901632 -41.96 
L 107.307286 -41.96 
L 107.712939 -41.96 
L 108.118593 -41.96 
L 108.524247 -41.96 
L 108.929901 -41.96 
L 109.335555 -41.96 
L 109.741208 -41.96 
L 110.146862 -41.96 
L 110.552516 -41.96 
L 110.95817 -41.96 
L 111.363824 -41.96 
L 111.769477 -41.96 
L 112.175131 -41.96 
L 112.580785 -41.96 
L 112.986439 -41.96 
L 113.392093 -41.96 
L 113.797746 -41.96 
L 114.2034 -41.96 
L 114.609054 -41.96 
L 115.014708 -41.96 
L 115.420362 -41.96 
L 115.826015 -41.96 
L 116.231669 -41.96 
L 116.637323 -41.96 
L 117.042977 -41.96 
L 117.448631 -41.96 
L 117.854284 -41.96 
L 118.259938 -41.96 
L 118.665592 -41.96 
L 119.071246 -41.96 
L 119.4769 -41.96 
L 119.882553 -41.96 
L 120.288207 -41.96 
L 120.693861 -41.96 
L 121.099515 -41.96 
L 121.505169 -41.96 
L 121.910822 -41.96 
L 122.316476 -41.96 
L 122.72213 -41.96 
L 123.127784 -41.96 
L 123.533438 -41.96 
L 123.939091 -41.96 
L 124.344745 -41.96 
L 124.750399 -41.96 
L 125.156053 -41.96 
L 125.561707 -41.96 
L 125.96736 -41.96 
L 126.373014 -41.96 
L 126.778668 -41.96 
L 127.184322 -41.96 
L 127.589976 -41.96 
L 127.995629 -41.96 
L 128.401283 -41.96 
L 128.806937 -41.96 
L 129.212591 -41.96 
L 129.618245 -41.96 
L 130.023898 -41.96 
L 130.429552 -41.96 
L 130.835206 -41.96 
L 131.24086 -41.96 
L 131.646514 -41.96 
L 132.052167 -41.96 
L 132.457821 -41.96 
L 132.863475 -41.96 
L 133.269129 -41.96 
L 133.674783 -41.96 
L 134.080436 -41.96 
L 134.48609 -41.96 
L 134.891744 -41.96 
L 135.297398 -41.96 
L 135.703052 -41.96 
L 136.108705 -41.96 
L 136.514359 -41.96 
L 136.920013 -41.96 
L 137.325667 -41.96 
L 137.731321 -41.96 
L 138.136974 -41.96 
L 138.542628 -41.96 
L 138.948282 -41.96 
L 139.353936 -41.96 
L 139.75959 -41.96 
L 140.165243 -41.96 
L 140.570897 -41.96 
L 140.976551 -41.96 
L 141.382205 -41.96 
L 141.787859 -41.96 
L 142.193512 -41.96 
L 142.599166 -41.96 
L 143.00482 -41.96 
L 143.410474 -41.96 
L 143.816128 -41.96 
L 144.221781 -41.96 
L 144.627435 -41.96 
L 145.033089 -41.96 
L 145.438743 -41.96 
L 145.844397 -41.96 
L 146.25005 -41.96 
L 146.655704 -41.96 
L 147.061358 -41.96 
L 147.467012 -41.96 
L 147.872666 -41.96 
L 148.278319 -41.96 
L 148.683973 -41.96 
L 149.089627 -41.96 
L 149.495281 -41.96 
L 149.900935 -41.96 
L 150.306588 -41.96 
L 150.712242 -41.96 
L 151.117896 -41.96 
L 151.52355 -41.96 
L 151.929204 -41.96 
L 152.334857 -41.96 
L 152.740511 -41.96 
L 153.146165 -41.96 
L 153.551819 -41.96 
L 153.957473 -41.96 
L 154.363126 -41.96 
L 154.76878 -41.96 
L 155.174434 -41.96 
L 155.580088 -41.96 
L 155.985742 -41.96 
L 156.391395 -41.96 
L 156.797049 -41.96 
L 157.202703 -41.96 
L 157.608357 -41.96 
L 158.014011 -41.96 
L 158.419664 -41.96 
L 158.825318 -41.96 
L 159.230972 -41.96 
L 159.636626 -41.96 
L 160.04228 -41.96 
L 160.447933 -41.96 
L 160.853587 -41.96 
L 161.259241 -41.96 
L 161.664895 -41.96 
L 162.070549 -41.96 
L 162.476202 -41.96 
L 162.881856 -41.96 
L 163.28751 -41.96 
L 163.693164 -41.96 
L 164.098817 -41.96 
L 164.504471 -41.96 
L 164.910125 -41.96 
L 164.910125 -42.298285 
L 164.910125 -42.298285 
L 164.504471 -42.344765 
L 164.098817 -42.396881 
L 163.693164 -42.455209 
L 163.28751 -42.520365 
L 162.881856 -42.593012 
L 162.476202 -42.673859 
L 162.070549 -42.763659 
L 161.664895 -42.863217 
L 161.259241 -42.973383 
L 160.853587 -43.095055 
L 160.447933 -43.229179 
L 160.04228 -43.376747 
L 159.636626 -43.538796 
L 159.230972 -43.716406 
L 158.825318 -43.910697 
L 158.419664 -44.122824 
L 158.014011 -44.35398 
L 157.608357 -44.60538 
L 157.202703 -44.878267 
L 156.797049 -45.173898 
L 156.391395 -45.493542 
L 155.985742 -45.838471 
L 155.580088 -46.209949 
L 155.174434 -46.609228 
L 154.76878 -47.037533 
L 154.363126 -47.496055 
L 153.957473 -47.985942 
L 153.551819 -48.508281 
L 153.146165 -49.064091 
L 152.740511 -49.654308 
L 152.334857 -50.279776 
L 151.929204 -50.941228 
L 151.52355 -51.639279 
L 151.117896 -52.374408 
L 150.712242 -53.146949 
L 150.306588 -53.957076 
L 149.900935 -54.804793 
L 149.495281 -55.689918 
L 149.089627 -56.612081 
L 148.683973 -57.570703 
L 148.278319 -58.564999 
L 147.872666 -59.593961 
L 147.467012 -60.656358 
L 147.061358 -61.750731 
L 146.655704 -62.875388 
L 146.25005 -64.028404 
L 145.844397 -65.207626 
L 145.438743 -66.41067 
L 145.033089 -67.634932 
L 144.627435 -68.877592 
L 144.221781 -70.135625 
L 143.816128 -71.405815 
L 143.410474 -72.684765 
L 143.00482 -73.968918 
L 142.599166 -75.254571 
L 142.193512 -76.5379 
L 141.787859 -77.814979 
L 141.382205 -79.081804 
L 140.976551 -80.334322 
L 140.570897 -81.568454 
L 140.165243 -82.780123 
L 139.75959 -83.965288 
L 139.353936 -85.119965 
L 138.948282 -86.240264 
L 138.542628 -87.322414 
L 138.136974 -88.362792 
L 137.731321 -89.357956 
L 137.325667 -90.304667 
L 136.920013 -91.199919 
L 136.514359 -92.04096 
L 136.108705 -92.825318 
L 135.703052 -93.55082 
L 135.297398 -94.215608 
L 134.891744 -94.818158 
L 134.48609 -95.357289 
L 134.080436 -95.832175 
L 133.674783 -96.242347 
L 133.269129 -96.587698 
L 132.863475 -96.868485 
L 132.457821 -97.085317 
L 132.052167 -97.239155 
L 131.646514 -97.331294 
L 131.24086 -97.363356 
L 130.835206 -97.337264 
L 130.429552 -97.255226 
L 130.023898 -97.119712 
L 129.618245 -96.933424 
L 129.212591 -96.699271 
L 128.806937 -96.420338 
L 128.401283 -96.099852 
L 127.995629 -95.741152 
L 127.589976 -95.347653 
L 127.184322 -94.922812 
L 126.778668 -94.470095 
L 126.373014 -93.99294 
L 125.96736 -93.494725 
L 125.561707 -92.97874 
L 125.156053 -92.44815 
L 124.750399 -91.90597 
L 124.344745 -91.355038 
L 123.939091 -90.797992 
L 123.533438 -90.237249 
L 123.127784 -89.674985 
L 122.72213 -89.113123 
L 122.316476 -88.553321 
L 121.910822 -87.996962 
L 121.505169 -87.445156 
L 121.099515 -86.898731 
L 120.693861 -86.358242 
L 120.288207 -85.823975 
L 119.882553 -85.295956 
L 119.4769 -84.773967 
L 119.071246 -84.257556 
L 118.665592 -83.74606 
L 118.259938 -83.238624 
L 117.854284 -82.73422 
L 117.448631 -82.231679 
L 117.042977 -81.729708 
L 116.637323 -81.226922 
L 116.231669 -80.721869 
L 115.826015 -80.213057 
L 115.420362 -79.698982 
L 115.014708 -79.178154 
L 114.609054 -78.649124 
L 114.2034 -78.110504 
L 113.797746 -77.560996 
L 113.392093 -76.99941 
L 112.986439 -76.424681 
L 112.580785 -75.835892 
L 112.175131 -75.232282 
L 111.769477 -74.613262 
L 111.363824 -73.978422 
L 110.95817 -73.327541 
L 110.552516 -72.660586 
L 110.146862 -71.977719 
L 109.741208 -71.279292 
L 109.335555 -70.565842 
L 108.929901 -69.838092 
L 108.524247 -69.096933 
L 108.118593 -68.343422 
L 107.712939 -67.578764 
L 107.307286 -66.804302 
L 106.901632 -66.0215 
L 106.495978 -65.231929 
L 106.090324 -64.437248 
L 105.68467 -63.639186 
L 105.279017 -62.839525 
L 104.873363 -62.040083 
L 104.467709 -61.242697 
L 104.062055 -60.4492 
L 103.656401 -59.661411 
L 103.250748 -58.881114 
L 102.845094 -58.110047 
L 102.43944 -57.349883 
L 102.033786 -56.602221 
L 101.628132 -55.868573 
L 101.222479 -55.150356 
L 100.816825 -54.448878 
L 100.411171 -53.765337 
L 100.005517 -53.100812 
L 99.599863 -52.456258 
L 99.19421 -51.832505 
L 98.788556 -51.230259 
L 98.382902 -50.650095 
L 97.977248 -50.092465 
L 97.571594 -49.557696 
L 97.165941 -49.045998 
L 96.760287 -48.557463 
L 96.354633 -48.092074 
L 95.948979 -47.64971 
L 95.543325 -47.230152 
L 95.137672 -46.833093 
L 94.732018 -46.45814 
L 94.326364 -46.104827 
L 93.92071 -45.772619 
L 93.515056 -45.460925 
L 93.109403 -45.169099 
L 92.703749 -44.896455 
L 92.298095 -44.642269 
L 91.892441 -44.40579 
L 91.486787 -44.186243 
L 91.081134 -43.982843 
L 90.67548 -43.794792 
L 90.269826 -43.621292 
L 89.864172 -43.461546 
L 89.458518 -43.314767 
L 89.052865 -43.180177 
L 88.647211 -43.057017 
L 88.241557 -42.944544 
L 87.835903 -42.842039 
L 87.430249 -42.748808 
L 87.024596 -42.664182 
L 86.618942 -42.587521 
L 86.213288 -42.518214 
L 85.807634 -42.455681 
L 85.40198 -42.399373 
L 84.996327 -42.34877 
L 84.590673 -42.303384 
L 84.185019 -42.262758 
z
" style="stroke: #ff7f0e"/>
    </defs>
    <g clip-path="url(#p4f8911416c)">
     <use xlink:href="#m85a8c9dc60" x="0" y="216" style="fill: #ff7f0e; fill-opacity: 0.25; stroke: #ff7f0e"/>
    </g>
   </g>
   <g id="PolyCollection_5">
    <defs>
     <path id="ma6df8a7786" d="M 412.306497 -42.436378 
L 412.306497 -41.96 
L 412.56662 -41.96 
L 412.826742 -41.96 
L 413.086865 -41.96 
L 413.346987 -41.96 
L 413.60711 -41.96 
L 413.867232 -41.96 
L 414.127354 -41.96 
L 414.387477 -41.96 
L 414.647599 -41.96 
L 414.907722 -41.96 
L 415.167844 -41.96 
L 415.427966 -41.96 
L 415.688089 -41.96 
L 415.948211 -41.96 
L 416.208334 -41.96 
L 416.468456 -41.96 
L 416.728579 -41.96 
L 416.988701 -41.96 
L 417.248823 -41.96 
L 417.508946 -41.96 
L 417.769068 -41.96 
L 418.029191 -41.96 
L 418.289313 -41.96 
L 418.549435 -41.96 
L 418.809558 -41.96 
L 419.06968 -41.96 
L 419.329803 -41.96 
L 419.589925 -41.96 
L 419.850048 -41.96 
L 420.11017 -41.96 
L 420.370292 -41.96 
L 420.630415 -41.96 
L 420.890537 -41.96 
L 421.15066 -41.96 
L 421.410782 -41.96 
L 421.670904 -41.96 
L 421.931027 -41.96 
L 422.191149 -41.96 
L 422.451272 -41.96 
L 422.711394 -41.96 
L 422.971517 -41.96 
L 423.231639 -41.96 
L 423.491761 -41.96 
L 423.751884 -41.96 
L 424.012006 -41.96 
L 424.272129 -41.96 
L 424.532251 -41.96 
L 424.792374 -41.96 
L 425.052496 -41.96 
L 425.312618 -41.96 
L 425.572741 -41.96 
L 425.832863 -41.96 
L 426.092986 -41.96 
L 426.353108 -41.96 
L 426.61323 -41.96 
L 426.873353 -41.96 
L 427.133475 -41.96 
L 427.393598 -41.96 
L 427.65372 -41.96 
L 427.913843 -41.96 
L 428.173965 -41.96 
L 428.434087 -41.96 
L 428.69421 -41.96 
L 428.954332 -41.96 
L 429.214455 -41.96 
L 429.474577 -41.96 
L 429.734699 -41.96 
L 429.994822 -41.96 
L 430.254944 -41.96 
L 430.515067 -41.96 
L 430.775189 -41.96 
L 431.035312 -41.96 
L 431.295434 -41.96 
L 431.555556 -41.96 
L 431.815679 -41.96 
L 432.075801 -41.96 
L 432.335924 -41.96 
L 432.596046 -41.96 
L 432.856168 -41.96 
L 433.116291 -41.96 
L 433.376413 -41.96 
L 433.636536 -41.96 
L 433.896658 -41.96 
L 434.156781 -41.96 
L 434.416903 -41.96 
L 434.677025 -41.96 
L 434.937148 -41.96 
L 435.19727 -41.96 
L 435.457393 -41.96 
L 435.717515 -41.96 
L 435.977637 -41.96 
L 436.23776 -41.96 
L 436.497882 -41.96 
L 436.758005 -41.96 
L 437.018127 -41.96 
L 437.27825 -41.96 
L 437.538372 -41.96 
L 437.798494 -41.96 
L 438.058617 -41.96 
L 438.318739 -41.96 
L 438.578862 -41.96 
L 438.838984 -41.96 
L 439.099107 -41.96 
L 439.359229 -41.96 
L 439.619351 -41.96 
L 439.879474 -41.96 
L 440.139596 -41.96 
L 440.399719 -41.96 
L 440.659841 -41.96 
L 440.919963 -41.96 
L 441.180086 -41.96 
L 441.440208 -41.96 
L 441.700331 -41.96 
L 441.960453 -41.96 
L 442.220576 -41.96 
L 442.480698 -41.96 
L 442.74082 -41.96 
L 443.000943 -41.96 
L 443.261065 -41.96 
L 443.521188 -41.96 
L 443.78131 -41.96 
L 444.041432 -41.96 
L 444.301555 -41.96 
L 444.561677 -41.96 
L 444.8218 -41.96 
L 445.081922 -41.96 
L 445.342045 -41.96 
L 445.602167 -41.96 
L 445.862289 -41.96 
L 446.122412 -41.96 
L 446.382534 -41.96 
L 446.642657 -41.96 
L 446.902779 -41.96 
L 447.162901 -41.96 
L 447.423024 -41.96 
L 447.683146 -41.96 
L 447.943269 -41.96 
L 448.203391 -41.96 
L 448.463514 -41.96 
L 448.723636 -41.96 
L 448.983758 -41.96 
L 449.243881 -41.96 
L 449.504003 -41.96 
L 449.764126 -41.96 
L 450.024248 -41.96 
L 450.284371 -41.96 
L 450.544493 -41.96 
L 450.804615 -41.96 
L 451.064738 -41.96 
L 451.32486 -41.96 
L 451.584983 -41.96 
L 451.845105 -41.96 
L 452.105227 -41.96 
L 452.36535 -41.96 
L 452.625472 -41.96 
L 452.885595 -41.96 
L 453.145717 -41.96 
L 453.40584 -41.96 
L 453.665962 -41.96 
L 453.926084 -41.96 
L 454.186207 -41.96 
L 454.446329 -41.96 
L 454.706452 -41.96 
L 454.966574 -41.96 
L 455.226696 -41.96 
L 455.486819 -41.96 
L 455.746941 -41.96 
L 456.007064 -41.96 
L 456.267186 -41.96 
L 456.527309 -41.96 
L 456.787431 -41.96 
L 457.047553 -41.96 
L 457.307676 -41.96 
L 457.567798 -41.96 
L 457.827921 -41.96 
L 458.088043 -41.96 
L 458.348165 -41.96 
L 458.608288 -41.96 
L 458.86841 -41.96 
L 459.128533 -41.96 
L 459.388655 -41.96 
L 459.648778 -41.96 
L 459.9089 -41.96 
L 460.169022 -41.96 
L 460.429145 -41.96 
L 460.689267 -41.96 
L 460.94939 -41.96 
L 461.209512 -41.96 
L 461.469634 -41.96 
L 461.729757 -41.96 
L 461.989879 -41.96 
L 462.250002 -41.96 
L 462.510124 -41.96 
L 462.770247 -41.96 
L 463.030369 -41.96 
L 463.290491 -41.96 
L 463.550614 -41.96 
L 463.810736 -41.96 
L 464.070859 -41.96 
L 464.070859 -42.454578 
L 464.070859 -42.454578 
L 463.810736 -42.522282 
L 463.550614 -42.598138 
L 463.290491 -42.682963 
L 463.030369 -42.777637 
L 462.770247 -42.883099 
L 462.510124 -43.000354 
L 462.250002 -43.130467 
L 461.989879 -43.274573 
L 461.729757 -43.433866 
L 461.469634 -43.609608 
L 461.209512 -43.803123 
L 460.94939 -44.015794 
L 460.689267 -44.249066 
L 460.429145 -44.504436 
L 460.169022 -44.783456 
L 459.9089 -45.087722 
L 459.648778 -45.418871 
L 459.388655 -45.778575 
L 459.128533 -46.168532 
L 458.86841 -46.590458 
L 458.608288 -47.046079 
L 458.348165 -47.537116 
L 458.088043 -48.065282 
L 457.827921 -48.63226 
L 457.567798 -49.239699 
L 457.307676 -49.889194 
L 457.047553 -50.582277 
L 456.787431 -51.320395 
L 456.527309 -52.104905 
L 456.267186 -52.937047 
L 456.007064 -53.817936 
L 455.746941 -54.748545 
L 455.486819 -55.729684 
L 455.226696 -56.761992 
L 454.966574 -57.845915 
L 454.706452 -58.981695 
L 454.446329 -60.169356 
L 454.186207 -61.408689 
L 453.926084 -62.699243 
L 453.665962 -64.040311 
L 453.40584 -65.430925 
L 453.145717 -66.869845 
L 452.885595 -68.355555 
L 452.625472 -69.886259 
L 452.36535 -71.459881 
L 452.105227 -73.07406 
L 451.845105 -74.726162 
L 451.584983 -76.413276 
L 451.32486 -78.132226 
L 451.064738 -79.87958 
L 450.804615 -81.651665 
L 450.544493 -83.444574 
L 450.284371 -85.254192 
L 450.024248 -87.076209 
L 449.764126 -88.906144 
L 449.504003 -90.739367 
L 449.243881 -92.571125 
L 448.983758 -94.396568 
L 448.723636 -96.210777 
L 448.463514 -98.008792 
L 448.203391 -99.785648 
L 447.943269 -101.536397 
L 447.683146 -103.256146 
L 447.423024 -104.940089 
L 447.162901 -106.583531 
L 446.902779 -108.181929 
L 446.642657 -109.730915 
L 446.382534 -111.226325 
L 446.122412 -112.664232 
L 445.862289 -114.040969 
L 445.602167 -115.353153 
L 445.342045 -116.597706 
L 445.081922 -117.771879 
L 444.8218 -118.873266 
L 444.561677 -119.899818 
L 444.301555 -120.849856 
L 444.041432 -121.722078 
L 443.78131 -122.515566 
L 443.521188 -123.229784 
L 443.261065 -123.864581 
L 443.000943 -124.420184 
L 442.74082 -124.897186 
L 442.480698 -125.296541 
L 442.220576 -125.619543 
L 441.960453 -125.867813 
L 441.700331 -126.043274 
L 441.440208 -126.14813 
L 441.180086 -126.184838 
L 440.919963 -126.156082 
L 440.659841 -126.06474 
L 440.399719 -125.913854 
L 440.139596 -125.706597 
L 439.879474 -125.446236 
L 439.619351 -125.136103 
L 439.359229 -124.779555 
L 439.099107 -124.37994 
L 438.838984 -123.940568 
L 438.578862 -123.464674 
L 438.318739 -122.955385 
L 438.058617 -122.415698 
L 437.798494 -121.848444 
L 437.538372 -121.256269 
L 437.27825 -120.64161 
L 437.018127 -120.006678 
L 436.758005 -119.353439 
L 436.497882 -118.683605 
L 436.23776 -117.998623 
L 435.977637 -117.299674 
L 435.717515 -116.587668 
L 435.457393 -115.863251 
L 435.19727 -115.126807 
L 434.937148 -114.378473 
L 434.677025 -113.61815 
L 434.416903 -112.845518 
L 434.156781 -112.06006 
L 433.896658 -111.261082 
L 433.636536 -110.447739 
L 433.376413 -109.619061 
L 433.116291 -108.77398 
L 432.856168 -107.911364 
L 432.596046 -107.030041 
L 432.335924 -106.128836 
L 432.075801 -105.206594 
L 431.815679 -104.262218 
L 431.555556 -103.29469 
L 431.295434 -102.303101 
L 431.035312 -101.286681 
L 430.775189 -100.244813 
L 430.515067 -99.17706 
L 430.254944 -98.083183 
L 429.994822 -96.963154 
L 429.734699 -95.817165 
L 429.474577 -94.645643 
L 429.214455 -93.449252 
L 428.954332 -92.228891 
L 428.69421 -90.9857 
L 428.434087 -89.721048 
L 428.173965 -88.436531 
L 427.913843 -87.133955 
L 427.65372 -85.815328 
L 427.393598 -84.482841 
L 427.133475 -83.138849 
L 426.873353 -81.785852 
L 426.61323 -80.426474 
L 426.353108 -79.063436 
L 426.092986 -77.699537 
L 425.832863 -76.337624 
L 425.572741 -74.980572 
L 425.312618 -73.631256 
L 425.052496 -72.292528 
L 424.792374 -70.967192 
L 424.532251 -69.657986 
L 424.272129 -68.367552 
L 424.012006 -67.098426 
L 423.751884 -65.853014 
L 423.491761 -64.633576 
L 423.231639 -63.442214 
L 422.971517 -62.280859 
L 422.711394 -61.151261 
L 422.451272 -60.054981 
L 422.191149 -58.993385 
L 421.931027 -57.967643 
L 421.670904 -56.978724 
L 421.410782 -56.027398 
L 421.15066 -55.11424 
L 420.890537 -54.239633 
L 420.630415 -53.403774 
L 420.370292 -52.60668 
L 420.11017 -51.848199 
L 419.850048 -51.128019 
L 419.589925 -50.445676 
L 419.329803 -49.800569 
L 419.06968 -49.191969 
L 418.809558 -48.619035 
L 418.549435 -48.080822 
L 418.289313 -47.576296 
L 418.029191 -47.104347 
L 417.769068 -46.663801 
L 417.508946 -46.25343 
L 417.248823 -45.871967 
L 416.988701 -45.518116 
L 416.728579 -45.190558 
L 416.468456 -44.88797 
L 416.208334 -44.609025 
L 415.948211 -44.352406 
L 415.688089 -44.116811 
L 415.427966 -43.900961 
L 415.167844 -43.703605 
L 414.907722 -43.523526 
L 414.647599 -43.359546 
L 414.387477 -43.210529 
L 414.127354 -43.075383 
L 413.867232 -42.953064 
L 413.60711 -42.842578 
L 413.346987 -42.74298 
L 413.086865 -42.653377 
L 412.826742 -42.572929 
L 412.56662 -42.500842 
L 412.306497 -42.436378 
z
" style="stroke: #1f77b4"/>
    </defs>
    <g clip-path="url(#p4f8911416c)">
     <use xlink:href="#ma6df8a7786" x="0" y="216" style="fill: #1f77b4; fill-opacity: 0.25; stroke: #1f77b4"/>
    </g>
   </g>
   <g id="matplotlib.axis_1">
    <g id="xtick_1">
     <g id="line2d_1">
      <defs>
       <path id="m646db9ccf3" d="M 0 0 
L 0 3.5 
" style="stroke: #000000; stroke-width: 0.8"/>
      </defs>
      <g>
       <use xlink:href="#m646db9ccf3" x="32.337577" y="174.04" style="stroke: #000000; stroke-width: 0.8"/>
      </g>
     </g>
     <g id="text_1">
      <!-- 2 -->
      <g transform="translate(29.156327 188.638438) scale(0.1 -0.1)">
       <defs>
        <path id="DejaVuSans-32" d="M 1228 531 
L 3431 531 
L 3431 0 
L 469 0 
L 469 531 
Q 828 903 1448 1529 
Q 2069 2156 2228 2338 
Q 2531 2678 2651 2914 
Q 2772 3150 2772 3378 
Q 2772 3750 2511 3984 
Q 2250 4219 1831 4219 
Q 1534 4219 1204 4116 
Q 875 4013 500 3803 
L 500 4441 
Q 881 4594 1212 4672 
Q 1544 4750 1819 4750 
Q 2544 4750 2975 4387 
Q 3406 4025 3406 3419 
Q 3406 3131 3298 2873 
Q 3191 2616 2906 2266 
Q 2828 2175 2409 1742 
Q 1991 1309 1228 531 
z
" transform="scale(0.015625)"/>
       </defs>
       <use xlink:href="#DejaVuSans-32"/>
      </g>
     </g>
    </g>
    <g id="xtick_2">
     <g id="line2d_2">
      <g>
       <use xlink:href="#m646db9ccf3" x="124.637775" y="174.04" style="stroke: #000000; stroke-width: 0.8"/>
      </g>
     </g>
     <g id="text_2">
      <!-- 4 -->
      <g transform="translate(121.456525 188.638438) scale(0.1 -0.1)">
       <defs>
        <path id="DejaVuSans-34" d="M 2419 4116 
L 825 1625 
L 2419 1625 
L 2419 4116 
z
M 2253 4666 
L 3047 4666 
L 3047 1625 
L 3713 1625 
L 3713 1100 
L 3047 1100 
L 3047 0 
L 2419 0 
L 2419 1100 
L 313 1100 
L 313 1709 
L 2253 4666 
z
" transform="scale(0.015625)"/>
       </defs>
       <use xlink:href="#DejaVuSans-34"/>
      </g>
     </g>
    </g>
    <g id="xtick_3">
     <g id="line2d_3">
      <g>
       <use xlink:href="#m646db9ccf3" x="216.937973" y="174.04" style="stroke: #000000; stroke-width: 0.8"/>
      </g>
     </g>
     <g id="text_3">
      <!-- 6 -->
      <g transform="translate(213.756723 188.638438) scale(0.1 -0.1)">
       <defs>
        <path id="DejaVuSans-36" d="M 2113 2584 
Q 1688 2584 1439 2293 
Q 1191 2003 1191 1497 
Q 1191 994 1439 701 
Q 1688 409 2113 409 
Q 2538 409 2786 701 
Q 3034 994 3034 1497 
Q 3034 2003 2786 2293 
Q 2538 2584 2113 2584 
z
M 3366 4563 
L 3366 3988 
Q 3128 4100 2886 4159 
Q 2644 4219 2406 4219 
Q 1781 4219 1451 3797 
Q 1122 3375 1075 2522 
Q 1259 2794 1537 2939 
Q 1816 3084 2150 3084 
Q 2853 3084 3261 2657 
Q 3669 2231 3669 1497 
Q 3669 778 3244 343 
Q 2819 -91 2113 -91 
Q 1303 -91 875 529 
Q 447 1150 447 2328 
Q 447 3434 972 4092 
Q 1497 4750 2381 4750 
Q 2619 4750 2861 4703 
Q 3103 4656 3366 4563 
z
" transform="scale(0.015625)"/>
       </defs>
       <use xlink:href="#DejaVuSans-36"/>
      </g>
     </g>
    </g>
    <g id="xtick_4">
     <g id="line2d_4">
      <g>
       <use xlink:href="#m646db9ccf3" x="309.23817" y="174.04" style="stroke: #000000; stroke-width: 0.8"/>
      </g>
     </g>
     <g id="text_4">
      <!-- 8 -->
      <g transform="translate(306.05692 188.638438) scale(0.1 -0.1)">
       <defs>
        <path id="DejaVuSans-38" d="M 2034 2216 
Q 1584 2216 1326 1975 
Q 1069 1734 1069 1313 
Q 1069 891 1326 650 
Q 1584 409 2034 409 
Q 2484 409 2743 651 
Q 3003 894 3003 1313 
Q 3003 1734 2745 1975 
Q 2488 2216 2034 2216 
z
M 1403 2484 
Q 997 2584 770 2862 
Q 544 3141 544 3541 
Q 544 4100 942 4425 
Q 1341 4750 2034 4750 
Q 2731 4750 3128 4425 
Q 3525 4100 3525 3541 
Q 3525 3141 3298 2862 
Q 3072 2584 2669 2484 
Q 3125 2378 3379 2068 
Q 3634 1759 3634 1313 
Q 3634 634 3220 271 
Q 2806 -91 2034 -91 
Q 1263 -91 848 271 
Q 434 634 434 1313 
Q 434 1759 690 2068 
Q 947 2378 1403 2484 
z
M 1172 3481 
Q 1172 3119 1398 2916 
Q 1625 2713 2034 2713 
Q 2441 2713 2670 2916 
Q 2900 3119 2900 3481 
Q 2900 3844 2670 4047 
Q 2441 4250 2034 4250 
Q 1625 4250 1398 4047 
Q 1172 3844 1172 3481 
z
" transform="scale(0.015625)"/>
       </defs>
       <use xlink:href="#DejaVuSans-38"/>
      </g>
     </g>
    </g>
    <g id="xtick_5">
     <g id="line2d_5">
      <g>
       <use xlink:href="#m646db9ccf3" x="401.538368" y="174.04" style="stroke: #000000; stroke-width: 0.8"/>
      </g>
     </g>
     <g id="text_5">
      <!-- 10 -->
      <g transform="translate(395.175868 188.638438) scale(0.1 -0.1)">
       <defs>
        <path id="DejaVuSans-31" d="M 794 531 
L 1825 531 
L 1825 4091 
L 703 3866 
L 703 4441 
L 1819 4666 
L 2450 4666 
L 2450 531 
L 3481 531 
L 3481 0 
L 794 0 
L 794 531 
z
" transform="scale(0.015625)"/>
        <path id="DejaVuSans-30" d="M 2034 4250 
Q 1547 4250 1301 3770 
Q 1056 3291 1056 2328 
Q 1056 1369 1301 889 
Q 1547 409 2034 409 
Q 2525 409 2770 889 
Q 3016 1369 3016 2328 
Q 3016 3291 2770 3770 
Q 2525 4250 2034 4250 
z
M 2034 4750 
Q 2819 4750 3233 4129 
Q 3647 3509 3647 2328 
Q 3647 1150 3233 529 
Q 2819 -91 2034 -91 
Q 1250 -91 836 529 
Q 422 1150 422 2328 
Q 422 3509 836 4129 
Q 1250 4750 2034 4750 
z
" transform="scale(0.015625)"/>
       </defs>
       <use xlink:href="#DejaVuSans-31"/>
       <use xlink:href="#DejaVuSans-30" x="63.623047"/>
      </g>
     </g>
    </g>
    <g id="xtick_6">
     <g id="line2d_6">
      <g>
       <use xlink:href="#m646db9ccf3" x="493.838566" y="174.04" style="stroke: #000000; stroke-width: 0.8"/>
      </g>
     </g>
     <g id="text_6">
      <!-- 12 -->
      <g transform="translate(487.476066 188.638438) scale(0.1 -0.1)">
       <use xlink:href="#DejaVuSans-31"/>
       <use xlink:href="#DejaVuSans-32" x="63.623047"/>
      </g>
     </g>
    </g>
    <g id="text_7">
     <!-- seconds -->
     <g transform="translate(267.5625 202.316563) scale(0.1 -0.1)">
      <defs>
       <path id="DejaVuSans-73" d="M 2834 3397 
L 2834 2853 
Q 2591 2978 2328 3040 
Q 2066 3103 1784 3103 
Q 1356 3103 1142 2972 
Q 928 2841 928 2578 
Q 928 2378 1081 2264 
Q 1234 2150 1697 2047 
L 1894 2003 
Q 2506 1872 2764 1633 
Q 3022 1394 3022 966 
Q 3022 478 2636 193 
Q 2250 -91 1575 -91 
Q 1294 -91 989 -36 
Q 684 19 347 128 
L 347 722 
Q 666 556 975 473 
Q 1284 391 1588 391 
Q 1994 391 2212 530 
Q 2431 669 2431 922 
Q 2431 1156 2273 1281 
Q 2116 1406 1581 1522 
L 1381 1569 
Q 847 1681 609 1914 
Q 372 2147 372 2553 
Q 372 3047 722 3315 
Q 1072 3584 1716 3584 
Q 2034 3584 2315 3537 
Q 2597 3491 2834 3397 
z
" transform="scale(0.015625)"/>
       <path id="DejaVuSans-65" d="M 3597 1894 
L 3597 1613 
L 953 1613 
Q 991 1019 1311 708 
Q 1631 397 2203 397 
Q 2534 397 2845 478 
Q 3156 559 3463 722 
L 3463 178 
Q 3153 47 2828 -22 
Q 2503 -91 2169 -91 
Q 1331 -91 842 396 
Q 353 884 353 1716 
Q 353 2575 817 3079 
Q 1281 3584 2069 3584 
Q 2775 3584 3186 3129 
Q 3597 2675 3597 1894 
z
M 3022 2063 
Q 3016 2534 2758 2815 
Q 2500 3097 2075 3097 
Q 1594 3097 1305 2825 
Q 1016 2553 972 2059 
L 3022 2063 
z
" transform="scale(0.015625)"/>
       <path id="DejaVuSans-63" d="M 3122 3366 
L 3122 2828 
Q 2878 2963 2633 3030 
Q 2388 3097 2138 3097 
Q 1578 3097 1268 2742 
Q 959 2388 959 1747 
Q 959 1106 1268 751 
Q 1578 397 2138 397 
Q 2388 397 2633 464 
Q 2878 531 3122 666 
L 3122 134 
Q 2881 22 2623 -34 
Q 2366 -91 2075 -91 
Q 1284 -91 818 406 
Q 353 903 353 1747 
Q 353 2603 823 3093 
Q 1294 3584 2113 3584 
Q 2378 3584 2631 3529 
Q 2884 3475 3122 3366 
z
" transform="scale(0.015625)"/>
       <path id="DejaVuSans-6f" d="M 1959 3097 
Q 1497 3097 1228 2736 
Q 959 2375 959 1747 
Q 959 1119 1226 758 
Q 1494 397 1959 397 
Q 2419 397 2687 759 
Q 2956 1122 2956 1747 
Q 2956 2369 2687 2733 
Q 2419 3097 1959 3097 
z
M 1959 3584 
Q 2709 3584 3137 3096 
Q 3566 2609 3566 1747 
Q 3566 888 3137 398 
Q 2709 -91 1959 -91 
Q 1206 -91 779 398 
Q 353 888 353 1747 
Q 353 2609 779 3096 
Q 1206 3584 1959 3584 
z
" transform="scale(0.015625)"/>
       <path id="DejaVuSans-6e" d="M 3513 2113 
L 3513 0 
L 2938 0 
L 2938 2094 
Q 2938 2591 2744 2837 
Q 2550 3084 2163 3084 
Q 1697 3084 1428 2787 
Q 1159 2491 1159 1978 
L 1159 0 
L 581 0 
L 581 3500 
L 1159 3500 
L 1159 2956 
Q 1366 3272 1645 3428 
Q 1925 3584 2291 3584 
Q 2894 3584 3203 3211 
Q 3513 2838 3513 2113 
z
" transform="scale(0.015625)"/>
       <path id="DejaVuSans-64" d="M 2906 2969 
L 2906 4863 
L 3481 4863 
L 3481 0 
L 2906 0 
L 2906 525 
Q 2725 213 2448 61 
Q 2172 -91 1784 -91 
Q 1150 -91 751 415 
Q 353 922 353 1747 
Q 353 2572 751 3078 
Q 1150 3584 1784 3584 
Q 2172 3584 2448 3432 
Q 2725 3281 2906 2969 
z
M 947 1747 
Q 947 1113 1208 752 
Q 1469 391 1925 391 
Q 2381 391 2643 752 
Q 2906 1113 2906 1747 
Q 2906 2381 2643 2742 
Q 2381 3103 1925 3103 
Q 1469 3103 1208 2742 
Q 947 2381 947 1747 
z
" transform="scale(0.015625)"/>
      </defs>
      <use xlink:href="#DejaVuSans-73"/>
      <use xlink:href="#DejaVuSans-65" x="52.099609"/>
      <use xlink:href="#DejaVuSans-63" x="113.623047"/>
      <use xlink:href="#DejaVuSans-6f" x="168.603516"/>
      <use xlink:href="#DejaVuSans-6e" x="229.785156"/>
      <use xlink:href="#DejaVuSans-64" x="293.164062"/>
      <use xlink:href="#DejaVuSans-73" x="356.640625"/>
     </g>
    </g>
   </g>
   <g id="patch_3">
    <path d="M 10.8 174.04 
L 565.2 174.04 
" style="fill: none; stroke: #000000; stroke-width: 0.8; stroke-linejoin: miter; stroke-linecap: square"/>
   </g>
   <g id="legend_1">
    <g id="patch_4">
     <path d="M 435.898438 27.398438 
L 455.898438 27.398438 
L 455.898438 20.398438 
L 435.898438 20.398438 
z
" style="fill: #1f77b4; fill-opacity: 0.25; stroke: #1f77b4; stroke-linejoin: miter"/>
    </g>
    <g id="text_8">
     <!-- asyncpg_fetch -->
     <g transform="translate(463.898438 27.398438) scale(0.1 -0.1)">
      <defs>
       <path id="DejaVuSans-61" d="M 2194 1759 
Q 1497 1759 1228 1600 
Q 959 1441 959 1056 
Q 959 750 1161 570 
Q 1363 391 1709 391 
Q 2188 391 2477 730 
Q 2766 1069 2766 1631 
L 2766 1759 
L 2194 1759 
z
M 3341 1997 
L 3341 0 
L 2766 0 
L 2766 531 
Q 2569 213 2275 61 
Q 1981 -91 1556 -91 
Q 1019 -91 701 211 
Q 384 513 384 1019 
Q 384 1609 779 1909 
Q 1175 2209 1959 2209 
L 2766 2209 
L 2766 2266 
Q 2766 2663 2505 2880 
Q 2244 3097 1772 3097 
Q 1472 3097 1187 3025 
Q 903 2953 641 2809 
L 641 3341 
Q 956 3463 1253 3523 
Q 1550 3584 1831 3584 
Q 2591 3584 2966 3190 
Q 3341 2797 3341 1997 
z
" transform="scale(0.015625)"/>
       <path id="DejaVuSans-79" d="M 2059 -325 
Q 1816 -950 1584 -1140 
Q 1353 -1331 966 -1331 
L 506 -1331 
L 506 -850 
L 844 -850 
Q 1081 -850 1212 -737 
Q 1344 -625 1503 -206 
L 1606 56 
L 191 3500 
L 800 3500 
L 1894 763 
L 2988 3500 
L 3597 3500 
L 2059 -325 
z
" transform="scale(0.015625)"/>
       <path id="DejaVuSans-70" d="M 1159 525 
L 1159 -1331 
L 581 -1331 
L 581 3500 
L 1159 3500 
L 1159 2969 
Q 1341 3281 1617 3432 
Q 1894 3584 2278 3584 
Q 2916 3584 3314 3078 
Q 3713 2572 3713 1747 
Q 3713 922 3314 415 
Q 2916 -91 2278 -91 
Q 1894 -91 1617 61 
Q 1341 213 1159 525 
z
M 3116 1747 
Q 3116 2381 2855 2742 
Q 2594 3103 2138 3103 
Q 1681 3103 1420 2742 
Q 1159 2381 1159 1747 
Q 1159 1113 1420 752 
Q 1681 391 2138 391 
Q 2594 391 2855 752 
Q 3116 1113 3116 1747 
z
" transform="scale(0.015625)"/>
       <path id="DejaVuSans-67" d="M 2906 1791 
Q 2906 2416 2648 2759 
Q 2391 3103 1925 3103 
Q 1463 3103 1205 2759 
Q 947 2416 947 1791 
Q 947 1169 1205 825 
Q 1463 481 1925 481 
Q 2391 481 2648 825 
Q 2906 1169 2906 1791 
z
M 3481 434 
Q 3481 -459 3084 -895 
Q 2688 -1331 1869 -1331 
Q 1566 -1331 1297 -1286 
Q 1028 -1241 775 -1147 
L 775 -588 
Q 1028 -725 1275 -790 
Q 1522 -856 1778 -856 
Q 2344 -856 2625 -561 
Q 2906 -266 2906 331 
L 2906 616 
Q 2728 306 2450 153 
Q 2172 0 1784 0 
Q 1141 0 747 490 
Q 353 981 353 1791 
Q 353 2603 747 3093 
Q 1141 3584 1784 3584 
Q 2172 3584 2450 3431 
Q 2728 3278 2906 2969 
L 2906 3500 
L 3481 3500 
L 3481 434 
z
" transform="scale(0.015625)"/>
       <path id="DejaVuSans-5f" d="M 3263 -1063 
L 3263 -1509 
L -63 -1509 
L -63 -1063 
L 3263 -1063 
z
" transform="scale(0.015625)"/>
       <path id="DejaVuSans-66" d="M 2375 4863 
L 2375 4384 
L 1825 4384 
Q 1516 4384 1395 4259 
Q 1275 4134 1275 3809 
L 1275 3500 
L 2222 3500 
L 2222 3053 
L 1275 3053 
L 1275 0 
L 697 0 
L 697 3053 
L 147 3053 
L 147 3500 
L 697 3500 
L 697 3744 
Q 697 4328 969 4595 
Q 1241 4863 1831 4863 
L 2375 4863 
z
" transform="scale(0.015625)"/>
       <path id="DejaVuSans-74" d="M 1172 4494 
L 1172 3500 
L 2356 3500 
L 2356 3053 
L 1172 3053 
L 1172 1153 
Q 1172 725 1289 603 
Q 1406 481 1766 481 
L 2356 481 
L 2356 0 
L 1766 0 
Q 1100 0 847 248 
Q 594 497 594 1153 
L 594 3053 
L 172 3053 
L 172 3500 
L 594 3500 
L 594 4494 
L 1172 4494 
z
" transform="scale(0.015625)"/>
       <path id="DejaVuSans-68" d="M 3513 2113 
L 3513 0 
L 2938 0 
L 2938 2094 
Q 2938 2591 2744 2837 
Q 2550 3084 2163 3084 
Q 1697 3084 1428 2787 
Q 1159 2491 1159 1978 
L 1159 0 
L 581 0 
L 581 4863 
L 1159 4863 
L 1159 2956 
Q 1366 3272 1645 3428 
Q 1925 3584 2291 3584 
Q 2894 3584 3203 3211 
Q 3513 2838 3513 2113 
z
" transform="scale(0.015625)"/>
      </defs>
      <use xlink:href="#DejaVuSans-61"/>
      <use xlink:href="#DejaVuSans-73" x="61.279297"/>
      <use xlink:href="#DejaVuSans-79" x="113.378906"/>
      <use xlink:href="#DejaVuSans-6e" x="172.558594"/>
      <use xlink:href="#DejaVuSans-63" x="235.9375"/>
      <use xlink:href="#DejaVuSans-70" x="290.917969"/>
      <use xlink:href="#DejaVuSans-67" x="354.394531"/>
      <use xlink:href="#DejaVuSans-5f" x="417.871094"/>
      <use xlink:href="#DejaVuSans-66" x="467.871094"/>
      <use xlink:href="#DejaVuSans-65" x="503.076172"/>
      <use xlink:href="#DejaVuSans-74" x="564.599609"/>
      <use xlink:href="#DejaVuSans-63" x="603.808594"/>
      <use xlink:href="#DejaVuSans-68" x="658.789062"/>
     </g>
    </g>
    <g id="patch_5">
     <path d="M 435.898438 42.354688 
L 455.898438 42.354688 
L 455.898438 35.354688 
L 435.898438 35.354688 
z
" style="fill: #ff7f0e; fill-opacity: 0.25; stroke: #ff7f0e; stroke-linejoin: miter"/>
    </g>
    <g id="text_9">
     <!-- asyncpg_copy_csv -->
     <g transform="translate(463.898438 42.354688) scale(0.1 -0.1)">
      <defs>
       <path id="DejaVuSans-76" d="M 191 3500 
L 800 3500 
L 1894 563 
L 2988 3500 
L 3597 3500 
L 2284 0 
L 1503 0 
L 191 3500 
z
" transform="scale(0.015625)"/>
      </defs>
      <use xlink:href="#DejaVuSans-61"/>
      <use xlink:href="#DejaVuSans-73" x="61.279297"/>
      <use xlink:href="#DejaVuSans-79" x="113.378906"/>
      <use xlink:href="#DejaVuSans-6e" x="172.558594"/>
      <use xlink:href="#DejaVuSans-63" x="235.9375"/>
      <use xlink:href="#DejaVuSans-70" x="290.917969"/>
      <use xlink:href="#DejaVuSans-67" x="354.394531"/>
      <use xlink:href="#DejaVuSans-5f" x="417.871094"/>
      <use xlink:href="#DejaVuSans-63" x="467.871094"/>
      <use xlink:href="#DejaVuSans-6f" x="522.851562"/>
      <use xlink:href="#DejaVuSans-70" x="584.033203"/>
      <use xlink:href="#DejaVuSans-79" x="647.509766"/>
      <use xlink:href="#DejaVuSans-5f" x="706.689453"/>
      <use xlink:href="#DejaVuSans-63" x="756.689453"/>
      <use xlink:href="#DejaVuSans-73" x="811.669922"/>
      <use xlink:href="#DejaVuSans-76" x="863.769531"/>
     </g>
    </g>
    <g id="patch_6">
     <path d="M 435.898438 57.310937 
L 455.898438 57.310937 
L 455.898438 50.310937 
L 435.898438 50.310937 
z
" style="fill: #2ca02c; fill-opacity: 0.25; stroke: #2ca02c; stroke-linejoin: miter"/>
    </g>
    <g id="text_10">
     <!-- psycopg_fetchall -->
     <g transform="translate(463.898438 57.310937) scale(0.1 -0.1)">
      <defs>
       <path id="DejaVuSans-6c" d="M 603 4863 
L 1178 4863 
L 1178 0 
L 603 0 
L 603 4863 
z
" transform="scale(0.015625)"/>
      </defs>
      <use xlink:href="#DejaVuSans-70"/>
      <use xlink:href="#DejaVuSans-73" x="63.476562"/>
      <use xlink:href="#DejaVuSans-79" x="115.576172"/>
      <use xlink:href="#DejaVuSans-63" x="174.755859"/>
      <use xlink:href="#DejaVuSans-6f" x="229.736328"/>
      <use xlink:href="#DejaVuSans-70" x="290.917969"/>
      <use xlink:href="#DejaVuSans-67" x="354.394531"/>
      <use xlink:href="#DejaVuSans-5f" x="417.871094"/>
      <use xlink:href="#DejaVuSans-66" x="467.871094"/>
      <use xlink:href="#DejaVuSans-65" x="503.076172"/>
      <use xlink:href="#DejaVuSans-74" x="564.599609"/>
      <use xlink:href="#DejaVuSans-63" x="603.808594"/>
      <use xlink:href="#DejaVuSans-68" x="658.789062"/>
      <use xlink:href="#DejaVuSans-61" x="722.167969"/>
      <use xlink:href="#DejaVuSans-6c" x="783.447266"/>
      <use xlink:href="#DejaVuSans-6c" x="811.230469"/>
     </g>
    </g>
    <g id="patch_7">
     <path d="M 435.898438 72.267188 
L 455.898438 72.267188 
L 455.898438 65.267188 
L 435.898438 65.267188 
z
" style="fill: #d62728; fill-opacity: 0.25; stroke: #d62728; stroke-linejoin: miter"/>
    </g>
    <g id="text_11">
     <!-- psycopg_copy_csv -->
     <g transform="translate(463.898438 72.267188) scale(0.1 -0.1)">
      <use xlink:href="#DejaVuSans-70"/>
      <use xlink:href="#DejaVuSans-73" x="63.476562"/>
      <use xlink:href="#DejaVuSans-79" x="115.576172"/>
      <use xlink:href="#DejaVuSans-63" x="174.755859"/>
      <use xlink:href="#DejaVuSans-6f" x="229.736328"/>
      <use xlink:href="#DejaVuSans-70" x="290.917969"/>
      <use xlink:href="#DejaVuSans-67" x="354.394531"/>
      <use xlink:href="#DejaVuSans-5f" x="417.871094"/>
      <use xlink:href="#DejaVuSans-63" x="467.871094"/>
      <use xlink:href="#DejaVuSans-6f" x="522.851562"/>
      <use xlink:href="#DejaVuSans-70" x="584.033203"/>
      <use xlink:href="#DejaVuSans-79" x="647.509766"/>
      <use xlink:href="#DejaVuSans-5f" x="706.689453"/>
      <use xlink:href="#DejaVuSans-63" x="756.689453"/>
      <use xlink:href="#DejaVuSans-73" x="811.669922"/>
      <use xlink:href="#DejaVuSans-76" x="863.769531"/>
     </g>
    </g>
    <g id="patch_8">
     <path d="M 435.898438 87.223437 
L 455.898438 87.223437 
L 455.898438 80.223437 
L 435.898438 80.223437 
z
" style="fill: #9467bd; fill-opacity: 0.25; stroke: #9467bd; stroke-linejoin: miter"/>
    </g>
    <g id="text_12">
     <!-- pgeon_copy -->
     <g transform="translate(463.898438 87.223437) scale(0.1 -0.1)">
      <use xlink:href="#DejaVuSans-70"/>
      <use xlink:href="#DejaVuSans-67" x="63.476562"/>
      <use xlink:href="#DejaVuSans-65" x="126.953125"/>
      <use xlink:href="#DejaVuSans-6f" x="188.476562"/>
      <use xlink:href="#DejaVuSans-6e" x="249.658203"/>
      <use xlink:href="#DejaVuSans-5f" x="313.037109"/>
      <use xlink:href="#DejaVuSans-63" x="363.037109"/>
      <use xlink:href="#DejaVuSans-6f" x="418.017578"/>
      <use xlink:href="#DejaVuSans-70" x="479.199219"/>
      <use xlink:href="#DejaVuSans-79" x="542.675781"/>
     </g>
    </g>
   </g>
  </g>
 </g>
 <defs>
  <clipPath id="p4f8911416c">
   <rect x="10.8" y="10.8" width="554.4" height="163.24"/>
  </clipPath>
 </defs>
</svg>
