<?xml version="1.0" encoding="utf-8" standalone="no"?>
<!DOCTYPE svg PUBLIC "-//W3C//DTD SVG 1.1//EN"
  "http://www.w3.org/Graphics/SVG/1.1/DTD/svg11.dtd">
<svg xmlns:xlink="http://www.w3.org/1999/xlink" width="864pt" height="216pt" viewBox="0 0 864 216" xmlns="http://www.w3.org/2000/svg" version="1.1">
 <metadata>
  <rdf:RDF xmlns:dc="http://purl.org/dc/elements/1.1/" xmlns:cc="http://creativecommons.org/ns#" xmlns:rdf="http://www.w3.org/1999/02/22-rdf-syntax-ns#">
   <cc:Work>
    <dc:type rdf:resource="http://purl.org/dc/dcmitype/StillImage"/>
    <dc:date>2022-04-24T06:33:47.191108</dc:date>
    <dc:format>image/svg+xml</dc:format>
    <dc:creator>
     <cc:Agent>
      <dc:title>Matplotlib v3.5.1, https://matplotlib.org/</dc:title>
     </cc:Agent>
    </dc:creator>
   </cc:Work>
  </rdf:RDF>
 </metadata>
 <defs>
  <style type="text/css">*{stroke-linejoin: round; stroke-linecap: butt}</style>
 </defs>
 <g id="figure_1">
  <g id="patch_1">
   <path d="M 0 216 
L 864 216 
L 864 0 
L 0 0 
z
" style="fill: #ffffff"/>
  </g>
  <g id="axes_1">
   <g id="patch_2">
    <path d="M 10.8 174.04 
L 853.2 174.04 
L 853.2 10.8 
L 10.8 10.8 
z
" style="fill: #ffffff"/>
   </g>
   <g id="PolyCollection_1">
    <defs>
     <path id="me8970a2da8" d="M 71.918809 -41.97518 
L 71.918809 -41.96 
L 72.223812 -41.96 
L 72.528816 -41.96 
L 72.833819 -41.96 
L 73.138823 -41.96 
L 73.443826 -41.96 
L 73.748829 -41.96 
L 74.053833 -41.96 
L 74.358836 -41.96 
L 74.66384 -41.96 
L 74.968843 -41.96 
L 75.273846 -41.96 
L 75.57885 -41.96 
L 75.883853 -41.96 
L 76.188857 -41.96 
L 76.49386 -41.96 
L 76.798863 -41.96 
L 77.103867 -41.96 
L 77.40887 -41.96 
L 77.713874 -41.96 
L 78.018877 -41.96 
L 78.32388 -41.96 
L 78.628884 -41.96 
L 78.933887 -41.96 
L 79.23889 -41.96 
L 79.543894 -41.96 
L 79.848897 -41.96 
L 80.153901 -41.96 
L 80.458904 -41.96 
L 80.763907 -41.96 
L 81.068911 -41.96 
L 81.373914 -41.96 
L 81.678918 -41.96 
L 81.983921 -41.96 
L 82.288924 -41.96 
L 82.593928 -41.96 
L 82.898931 -41.96 
L 83.203935 -41.96 
L 83.508938 -41.96 
L 83.813941 -41.96 
L 84.118945 -41.96 
L 84.423948 -41.96 
L 84.728952 -41.96 
L 85.033955 -41.96 
L 85.338958 -41.96 
L 85.643962 -41.96 
L 85.948965 -41.96 
L 86.253969 -41.96 
L 86.558972 -41.96 
L 86.863975 -41.96 
L 87.168979 -41.96 
L 87.473982 -41.96 
L 87.778986 -41.96 
L 88.083989 -41.96 
L 88.388992 -41.96 
L 88.693996 -41.96 
L 88.998999 -41.96 
L 89.304003 -41.96 
L 89.609006 -41.96 
L 89.914009 -41.96 
L 90.219013 -41.96 
L 90.524016 -41.96 
L 90.82902 -41.96 
L 91.134023 -41.96 
L 91.439026 -41.96 
L 91.74403 -41.96 
L 92.049033 -41.96 
L 92.354037 -41.96 
L 92.65904 -41.96 
L 92.964043 -41.96 
L 93.269047 -41.96 
L 93.57405 -41.96 
L 93.879053 -41.96 
L 94.184057 -41.96 
L 94.48906 -41.96 
L 94.794064 -41.96 
L 95.099067 -41.96 
L 95.40407 -41.96 
L 95.709074 -41.96 
L 96.014077 -41.96 
L 96.319081 -41.96 
L 96.624084 -41.96 
L 96.929087 -41.96 
L 97.234091 -41.96 
L 97.539094 -41.96 
L 97.844098 -41.96 
L 98.149101 -41.96 
L 98.454104 -41.96 
L 98.759108 -41.96 
L 99.064111 -41.96 
L 99.369115 -41.96 
L 99.674118 -41.96 
L 99.979121 -41.96 
L 100.284125 -41.96 
L 100.589128 -41.96 
L 100.894132 -41.96 
L 101.199135 -41.96 
L 101.504138 -41.96 
L 101.809142 -41.96 
L 102.114145 -41.96 
L 102.419149 -41.96 
L 102.724152 -41.96 
L 103.029155 -41.96 
L 103.334159 -41.96 
L 103.639162 -41.96 
L 103.944166 -41.96 
L 104.249169 -41.96 
L 104.554172 -41.96 
L 104.859176 -41.96 
L 105.164179 -41.96 
L 105.469183 -41.96 
L 105.774186 -41.96 
L 106.079189 -41.96 
L 106.384193 -41.96 
L 106.689196 -41.96 
L 106.9942 -41.96 
L 107.299203 -41.96 
L 107.604206 -41.96 
L 107.90921 -41.96 
L 108.214213 -41.96 
L 108.519216 -41.96 
L 108.82422 -41.96 
L 109.129223 -41.96 
L 109.434227 -41.96 
L 109.73923 -41.96 
L 110.044233 -41.96 
L 110.349237 -41.96 
L 110.65424 -41.96 
L 110.959244 -41.96 
L 111.264247 -41.96 
L 111.56925 -41.96 
L 111.874254 -41.96 
L 112.179257 -41.96 
L 112.484261 -41.96 
L 112.789264 -41.96 
L 113.094267 -41.96 
L 113.399271 -41.96 
L 113.704274 -41.96 
L 114.009278 -41.96 
L 114.314281 -41.96 
L 114.619284 -41.96 
L 114.924288 -41.96 
L 115.229291 -41.96 
L 115.534295 -41.96 
L 115.839298 -41.96 
L 116.144301 -41.96 
L 116.449305 -41.96 
L 116.754308 -41.96 
L 117.059312 -41.96 
L 117.364315 -41.96 
L 117.669318 -41.96 
L 117.974322 -41.96 
L 118.279325 -41.96 
L 118.584329 -41.96 
L 118.889332 -41.96 
L 119.194335 -41.96 
L 119.499339 -41.96 
L 119.804342 -41.96 
L 120.109346 -41.96 
L 120.414349 -41.96 
L 120.719352 -41.96 
L 121.024356 -41.96 
L 121.329359 -41.96 
L 121.634362 -41.96 
L 121.939366 -41.96 
L 122.244369 -41.96 
L 122.549373 -41.96 
L 122.854376 -41.96 
L 123.159379 -41.96 
L 123.464383 -41.96 
L 123.769386 -41.96 
L 124.07439 -41.96 
L 124.379393 -41.96 
L 124.684396 -41.96 
L 124.9894 -41.96 
L 125.294403 -41.96 
L 125.599407 -41.96 
L 125.90441 -41.96 
L 126.209413 -41.96 
L 126.514417 -41.96 
L 126.81942 -41.96 
L 127.124424 -41.96 
L 127.429427 -41.96 
L 127.73443 -41.96 
L 128.039434 -41.96 
L 128.344437 -41.96 
L 128.649441 -41.96 
L 128.954444 -41.96 
L 129.259447 -41.96 
L 129.564451 -41.96 
L 129.869454 -41.96 
L 130.174458 -41.96 
L 130.479461 -41.96 
L 130.784464 -41.96 
L 131.089468 -41.96 
L 131.394471 -41.96 
L 131.699475 -41.96 
L 132.004478 -41.96 
L 132.309481 -41.96 
L 132.614485 -41.96 
L 132.614485 -41.972504 
L 132.614485 -41.972504 
L 132.309481 -41.979548 
L 132.004478 -41.989856 
L 131.699475 -42.004544 
L 131.394471 -42.024926 
L 131.089468 -42.052447 
L 130.784464 -42.088596 
L 130.479461 -42.134749 
L 130.174458 -42.191985 
L 129.869454 -42.260855 
L 129.564451 -42.341164 
L 129.259447 -42.431759 
L 128.954444 -42.530406 
L 128.649441 -42.633757 
L 128.344437 -42.737459 
L 128.039434 -42.836409 
L 127.73443 -42.925142 
L 127.429427 -42.998319 
L 127.124424 -43.051253 
L 126.81942 -43.080405 
L 126.514417 -43.083777 
L 126.209413 -43.061134 
L 125.90441 -43.014036 
L 125.599407 -42.945657 
L 125.294403 -42.860432 
L 124.9894 -42.763584 
L 124.684396 -42.660595 
L 124.379393 -42.556703 
L 124.07439 -42.456482 
L 123.769386 -42.363557 
L 123.464383 -42.28045 
L 123.159379 -42.208583 
L 122.854376 -42.148382 
L 122.549373 -42.099463 
L 122.244369 -42.060864 
L 121.939366 -42.031264 
L 121.634362 -42.009188 
L 121.329359 -41.993166 
L 121.024356 -41.981847 
L 120.719352 -41.974059 
L 120.414349 -41.968838 
L 120.109346 -41.965428 
L 119.804342 -41.963256 
L 119.499339 -41.961909 
L 119.194335 -41.961093 
L 118.889332 -41.960611 
L 118.584329 -41.960334 
L 118.279325 -41.960178 
L 117.974322 -41.960093 
L 117.669318 -41.960047 
L 117.364315 -41.960024 
L 117.059312 -41.960011 
L 116.754308 -41.960005 
L 116.449305 -41.960003 
L 116.144301 -41.960001 
L 115.839298 -41.960001 
L 115.534295 -41.96 
L 115.229291 -41.96 
L 114.924288 -41.96 
L 114.619284 -41.96 
L 114.314281 -41.96 
L 114.009278 -41.96 
L 113.704274 -41.96 
L 113.399271 -41.96 
L 113.094267 -41.96 
L 112.789264 -41.96 
L 112.484261 -41.96 
L 112.179257 -41.96 
L 111.874254 -41.96 
L 111.56925 -41.96 
L 111.264247 -41.960001 
L 110.959244 -41.960002 
L 110.65424 -41.960004 
L 110.349237 -41.960008 
L 110.044233 -41.960016 
L 109.73923 -41.960033 
L 109.434227 -41.960065 
L 109.129223 -41.960126 
L 108.82422 -41.96024 
L 108.519216 -41.960445 
L 108.214213 -41.960805 
L 107.90921 -41.961423 
L 107.604206 -41.962458 
L 107.299203 -41.964148 
L 106.9942 -41.966839 
L 106.689196 -41.971015 
L 106.384193 -41.977331 
L 106.079189 -41.98664 
L 105.774186 -42.000002 
L 105.469183 -42.01868 
L 105.164179 -42.044092 
L 104.859176 -42.077727 
L 104.554172 -42.121009 
L 104.249169 -42.175119 
L 103.944166 -42.240778 
L 103.639162 -42.318017 
L 103.334159 -42.405962 
L 103.029155 -42.502686 
L 102.724152 -42.605139 
L 102.419149 -42.709227 
L 102.114145 -42.81002 
L 101.809142 -42.902105 
L 101.504138 -42.980059 
L 101.199135 -43.038963 
L 100.894132 -43.074919 
L 100.589128 -43.085477 
L 100.284125 -43.069909 
L 99.979121 -43.029298 
L 99.674118 -42.966412 
L 99.369115 -42.885405 
L 99.064111 -42.791364 
L 98.759108 -42.689807 
L 98.454104 -42.586173 
L 98.149101 -42.485397 
L 97.844098 -42.391601 
L 97.539094 -42.307944 
L 97.234091 -42.236623 
L 96.929087 -42.178996 
L 96.624084 -42.135809 
L 96.319081 -42.107464 
L 96.014077 -42.094295 
L 95.709074 -42.096811 
L 95.40407 -42.11587 
L 95.099067 -42.152787 
L 94.794064 -42.209356 
L 94.48906 -42.287813 
L 94.184057 -42.39077 
L 93.879053 -42.52116 
L 93.57405 -42.682248 
L 93.269047 -42.877776 
L 92.964043 -43.112295 
L 92.65904 -43.391729 
L 92.354037 -43.724176 
L 92.049033 -44.120927 
L 91.74403 -44.597609 
L 91.439026 -45.175319 
L 91.134023 -45.881564 
L 90.82902 -46.750775 
L 90.524016 -47.824183 
L 90.219013 -49.148841 
L 89.914009 -50.775673 
L 89.609006 -52.756491 
L 89.304003 -55.140072 
L 88.998999 -57.967484 
L 88.693996 -61.266994 
L 88.388992 -65.048978 
L 88.083989 -69.301312 
L 87.778986 -73.985751 
L 87.473982 -79.035764 
L 87.168979 -84.356215 
L 86.863975 -89.825162 
L 86.558972 -95.297891 
L 86.253969 -100.613087 
L 85.948965 -105.600867 
L 85.643962 -110.092177 
L 85.338958 -113.928857 
L 85.033955 -116.973543 
L 84.728952 -119.118525 
L 84.423948 -120.292682 
L 84.118945 -120.465803 
L 83.813941 -119.649816 
L 83.508938 -117.89683 
L 83.203935 -115.29421 
L 82.898931 -111.957304 
L 82.593928 -108.020641 
L 82.288924 -103.628596 
L 81.983921 -98.926469 
L 81.678918 -94.052773 
L 81.373914 -89.133283 
L 81.068911 -84.277072 
L 80.763907 -79.574475 
L 80.458904 -75.096719 
L 80.153901 -70.896785 
L 79.848897 -67.011067 
L 79.543894 -63.461437 
L 79.23889 -60.257403 
L 78.933887 -57.398207 
L 78.628884 -54.874761 
L 78.32388 -52.671422 
L 78.018877 -50.767623 
L 77.713874 -49.139375 
L 77.40887 -47.76063 
L 77.103867 -46.604514 
L 76.798863 -45.644354 
L 76.49386 -44.854514 
L 76.188857 -44.211 
L 75.883853 -43.691839 
L 75.57885 -43.27728 
L 75.273846 -42.949827 
L 74.968843 -42.694173 
L 74.66384 -42.497068 
L 74.358836 -42.347152 
L 74.053833 -42.234783 
L 73.748829 -42.151868 
L 73.443826 -42.091701 
L 73.138823 -42.048806 
L 72.833819 -42.018787 
L 72.528816 -41.998181 
L 72.223812 -41.984317 
L 71.918809 -41.97518 
z
" style="stroke: #d62728"/>
    </defs>
    <g clip-path="url(#pf68b9dd43b)">
     <use xlink:href="#me8970a2da8" x="0" y="216" style="fill: #d62728; fill-opacity: 0.25; stroke: #d62728"/>
    </g>
   </g>
   <g id="PolyCollection_2">
    <defs>
     <path id="mad5175c86c" d="M 49.090909 -42.012136 
L 49.090909 -41.96 
L 49.164275 -41.96 
L 49.237641 -41.96 
L 49.311006 -41.96 
L 49.384372 -41.96 
L 49.457738 -41.96 
L 49.531103 -41.96 
L 49.604469 -41.96 
L 49.677835 -41.96 
L 49.751201 -41.96 
L 49.824566 -41.96 
L 49.897932 -41.96 
L 49.971298 -41.96 
L 50.044664 -41.96 
L 50.118029 -41.96 
L 50.191395 -41.96 
L 50.264761 -41.96 
L 50.338126 -41.96 
L 50.411492 -41.96 
L 50.484858 -41.96 
L 50.558224 -41.96 
L 50.631589 -41.96 
L 50.704955 -41.96 
L 50.778321 -41.96 
L 50.851687 -41.96 
L 50.925052 -41.96 
L 50.998418 -41.96 
L 51.071784 -41.96 
L 51.145149 -41.96 
L 51.218515 -41.96 
L 51.291881 -41.96 
L 51.365247 -41.96 
L 51.438612 -41.96 
L 51.511978 -41.96 
L 51.585344 -41.96 
L 51.65871 -41.96 
L 51.732075 -41.96 
L 51.805441 -41.96 
L 51.878807 -41.96 
L 51.952173 -41.96 
L 52.025538 -41.96 
L 52.098904 -41.96 
L 52.17227 -41.96 
L 52.245635 -41.96 
L 52.319001 -41.96 
L 52.392367 -41.96 
L 52.465733 -41.96 
L 52.539098 -41.96 
L 52.612464 -41.96 
L 52.68583 -41.96 
L 52.759196 -41.96 
L 52.832561 -41.96 
L 52.905927 -41.96 
L 52.979293 -41.96 
L 53.052658 -41.96 
L 53.126024 -41.96 
L 53.19939 -41.96 
L 53.272756 -41.96 
L 53.346121 -41.96 
L 53.419487 -41.96 
L 53.492853 -41.96 
L 53.566219 -41.96 
L 53.639584 -41.96 
L 53.71295 -41.96 
L 53.786316 -41.96 
L 53.859681 -41.96 
L 53.933047 -41.96 
L 54.006413 -41.96 
L 54.079779 -41.96 
L 54.153144 -41.96 
L 54.22651 -41.96 
L 54.299876 -41.96 
L 54.373242 -41.96 
L 54.446607 -41.96 
L 54.519973 -41.96 
L 54.593339 -41.96 
L 54.666704 -41.96 
L 54.74007 -41.96 
L 54.813436 -41.96 
L 54.886802 -41.96 
L 54.960167 -41.96 
L 55.033533 -41.96 
L 55.106899 -41.96 
L 55.180265 -41.96 
L 55.25363 -41.96 
L 55.326996 -41.96 
L 55.400362 -41.96 
L 55.473727 -41.96 
L 55.547093 -41.96 
L 55.620459 -41.96 
L 55.693825 -41.96 
L 55.76719 -41.96 
L 55.840556 -41.96 
L 55.913922 -41.96 
L 55.987288 -41.96 
L 56.060653 -41.96 
L 56.134019 -41.96 
L 56.207385 -41.96 
L 56.28075 -41.96 
L 56.354116 -41.96 
L 56.427482 -41.96 
L 56.500848 -41.96 
L 56.574213 -41.96 
L 56.647579 -41.96 
L 56.720945 -41.96 
L 56.794311 -41.96 
L 56.867676 -41.96 
L 56.941042 -41.96 
L 57.014408 -41.96 
L 57.087773 -41.96 
L 57.161139 -41.96 
L 57.234505 -41.96 
L 57.307871 -41.96 
L 57.381236 -41.96 
L 57.454602 -41.96 
L 57.527968 -41.96 
L 57.601334 -41.96 
L 57.674699 -41.96 
L 57.748065 -41.96 
L 57.821431 -41.96 
L 57.894797 -41.96 
L 57.968162 -41.96 
L 58.041528 -41.96 
L 58.114894 -41.96 
L 58.188259 -41.96 
L 58.261625 -41.96 
L 58.334991 -41.96 
L 58.408357 -41.96 
L 58.481722 -41.96 
L 58.555088 -41.96 
L 58.628454 -41.96 
L 58.70182 -41.96 
L 58.775185 -41.96 
L 58.848551 -41.96 
L 58.921917 -41.96 
L 58.995282 -41.96 
L 59.068648 -41.96 
L 59.142014 -41.96 
L 59.21538 -41.96 
L 59.288745 -41.96 
L 59.362111 -41.96 
L 59.435477 -41.96 
L 59.508843 -41.96 
L 59.582208 -41.96 
L 59.655574 -41.96 
L 59.72894 -41.96 
L 59.802305 -41.96 
L 59.875671 -41.96 
L 59.949037 -41.96 
L 60.022403 -41.96 
L 60.095768 -41.96 
L 60.169134 -41.96 
L 60.2425 -41.96 
L 60.315866 -41.96 
L 60.389231 -41.96 
L 60.462597 -41.96 
L 60.535963 -41.96 
L 60.609328 -41.96 
L 60.682694 -41.96 
L 60.75606 -41.96 
L 60.829426 -41.96 
L 60.902791 -41.96 
L 60.976157 -41.96 
L 61.049523 -41.96 
L 61.122889 -41.96 
L 61.196254 -41.96 
L 61.26962 -41.96 
L 61.342986 -41.96 
L 61.416351 -41.96 
L 61.489717 -41.96 
L 61.563083 -41.96 
L 61.636449 -41.96 
L 61.709814 -41.96 
L 61.78318 -41.96 
L 61.856546 -41.96 
L 61.929912 -41.96 
L 62.003277 -41.96 
L 62.076643 -41.96 
L 62.150009 -41.96 
L 62.223374 -41.96 
L 62.29674 -41.96 
L 62.370106 -41.96 
L 62.443472 -41.96 
L 62.516837 -41.96 
L 62.590203 -41.96 
L 62.663569 -41.96 
L 62.736935 -41.96 
L 62.8103 -41.96 
L 62.883666 -41.96 
L 62.957032 -41.96 
L 63.030398 -41.96 
L 63.103763 -41.96 
L 63.177129 -41.96 
L 63.250495 -41.96 
L 63.32386 -41.96 
L 63.397226 -41.96 
L 63.470592 -41.96 
L 63.543958 -41.96 
L 63.617323 -41.96 
L 63.690689 -41.96 
L 63.690689 -41.992402 
L 63.690689 -41.992402 
L 63.617323 -42.002905 
L 63.543958 -42.01631 
L 63.470592 -42.033253 
L 63.397226 -42.054456 
L 63.32386 -42.08073 
L 63.250495 -42.112965 
L 63.177129 -42.152125 
L 63.103763 -42.199223 
L 63.030398 -42.255309 
L 62.957032 -42.321434 
L 62.883666 -42.398623 
L 62.8103 -42.487836 
L 62.736935 -42.589931 
L 62.663569 -42.705627 
L 62.590203 -42.835468 
L 62.516837 -42.979795 
L 62.443472 -43.138726 
L 62.370106 -43.312149 
L 62.29674 -43.49973 
L 62.223374 -43.700937 
L 62.150009 -43.915078 
L 62.076643 -44.141361 
L 62.003277 -44.378966 
L 61.929912 -44.627126 
L 61.856546 -44.885218 
L 61.78318 -45.152851 
L 61.709814 -45.42995 
L 61.636449 -45.716827 
L 61.563083 -46.014229 
L 61.489717 -46.323366 
L 61.416351 -46.645902 
L 61.342986 -46.98392 
L 61.26962 -47.33985 
L 61.196254 -47.716368 
L 61.122889 -48.116266 
L 61.049523 -48.5423 
L 60.976157 -48.997033 
L 60.902791 -49.482655 
L 60.829426 -50.000828 
L 60.75606 -50.552523 
L 60.682694 -51.137885 
L 60.609328 -51.756126 
L 60.535963 -52.405435 
L 60.462597 -53.082932 
L 60.389231 -53.784646 
L 60.315866 -54.505531 
L 60.2425 -55.239509 
L 60.169134 -55.979547 
L 60.095768 -56.717757 
L 60.022403 -57.445528 
L 59.949037 -58.153678 
L 59.875671 -58.832629 
L 59.802305 -59.472606 
L 59.72894 -60.063852 
L 59.655574 -60.596853 
L 59.582208 -61.06259 
L 59.508843 -61.452774 
L 59.435477 -61.760101 
L 59.362111 -61.978479 
L 59.288745 -62.103248 
L 59.21538 -62.131359 
L 59.142014 -62.061525 
L 59.068648 -61.894314 
L 58.995282 -61.632194 
L 58.921917 -61.279516 
L 58.848551 -60.842439 
L 58.775185 -60.328795 
L 58.70182 -59.747908 
L 58.628454 -59.110364 
L 58.555088 -58.427753 
L 58.481722 -57.712394 
L 58.408357 -56.977058 
L 58.334991 -56.234691 
L 58.261625 -55.498175 
L 58.188259 -54.780117 
L 58.114894 -54.092678 
L 58.041528 -53.447464 
L 57.968162 -52.855456 
L 57.894797 -52.327006 
L 57.821431 -51.871875 
L 57.748065 -51.499317 
L 57.674699 -51.218195 
L 57.601334 -51.037129 
L 57.527968 -50.964646 
L 57.454602 -51.00934 
L 57.381236 -51.180013 
L 57.307871 -51.485801 
L 57.234505 -51.936254 
L 57.161139 -52.541383 
L 57.087773 -53.311658 
L 57.014408 -54.257942 
L 56.941042 -55.391383 
L 56.867676 -56.723246 
L 56.794311 -58.264698 
L 56.720945 -60.026548 
L 56.647579 -62.018954 
L 56.574213 -64.251105 
L 56.500848 -66.730884 
L 56.427482 -69.46453 
L 56.354116 -72.456308 
L 56.28075 -75.708187 
L 56.207385 -79.219553 
L 56.134019 -82.986951 
L 56.060653 -87.003873 
L 55.987288 -91.260593 
L 55.913922 -95.744068 
L 55.840556 -100.437888 
L 55.76719 -105.322307 
L 55.693825 -110.37434 
L 55.620459 -115.567933 
L 55.547093 -120.874204 
L 55.473727 -126.261754 
L 55.400362 -131.697034 
L 55.326996 -137.144764 
L 55.25363 -142.568381 
L 55.180265 -147.930509 
L 55.106899 -153.193425 
L 55.033533 -158.319499 
L 54.960167 -163.271602 
L 54.886802 -168.013461 
L 54.813436 -172.50995 
L 54.74007 -176.727322 
L 54.666704 -180.633383 
L 54.593339 -184.197629 
L 54.519973 -187.391348 
L 54.446607 -190.18773 
L 54.373242 -192.562008 
L 54.299876 -194.491638 
L 54.22651 -195.956564 
L 54.153144 -196.93956 
L 54.079779 -197.426667 
L 54.006413 -197.407694 
L 53.933047 -196.87679 
L 53.859681 -195.83302 
L 53.786316 -194.280918 
L 53.71295 -192.230962 
L 53.639584 -189.699913 
L 53.566219 -186.710971 
L 53.492853 -183.2937 
L 53.419487 -179.483704 
L 53.346121 -175.322033 
L 53.272756 -170.854335 
L 53.19939 -166.129772 
L 53.126024 -161.199765 
L 53.052658 -156.11661 
L 52.979293 -150.932057 
L 52.905927 -145.695923 
L 52.832561 -140.454814 
L 52.759196 -135.251034 
L 52.68583 -130.121732 
L 52.612464 -125.098324 
L 52.539098 -120.206221 
L 52.465733 -115.464841 
L 52.392367 -110.887906 
L 52.319001 -106.483965 
L 52.245635 -102.257101 
L 52.17227 -98.207755 
L 52.098904 -94.333609 
L 52.025538 -90.630462 
L 51.952173 -87.093048 
L 51.878807 -83.715742 
L 51.805441 -80.49314 
L 51.732075 -77.420472 
L 51.65871 -74.493871 
L 51.585344 -71.710474 
L 51.511978 -69.068405 
L 51.438612 -66.566638 
L 51.365247 -64.204784 
L 51.291881 -61.982829 
L 51.218515 -59.900852 
L 51.145149 -57.958745 
L 51.071784 -56.155966 
L 50.998418 -54.491327 
L 50.925052 -52.962845 
L 50.851687 -51.567644 
L 50.778321 -50.301917 
L 50.704955 -49.160945 
L 50.631589 -48.139155 
L 50.558224 -47.230229 
L 50.484858 -46.427232 
L 50.411492 -45.722757 
L 50.338126 -45.10909 
L 50.264761 -44.578357 
L 50.191395 -44.122686 
L 50.118029 -43.734335 
L 50.044664 -43.405818 
L 49.971298 -43.130001 
L 49.897932 -42.900186 
L 49.824566 -42.710166 
L 49.751201 -42.554264 
L 49.677835 -42.42735 
L 49.604469 -42.324847 
L 49.531103 -42.242715 
L 49.457738 -42.177432 
L 49.384372 -42.12596 
L 49.311006 -42.085705 
L 49.237641 -42.054481 
L 49.164275 -42.030461 
L 49.090909 -42.012136 
z
" style="stroke: #2ca02c"/>
    </defs>
    <g clip-path="url(#pf68b9dd43b)">
     <use xlink:href="#mad5175c86c" x="0" y="216" style="fill: #2ca02c; fill-opacity: 0.25; stroke: #2ca02c"/>
    </g>
   </g>
   <g id="PolyCollection_3">
    <defs>
     <path id="m8c109521e5" d="M 210.400299 -42.047394 
L 210.400299 -41.96 
L 210.489934 -41.96 
L 210.579569 -41.96 
L 210.669204 -41.96 
L 210.758839 -41.96 
L 210.848473 -41.96 
L 210.938108 -41.96 
L 211.027743 -41.96 
L 211.117378 -41.96 
L 211.207013 -41.96 
L 211.296648 -41.96 
L 211.386283 -41.96 
L 211.475918 -41.96 
L 211.565553 -41.96 
L 211.655188 -41.96 
L 211.744823 -41.96 
L 211.834458 -41.96 
L 211.924093 -41.96 
L 212.013728 -41.96 
L 212.103362 -41.96 
L 212.192997 -41.96 
L 212.282632 -41.96 
L 212.372267 -41.96 
L 212.461902 -41.96 
L 212.551537 -41.96 
L 212.641172 -41.96 
L 212.730807 -41.96 
L 212.820442 -41.96 
L 212.910077 -41.96 
L 212.999712 -41.96 
L 213.089347 -41.96 
L 213.178982 -41.96 
L 213.268617 -41.96 
L 213.358251 -41.96 
L 213.447886 -41.96 
L 213.537521 -41.96 
L 213.627156 -41.96 
L 213.716791 -41.96 
L 213.806426 -41.96 
L 213.896061 -41.96 
L 213.985696 -41.96 
L 214.075331 -41.96 
L 214.164966 -41.96 
L 214.254601 -41.96 
L 214.344236 -41.96 
L 214.433871 -41.96 
L 214.523506 -41.96 
L 214.61314 -41.96 
L 214.702775 -41.96 
L 214.79241 -41.96 
L 214.882045 -41.96 
L 214.97168 -41.96 
L 215.061315 -41.96 
L 215.15095 -41.96 
L 215.240585 -41.96 
L 215.33022 -41.96 
L 215.419855 -41.96 
L 215.50949 -41.96 
L 215.599125 -41.96 
L 215.68876 -41.96 
L 215.778395 -41.96 
L 215.86803 -41.96 
L 215.957664 -41.96 
L 216.047299 -41.96 
L 216.136934 -41.96 
L 216.226569 -41.96 
L 216.316204 -41.96 
L 216.405839 -41.96 
L 216.495474 -41.96 
L 216.585109 -41.96 
L 216.674744 -41.96 
L 216.764379 -41.96 
L 216.854014 -41.96 
L 216.943649 -41.96 
L 217.033284 -41.96 
L 217.122919 -41.96 
L 217.212553 -41.96 
L 217.302188 -41.96 
L 217.391823 -41.96 
L 217.481458 -41.96 
L 217.571093 -41.96 
L 217.660728 -41.96 
L 217.750363 -41.96 
L 217.839998 -41.96 
L 217.929633 -41.96 
L 218.019268 -41.96 
L 218.108903 -41.96 
L 218.198538 -41.96 
L 218.288173 -41.96 
L 218.377808 -41.96 
L 218.467442 -41.96 
L 218.557077 -41.96 
L 218.646712 -41.96 
L 218.736347 -41.96 
L 218.825982 -41.96 
L 218.915617 -41.96 
L 219.005252 -41.96 
L 219.094887 -41.96 
L 219.184522 -41.96 
L 219.274157 -41.96 
L 219.363792 -41.96 
L 219.453427 -41.96 
L 219.543062 -41.96 
L 219.632697 -41.96 
L 219.722331 -41.96 
L 219.811966 -41.96 
L 219.901601 -41.96 
L 219.991236 -41.96 
L 220.080871 -41.96 
L 220.170506 -41.96 
L 220.260141 -41.96 
L 220.349776 -41.96 
L 220.439411 -41.96 
L 220.529046 -41.96 
L 220.618681 -41.96 
L 220.708316 -41.96 
L 220.797951 -41.96 
L 220.887586 -41.96 
L 220.97722 -41.96 
L 221.066855 -41.96 
L 221.15649 -41.96 
L 221.246125 -41.96 
L 221.33576 -41.96 
L 221.425395 -41.96 
L 221.51503 -41.96 
L 221.604665 -41.96 
L 221.6943 -41.96 
L 221.783935 -41.96 
L 221.87357 -41.96 
L 221.963205 -41.96 
L 222.05284 -41.96 
L 222.142475 -41.96 
L 222.232109 -41.96 
L 222.321744 -41.96 
L 222.411379 -41.96 
L 222.501014 -41.96 
L 222.590649 -41.96 
L 222.680284 -41.96 
L 222.769919 -41.96 
L 222.859554 -41.96 
L 222.949189 -41.96 
L 223.038824 -41.96 
L 223.128459 -41.96 
L 223.218094 -41.96 
L 223.307729 -41.96 
L 223.397364 -41.96 
L 223.486998 -41.96 
L 223.576633 -41.96 
L 223.666268 -41.96 
L 223.755903 -41.96 
L 223.845538 -41.96 
L 223.935173 -41.96 
L 224.024808 -41.96 
L 224.114443 -41.96 
L 224.204078 -41.96 
L 224.293713 -41.96 
L 224.383348 -41.96 
L 224.472983 -41.96 
L 224.562618 -41.96 
L 224.652253 -41.96 
L 224.741887 -41.96 
L 224.831522 -41.96 
L 224.921157 -41.96 
L 225.010792 -41.96 
L 225.100427 -41.96 
L 225.190062 -41.96 
L 225.279697 -41.96 
L 225.369332 -41.96 
L 225.458967 -41.96 
L 225.548602 -41.96 
L 225.638237 -41.96 
L 225.727872 -41.96 
L 225.817507 -41.96 
L 225.907142 -41.96 
L 225.996777 -41.96 
L 226.086411 -41.96 
L 226.176046 -41.96 
L 226.265681 -41.96 
L 226.355316 -41.96 
L 226.444951 -41.96 
L 226.534586 -41.96 
L 226.624221 -41.96 
L 226.713856 -41.96 
L 226.803491 -41.96 
L 226.893126 -41.96 
L 226.982761 -41.96 
L 227.072396 -41.96 
L 227.162031 -41.96 
L 227.251666 -41.96 
L 227.3413 -41.96 
L 227.430935 -41.96 
L 227.52057 -41.96 
L 227.610205 -41.96 
L 227.69984 -41.96 
L 227.789475 -41.96 
L 227.87911 -41.96 
L 227.968745 -41.96 
L 228.05838 -41.96 
L 228.148015 -41.96 
L 228.23765 -41.96 
L 228.23765 -41.986889 
L 228.23765 -41.986889 
L 228.148015 -41.995759 
L 228.05838 -42.007114 
L 227.968745 -42.021498 
L 227.87911 -42.039528 
L 227.789475 -42.06189 
L 227.69984 -42.089327 
L 227.610205 -42.122628 
L 227.52057 -42.162605 
L 227.430935 -42.210066 
L 227.3413 -42.265778 
L 227.251666 -42.33043 
L 227.162031 -42.404585 
L 227.072396 -42.488631 
L 226.982761 -42.582727 
L 226.893126 -42.686762 
L 226.803491 -42.8003 
L 226.713856 -42.922555 
L 226.624221 -43.052358 
L 226.534586 -43.188154 
L 226.444951 -43.32801 
L 226.355316 -43.469643 
L 226.265681 -43.61047 
L 226.176046 -43.747679 
L 226.086411 -43.878315 
L 225.996777 -43.999385 
L 225.907142 -44.107965 
L 225.817507 -44.201322 
L 225.727872 -44.277024 
L 225.638237 -44.333048 
L 225.548602 -44.367871 
L 225.458967 -44.380535 
L 225.369332 -44.370701 
L 225.279697 -44.338656 
L 225.190062 -44.28531 
L 225.100427 -44.212156 
L 225.010792 -44.121203 
L 224.921157 -44.014896 
L 224.831522 -43.896017 
L 224.741887 -43.76758 
L 224.652253 -43.632721 
L 224.562618 -43.494601 
L 224.472983 -43.356312 
L 224.383348 -43.220808 
L 224.293713 -43.090854 
L 224.204078 -42.968994 
L 224.114443 -42.857551 
L 224.024808 -42.758645 
L 223.935173 -42.674234 
L 223.845538 -42.606173 
L 223.755903 -42.556289 
L 223.666268 -42.526462 
L 223.576633 -42.518713 
L 223.486998 -42.535293 
L 223.397364 -42.578764 
L 223.307729 -42.652076 
L 223.218094 -42.758631 
L 223.128459 -42.902328 
L 223.038824 -43.087601 
L 222.949189 -43.319436 
L 222.859554 -43.603375 
L 222.769919 -43.945509 
L 222.680284 -44.352454 
L 222.590649 -44.831327 
L 222.501014 -45.389713 
L 222.411379 -46.035626 
L 222.321744 -46.777475 
L 222.232109 -47.624026 
L 222.142475 -48.584358 
L 222.05284 -49.667823 
L 221.963205 -50.883989 
L 221.87357 -52.242566 
L 221.783935 -53.753311 
L 221.6943 -55.425901 
L 221.604665 -57.269754 
L 221.51503 -59.293817 
L 221.425395 -61.506282 
L 221.33576 -63.914259 
L 221.246125 -66.523391 
L 221.15649 -69.337418 
L 221.066855 -72.35771 
L 220.97722 -75.582785 
L 220.887586 -79.007828 
L 220.797951 -82.624239 
L 220.708316 -86.419243 
L 220.618681 -90.375583 
L 220.529046 -94.471323 
L 220.439411 -98.679797 
L 220.349776 -102.969704 
L 220.260141 -107.30538 
L 220.170506 -111.647243 
L 220.080871 -115.952418 
L 219.991236 -120.175516 
L 219.901601 -124.269565 
L 219.811966 -128.187063 
L 219.722331 -131.881107 
L 219.632697 -135.306574 
L 219.543062 -138.421305 
L 219.453427 -141.187244 
L 219.363792 -143.571489 
L 219.274157 -145.547212 
L 219.184522 -147.094408 
L 219.094887 -148.200437 
L 219.005252 -148.860342 
L 218.915617 -149.076923 
L 218.825982 -148.860556 
L 218.736347 -148.228786 
L 218.646712 -147.205692 
L 218.557077 -145.821059 
L 218.467442 -144.109404 
L 218.377808 -142.108888 
L 218.288173 -139.860173 
L 218.198538 -137.405269 
L 218.108903 -134.786418 
L 218.019268 -132.045061 
L 217.929633 -129.220933 
L 217.839998 -126.351295 
L 217.750363 -123.470346 
L 217.660728 -120.608807 
L 217.571093 -117.793684 
L 217.481458 -115.048206 
L 217.391823 -112.391905 
L 217.302188 -109.840837 
L 217.212553 -107.407896 
L 217.122919 -105.103209 
L 217.033284 -102.934571 
L 216.943649 -100.90789 
L 216.854014 -99.027624 
L 216.764379 -97.297169 
L 216.674744 -95.719194 
L 216.585109 -94.295889 
L 216.495474 -93.029122 
L 216.405839 -91.920505 
L 216.316204 -90.971346 
L 216.226569 -90.182519 
L 216.136934 -89.554233 
L 216.047299 -89.085742 
L 215.957664 -88.775001 
L 215.86803 -88.618289 
L 215.778395 -88.609844 
L 215.68876 -88.741521 
L 215.599125 -89.002512 
L 215.50949 -89.379147 
L 215.419855 -89.854816 
L 215.33022 -90.409996 
L 215.240585 -91.022438 
L 215.15095 -91.667475 
L 215.061315 -92.318469 
L 214.97168 -92.947385 
L 214.882045 -93.525456 
L 214.79241 -94.023925 
L 214.702775 -94.414828 
L 214.61314 -94.671789 
L 214.523506 -94.770784 
L 214.433871 -94.690852 
L 214.344236 -94.414722 
L 214.254601 -93.929315 
L 214.164966 -93.226135 
L 214.075331 -92.301499 
L 213.985696 -91.15663 
L 213.896061 -89.797586 
L 213.806426 -88.235063 
L 213.716791 -86.484041 
L 213.627156 -84.563331 
L 213.537521 -82.495007 
L 213.447886 -80.303764 
L 213.358251 -78.016219 
L 213.268617 -75.66018 
L 213.178982 -73.263902 
L 213.089347 -70.855369 
L 212.999712 -68.461605 
L 212.910077 -66.108053 
L 212.820442 -63.818029 
L 212.730807 -61.61227 
L 212.641172 -59.50859 
L 212.551537 -57.521642 
L 212.461902 -55.662799 
L 212.372267 -53.94014 
L 212.282632 -52.358541 
L 212.192997 -50.91986 
L 212.103362 -49.623198 
L 212.013728 -48.465216 
L 211.924093 -47.440506 
L 211.834458 -46.541972 
L 211.744823 -45.76123 
L 211.655188 -45.088991 
L 211.565553 -44.515421 
L 211.475918 -44.030476 
L 211.386283 -43.624178 
L 211.296648 -43.28686 
L 211.207013 -43.009353 
L 211.117378 -42.783125 
L 211.027743 -42.600376 
L 210.938108 -42.454092 
L 210.848473 -42.338064 
L 210.758839 -42.246872 
L 210.669204 -42.175852 
L 210.579569 -42.121048 
L 210.489934 -42.079143 
L 210.400299 -42.047394 
z
" style="stroke: #ff7f0e"/>
    </defs>
    <g clip-path="url(#pf68b9dd43b)">
     <use xlink:href="#m8c109521e5" x="0" y="216" style="fill: #ff7f0e; fill-opacity: 0.25; stroke: #ff7f0e"/>
    </g>
   </g>
   <g id="PolyCollection_4">
    <defs>
     <path id="m9867b1c5c1" d="M 582.036242 -41.967517 
L 582.036242 -41.96 
L 583.206457 -41.96 
L 584.376673 -41.96 
L 585.546888 -41.96 
L 586.717103 -41.96 
L 587.887319 -41.96 
L 589.057534 -41.96 
L 590.227749 -41.96 
L 591.397964 -41.96 
L 592.56818 -41.96 
L 593.738395 -41.96 
L 594.90861 -41.96 
L 596.078826 -41.96 
L 597.249041 -41.96 
L 598.419256 -41.96 
L 599.589472 -41.96 
L 600.759687 -41.96 
L 601.929902 -41.96 
L 603.100118 -41.96 
L 604.270333 -41.96 
L 605.440548 -41.96 
L 606.610764 -41.96 
L 607.780979 -41.96 
L 608.951194 -41.96 
L 610.12141 -41.96 
L 611.291625 -41.96 
L 612.46184 -41.96 
L 613.632056 -41.96 
L 614.802271 -41.96 
L 615.972486 -41.96 
L 617.142702 -41.96 
L 618.312917 -41.96 
L 619.483132 -41.96 
L 620.653348 -41.96 
L 621.823563 -41.96 
L 622.993778 -41.96 
L 624.163993 -41.96 
L 625.334209 -41.96 
L 626.504424 -41.96 
L 627.674639 -41.96 
L 628.844855 -41.96 
L 630.01507 -41.96 
L 631.185285 -41.96 
L 632.355501 -41.96 
L 633.525716 -41.96 
L 634.695931 -41.96 
L 635.866147 -41.96 
L 637.036362 -41.96 
L 638.206577 -41.96 
L 639.376793 -41.96 
L 640.547008 -41.96 
L 641.717223 -41.96 
L 642.887439 -41.96 
L 644.057654 -41.96 
L 645.227869 -41.96 
L 646.398085 -41.96 
L 647.5683 -41.96 
L 648.738515 -41.96 
L 649.908731 -41.96 
L 651.078946 -41.96 
L 652.249161 -41.96 
L 653.419377 -41.96 
L 654.589592 -41.96 
L 655.759807 -41.96 
L 656.930022 -41.96 
L 658.100238 -41.96 
L 659.270453 -41.96 
L 660.440668 -41.96 
L 661.610884 -41.96 
L 662.781099 -41.96 
L 663.951314 -41.96 
L 665.12153 -41.96 
L 666.291745 -41.96 
L 667.46196 -41.96 
L 668.632176 -41.96 
L 669.802391 -41.96 
L 670.972606 -41.96 
L 672.142822 -41.96 
L 673.313037 -41.96 
L 674.483252 -41.96 
L 675.653468 -41.96 
L 676.823683 -41.96 
L 677.993898 -41.96 
L 679.164114 -41.96 
L 680.334329 -41.96 
L 681.504544 -41.96 
L 682.67476 -41.96 
L 683.844975 -41.96 
L 685.01519 -41.96 
L 686.185406 -41.96 
L 687.355621 -41.96 
L 688.525836 -41.96 
L 689.696052 -41.96 
L 690.866267 -41.96 
L 692.036482 -41.96 
L 693.206697 -41.96 
L 694.376913 -41.96 
L 695.547128 -41.96 
L 696.717343 -41.96 
L 697.887559 -41.96 
L 699.057774 -41.96 
L 700.227989 -41.96 
L 701.398205 -41.96 
L 702.56842 -41.96 
L 703.738635 -41.96 
L 704.908851 -41.96 
L 706.079066 -41.96 
L 707.249281 -41.96 
L 708.419497 -41.96 
L 709.589712 -41.96 
L 710.759927 -41.96 
L 711.930143 -41.96 
L 713.100358 -41.96 
L 714.270573 -41.96 
L 715.440789 -41.96 
L 716.611004 -41.96 
L 717.781219 -41.96 
L 718.951435 -41.96 
L 720.12165 -41.96 
L 721.291865 -41.96 
L 722.462081 -41.96 
L 723.632296 -41.96 
L 724.802511 -41.96 
L 725.972726 -41.96 
L 727.142942 -41.96 
L 728.313157 -41.96 
L 729.483372 -41.96 
L 730.653588 -41.96 
L 731.823803 -41.96 
L 732.994018 -41.96 
L 734.164234 -41.96 
L 735.334449 -41.96 
L 736.504664 -41.96 
L 737.67488 -41.96 
L 738.845095 -41.96 
L 740.01531 -41.96 
L 741.185526 -41.96 
L 742.355741 -41.96 
L 743.525956 -41.96 
L 744.696172 -41.96 
L 745.866387 -41.96 
L 747.036602 -41.96 
L 748.206818 -41.96 
L 749.377033 -41.96 
L 750.547248 -41.96 
L 751.717464 -41.96 
L 752.887679 -41.96 
L 754.057894 -41.96 
L 755.22811 -41.96 
L 756.398325 -41.96 
L 757.56854 -41.96 
L 758.738755 -41.96 
L 759.908971 -41.96 
L 761.079186 -41.96 
L 762.249401 -41.96 
L 763.419617 -41.96 
L 764.589832 -41.96 
L 765.760047 -41.96 
L 766.930263 -41.96 
L 768.100478 -41.96 
L 769.270693 -41.96 
L 770.440909 -41.96 
L 771.611124 -41.96 
L 772.781339 -41.96 
L 773.951555 -41.96 
L 775.12177 -41.96 
L 776.291985 -41.96 
L 777.462201 -41.96 
L 778.632416 -41.96 
L 779.802631 -41.96 
L 780.972847 -41.96 
L 782.143062 -41.96 
L 783.313277 -41.96 
L 784.483493 -41.96 
L 785.653708 -41.96 
L 786.823923 -41.96 
L 787.994139 -41.96 
L 789.164354 -41.96 
L 790.334569 -41.96 
L 791.504784 -41.96 
L 792.675 -41.96 
L 793.845215 -41.96 
L 795.01543 -41.96 
L 796.185646 -41.96 
L 797.355861 -41.96 
L 798.526076 -41.96 
L 799.696292 -41.96 
L 800.866507 -41.96 
L 802.036722 -41.96 
L 803.206938 -41.96 
L 804.377153 -41.96 
L 805.547368 -41.96 
L 806.717584 -41.96 
L 807.887799 -41.96 
L 809.058014 -41.96 
L 810.22823 -41.96 
L 811.398445 -41.96 
L 812.56866 -41.96 
L 813.738876 -41.96 
L 814.909091 -41.96 
L 814.909091 -41.962597 
L 814.909091 -41.962597 
L 813.738876 -41.963358 
L 812.56866 -41.964315 
L 811.398445 -41.965514 
L 810.22823 -41.967005 
L 809.058014 -41.968848 
L 807.887799 -41.971112 
L 806.717584 -41.973878 
L 805.547368 -41.977235 
L 804.377153 -41.981287 
L 803.206938 -41.986148 
L 802.036722 -41.991948 
L 800.866507 -41.998828 
L 799.696292 -42.006943 
L 798.526076 -42.016463 
L 797.355861 -42.027572 
L 796.185646 -42.040464 
L 795.01543 -42.055349 
L 793.845215 -42.072447 
L 792.675 -42.091988 
L 791.504784 -42.114213 
L 790.334569 -42.139368 
L 789.164354 -42.167706 
L 787.994139 -42.199482 
L 786.823923 -42.234954 
L 785.653708 -42.274375 
L 784.483493 -42.317996 
L 783.313277 -42.366057 
L 782.143062 -42.418788 
L 780.972847 -42.476405 
L 779.802631 -42.5391 
L 778.632416 -42.607046 
L 777.462201 -42.680387 
L 776.291985 -42.759233 
L 775.12177 -42.843661 
L 773.951555 -42.933707 
L 772.781339 -43.029362 
L 771.611124 -43.130575 
L 770.440909 -43.237244 
L 769.270693 -43.349221 
L 768.100478 -43.466309 
L 766.930263 -43.588266 
L 765.760047 -43.714806 
L 764.589832 -43.845608 
L 763.419617 -43.980317 
L 762.249401 -44.118555 
L 761.079186 -44.259932 
L 759.908971 -44.404049 
L 758.738755 -44.550514 
L 757.56854 -44.698946 
L 756.398325 -44.848991 
L 755.22811 -45.000319 
L 754.057894 -45.152638 
L 752.887679 -45.305694 
L 751.717464 -45.459269 
L 750.547248 -45.61318 
L 749.377033 -45.767268 
L 748.206818 -45.921397 
L 747.036602 -46.075431 
L 745.866387 -46.229226 
L 744.696172 -46.382609 
L 743.525956 -46.535366 
L 742.355741 -46.687216 
L 741.185526 -46.837805 
L 740.01531 -46.986685 
L 738.845095 -47.133306 
L 737.67488 -47.277013 
L 736.504664 -47.417042 
L 735.334449 -47.552525 
L 734.164234 -47.682504 
L 732.994018 -47.805943 
L 731.823803 -47.921754 
L 730.653588 -48.028822 
L 729.483372 -48.126034 
L 728.313157 -48.212314 
L 727.142942 -48.286655 
L 725.972726 -48.348153 
L 724.802511 -48.396041 
L 723.632296 -48.429716 
L 722.462081 -48.448763 
L 721.291865 -48.452974 
L 720.12165 -48.442364 
L 718.951435 -48.41717 
L 717.781219 -48.377858 
L 716.611004 -48.32511 
L 715.440789 -48.259808 
L 714.270573 -48.183021 
L 713.100358 -48.095971 
L 711.930143 -48.000011 
L 710.759927 -47.896586 
L 709.589712 -47.787205 
L 708.419497 -47.673403 
L 707.249281 -47.556708 
L 706.079066 -47.438605 
L 704.908851 -47.320509 
L 703.738635 -47.203734 
L 702.56842 -47.089468 
L 701.398205 -46.978754 
L 700.227989 -46.872467 
L 699.057774 -46.771304 
L 697.887559 -46.675774 
L 696.717343 -46.586189 
L 695.547128 -46.502668 
L 694.376913 -46.425134 
L 693.206697 -46.353323 
L 692.036482 -46.286798 
L 690.866267 -46.224957 
L 689.696052 -46.167061 
L 688.525836 -46.112248 
L 687.355621 -46.059565 
L 686.185406 -46.007996 
L 685.01519 -45.95649 
L 683.844975 -45.904001 
L 682.67476 -45.849511 
L 681.504544 -45.792076 
L 680.334329 -45.730845 
L 679.164114 -45.6651 
L 677.993898 -45.594273 
L 676.823683 -45.517972 
L 675.653468 -45.435995 
L 674.483252 -45.348337 
L 673.313037 -45.255198 
L 672.142822 -45.156971 
L 670.972606 -45.054238 
L 669.802391 -44.94775 
L 668.632176 -44.838405 
L 667.46196 -44.727219 
L 666.291745 -44.615301 
L 665.12153 -44.503811 
L 663.951314 -44.393934 
L 662.781099 -44.286843 
L 661.610884 -44.183663 
L 660.440668 -44.085446 
L 659.270453 -43.993139 
L 658.100238 -43.907564 
L 656.930022 -43.829399 
L 655.759807 -43.759159 
L 654.589592 -43.697192 
L 653.419377 -43.643674 
L 652.249161 -43.598606 
L 651.078946 -43.561817 
L 649.908731 -43.532978 
L 648.738515 -43.511606 
L 647.5683 -43.497081 
L 646.398085 -43.488663 
L 645.227869 -43.48551 
L 644.057654 -43.486694 
L 642.887439 -43.491227 
L 641.717223 -43.49808 
L 640.547008 -43.506204 
L 639.376793 -43.514555 
L 638.206577 -43.522113 
L 637.036362 -43.527905 
L 635.866147 -43.531025 
L 634.695931 -43.530652 
L 633.525716 -43.526065 
L 632.355501 -43.516662 
L 631.185285 -43.501967 
L 630.01507 -43.481641 
L 628.844855 -43.455486 
L 627.674639 -43.423449 
L 626.504424 -43.385614 
L 625.334209 -43.342202 
L 624.163993 -43.29356 
L 622.993778 -43.240145 
L 621.823563 -43.182513 
L 620.653348 -43.1213 
L 619.483132 -43.057199 
L 618.312917 -42.990946 
L 617.142702 -42.923294 
L 615.972486 -42.854997 
L 614.802271 -42.786788 
L 613.632056 -42.719364 
L 612.46184 -42.653369 
L 611.291625 -42.589383 
L 610.12141 -42.527914 
L 608.951194 -42.469387 
L 607.780979 -42.414145 
L 606.610764 -42.362445 
L 605.440548 -42.314462 
L 604.270333 -42.270293 
L 603.100118 -42.229961 
L 601.929902 -42.193423 
L 600.759687 -42.160582 
L 599.589472 -42.131292 
L 598.419256 -42.105368 
L 597.249041 -42.082596 
L 596.078826 -42.062744 
L 594.90861 -42.045566 
L 593.738395 -42.030811 
L 592.56818 -42.01823 
L 591.397964 -42.007582 
L 590.227749 -41.998635 
L 589.057534 -41.991171 
L 587.887319 -41.984989 
L 586.717103 -41.979905 
L 585.546888 -41.975755 
L 584.376673 -41.97239 
L 583.206457 -41.969681 
L 582.036242 -41.967517 
z
" style="stroke: #1f77b4"/>
    </defs>
    <g clip-path="url(#pf68b9dd43b)">
     <use xlink:href="#m9867b1c5c1" x="0" y="216" style="fill: #1f77b4; fill-opacity: 0.25; stroke: #1f77b4"/>
    </g>
   </g>
   <g id="matplotlib.axis_1">
    <g id="xtick_1">
     <g id="line2d_1">
      <defs>
       <path id="ma93520510a" d="M 0 0 
L 0 3.5 
" style="stroke: #000000; stroke-width: 0.8"/>
      </defs>
      <g>
       <use xlink:href="#ma93520510a" x="56.228382" y="174.04" style="stroke: #000000; stroke-width: 0.8"/>
      </g>
     </g>
     <g id="text_1">
      <!-- 2 -->
      <g transform="translate(53.047132 188.638438)scale(0.1 -0.1)">
       <defs>
        <path id="DejaVuSans-32" d="M 1228 531 
L 3431 531 
L 3431 0 
L 469 0 
L 469 531 
Q 828 903 1448 1529 
Q 2069 2156 2228 2338 
Q 2531 2678 2651 2914 
Q 2772 3150 2772 3378 
Q 2772 3750 2511 3984 
Q 2250 4219 1831 4219 
Q 1534 4219 1204 4116 
Q 875 4013 500 3803 
L 500 4441 
Q 881 4594 1212 4672 
Q 1544 4750 1819 4750 
Q 2544 4750 2975 4387 
Q 3406 4025 3406 3419 
Q 3406 3131 3298 2873 
Q 3191 2616 2906 2266 
Q 2828 2175 2409 1742 
Q 1991 1309 1228 531 
z
" transform="scale(0.015625)"/>
       </defs>
       <use xlink:href="#DejaVuSans-32"/>
      </g>
     </g>
    </g>
    <g id="xtick_2">
     <g id="line2d_2">
      <g>
       <use xlink:href="#ma93520510a" x="201.991905" y="174.04" style="stroke: #000000; stroke-width: 0.8"/>
      </g>
     </g>
     <g id="text_2">
      <!-- 3 -->
      <g transform="translate(198.810655 188.638438)scale(0.1 -0.1)">
       <defs>
        <path id="DejaVuSans-33" d="M 2597 2516 
Q 3050 2419 3304 2112 
Q 3559 1806 3559 1356 
Q 3559 666 3084 287 
Q 2609 -91 1734 -91 
Q 1441 -91 1130 -33 
Q 819 25 488 141 
L 488 750 
Q 750 597 1062 519 
Q 1375 441 1716 441 
Q 2309 441 2620 675 
Q 2931 909 2931 1356 
Q 2931 1769 2642 2001 
Q 2353 2234 1838 2234 
L 1294 2234 
L 1294 2753 
L 1863 2753 
Q 2328 2753 2575 2939 
Q 2822 3125 2822 3475 
Q 2822 3834 2567 4026 
Q 2313 4219 1838 4219 
Q 1578 4219 1281 4162 
Q 984 4106 628 3988 
L 628 4550 
Q 988 4650 1302 4700 
Q 1616 4750 1894 4750 
Q 2613 4750 3031 4423 
Q 3450 4097 3450 3541 
Q 3450 3153 3228 2886 
Q 3006 2619 2597 2516 
z
" transform="scale(0.015625)"/>
       </defs>
       <use xlink:href="#DejaVuSans-33"/>
      </g>
     </g>
    </g>
    <g id="xtick_3">
     <g id="line2d_3">
      <g>
       <use xlink:href="#ma93520510a" x="347.755428" y="174.04" style="stroke: #000000; stroke-width: 0.8"/>
      </g>
     </g>
     <g id="text_3">
      <!-- 4 -->
      <g transform="translate(344.574178 188.638438)scale(0.1 -0.1)">
       <defs>
        <path id="DejaVuSans-34" d="M 2419 4116 
L 825 1625 
L 2419 1625 
L 2419 4116 
z
M 2253 4666 
L 3047 4666 
L 3047 1625 
L 3713 1625 
L 3713 1100 
L 3047 1100 
L 3047 0 
L 2419 0 
L 2419 1100 
L 313 1100 
L 313 1709 
L 2253 4666 
z
" transform="scale(0.015625)"/>
       </defs>
       <use xlink:href="#DejaVuSans-34"/>
      </g>
     </g>
    </g>
    <g id="xtick_4">
     <g id="line2d_4">
      <g>
       <use xlink:href="#ma93520510a" x="493.518951" y="174.04" style="stroke: #000000; stroke-width: 0.8"/>
      </g>
     </g>
     <g id="text_4">
      <!-- 5 -->
      <g transform="translate(490.337701 188.638438)scale(0.1 -0.1)">
       <defs>
        <path id="DejaVuSans-35" d="M 691 4666 
L 3169 4666 
L 3169 4134 
L 1269 4134 
L 1269 2991 
Q 1406 3038 1543 3061 
Q 1681 3084 1819 3084 
Q 2600 3084 3056 2656 
Q 3513 2228 3513 1497 
Q 3513 744 3044 326 
Q 2575 -91 1722 -91 
Q 1428 -91 1123 -41 
Q 819 9 494 109 
L 494 744 
Q 775 591 1075 516 
Q 1375 441 1709 441 
Q 2250 441 2565 725 
Q 2881 1009 2881 1497 
Q 2881 1984 2565 2268 
Q 2250 2553 1709 2553 
Q 1456 2553 1204 2497 
Q 953 2441 691 2322 
L 691 4666 
z
" transform="scale(0.015625)"/>
       </defs>
       <use xlink:href="#DejaVuSans-35"/>
      </g>
     </g>
    </g>
    <g id="xtick_5">
     <g id="line2d_5">
      <g>
       <use xlink:href="#ma93520510a" x="639.282474" y="174.04" style="stroke: #000000; stroke-width: 0.8"/>
      </g>
     </g>
     <g id="text_5">
      <!-- 6 -->
      <g transform="translate(636.101224 188.638438)scale(0.1 -0.1)">
       <defs>
        <path id="DejaVuSans-36" d="M 2113 2584 
Q 1688 2584 1439 2293 
Q 1191 2003 1191 1497 
Q 1191 994 1439 701 
Q 1688 409 2113 409 
Q 2538 409 2786 701 
Q 3034 994 3034 1497 
Q 3034 2003 2786 2293 
Q 2538 2584 2113 2584 
z
M 3366 4563 
L 3366 3988 
Q 3128 4100 2886 4159 
Q 2644 4219 2406 4219 
Q 1781 4219 1451 3797 
Q 1122 3375 1075 2522 
Q 1259 2794 1537 2939 
Q 1816 3084 2150 3084 
Q 2853 3084 3261 2657 
Q 3669 2231 3669 1497 
Q 3669 778 3244 343 
Q 2819 -91 2113 -91 
Q 1303 -91 875 529 
Q 447 1150 447 2328 
Q 447 3434 972 4092 
Q 1497 4750 2381 4750 
Q 2619 4750 2861 4703 
Q 3103 4656 3366 4563 
z
" transform="scale(0.015625)"/>
       </defs>
       <use xlink:href="#DejaVuSans-36"/>
      </g>
     </g>
    </g>
    <g id="xtick_6">
     <g id="line2d_6">
      <g>
       <use xlink:href="#ma93520510a" x="785.045996" y="174.04" style="stroke: #000000; stroke-width: 0.8"/>
      </g>
     </g>
     <g id="text_6">
      <!-- 7 -->
      <g transform="translate(781.864746 188.638438)scale(0.1 -0.1)">
       <defs>
        <path id="DejaVuSans-37" d="M 525 4666 
L 3525 4666 
L 3525 4397 
L 1831 0 
L 1172 0 
L 2766 4134 
L 525 4134 
L 525 4666 
z
" transform="scale(0.015625)"/>
       </defs>
       <use xlink:href="#DejaVuSans-37"/>
      </g>
     </g>
    </g>
    <g id="text_7">
     <!-- seconds -->
     <g transform="translate(411.5625 202.316563)scale(0.1 -0.1)">
      <defs>
       <path id="DejaVuSans-73" d="M 2834 3397 
L 2834 2853 
Q 2591 2978 2328 3040 
Q 2066 3103 1784 3103 
Q 1356 3103 1142 2972 
Q 928 2841 928 2578 
Q 928 2378 1081 2264 
Q 1234 2150 1697 2047 
L 1894 2003 
Q 2506 1872 2764 1633 
Q 3022 1394 3022 966 
Q 3022 478 2636 193 
Q 2250 -91 1575 -91 
Q 1294 -91 989 -36 
Q 684 19 347 128 
L 347 722 
Q 666 556 975 473 
Q 1284 391 1588 391 
Q 1994 391 2212 530 
Q 2431 669 2431 922 
Q 2431 1156 2273 1281 
Q 2116 1406 1581 1522 
L 1381 1569 
Q 847 1681 609 1914 
Q 372 2147 372 2553 
Q 372 3047 722 3315 
Q 1072 3584 1716 3584 
Q 2034 3584 2315 3537 
Q 2597 3491 2834 3397 
z
" transform="scale(0.015625)"/>
       <path id="DejaVuSans-65" d="M 3597 1894 
L 3597 1613 
L 953 1613 
Q 991 1019 1311 708 
Q 1631 397 2203 397 
Q 2534 397 2845 478 
Q 3156 559 3463 722 
L 3463 178 
Q 3153 47 2828 -22 
Q 2503 -91 2169 -91 
Q 1331 -91 842 396 
Q 353 884 353 1716 
Q 353 2575 817 3079 
Q 1281 3584 2069 3584 
Q 2775 3584 3186 3129 
Q 3597 2675 3597 1894 
z
M 3022 2063 
Q 3016 2534 2758 2815 
Q 2500 3097 2075 3097 
Q 1594 3097 1305 2825 
Q 1016 2553 972 2059 
L 3022 2063 
z
" transform="scale(0.015625)"/>
       <path id="DejaVuSans-63" d="M 3122 3366 
L 3122 2828 
Q 2878 2963 2633 3030 
Q 2388 3097 2138 3097 
Q 1578 3097 1268 2742 
Q 959 2388 959 1747 
Q 959 1106 1268 751 
Q 1578 397 2138 397 
Q 2388 397 2633 464 
Q 2878 531 3122 666 
L 3122 134 
Q 2881 22 2623 -34 
Q 2366 -91 2075 -91 
Q 1284 -91 818 406 
Q 353 903 353 1747 
Q 353 2603 823 3093 
Q 1294 3584 2113 3584 
Q 2378 3584 2631 3529 
Q 2884 3475 3122 3366 
z
" transform="scale(0.015625)"/>
       <path id="DejaVuSans-6f" d="M 1959 3097 
Q 1497 3097 1228 2736 
Q 959 2375 959 1747 
Q 959 1119 1226 758 
Q 1494 397 1959 397 
Q 2419 397 2687 759 
Q 2956 1122 2956 1747 
Q 2956 2369 2687 2733 
Q 2419 3097 1959 3097 
z
M 1959 3584 
Q 2709 3584 3137 3096 
Q 3566 2609 3566 1747 
Q 3566 888 3137 398 
Q 2709 -91 1959 -91 
Q 1206 -91 779 398 
Q 353 888 353 1747 
Q 353 2609 779 3096 
Q 1206 3584 1959 3584 
z
" transform="scale(0.015625)"/>
       <path id="DejaVuSans-6e" d="M 3513 2113 
L 3513 0 
L 2938 0 
L 2938 2094 
Q 2938 2591 2744 2837 
Q 2550 3084 2163 3084 
Q 1697 3084 1428 2787 
Q 1159 2491 1159 1978 
L 1159 0 
L 581 0 
L 581 3500 
L 1159 3500 
L 1159 2956 
Q 1366 3272 1645 3428 
Q 1925 3584 2291 3584 
Q 2894 3584 3203 3211 
Q 3513 2838 3513 2113 
z
" transform="scale(0.015625)"/>
       <path id="DejaVuSans-64" d="M 2906 2969 
L 2906 4863 
L 3481 4863 
L 3481 0 
L 2906 0 
L 2906 525 
Q 2725 213 2448 61 
Q 2172 -91 1784 -91 
Q 1150 -91 751 415 
Q 353 922 353 1747 
Q 353 2572 751 3078 
Q 1150 3584 1784 3584 
Q 2172 3584 2448 3432 
Q 2725 3281 2906 2969 
z
M 947 1747 
Q 947 1113 1208 752 
Q 1469 391 1925 391 
Q 2381 391 2643 752 
Q 2906 1113 2906 1747 
Q 2906 2381 2643 2742 
Q 2381 3103 1925 3103 
Q 1469 3103 1208 2742 
Q 947 2381 947 1747 
z
" transform="scale(0.015625)"/>
      </defs>
      <use xlink:href="#DejaVuSans-73"/>
      <use xlink:href="#DejaVuSans-65" x="52.099609"/>
      <use xlink:href="#DejaVuSans-63" x="113.623047"/>
      <use xlink:href="#DejaVuSans-6f" x="168.603516"/>
      <use xlink:href="#DejaVuSans-6e" x="229.785156"/>
      <use xlink:href="#DejaVuSans-64" x="293.164062"/>
      <use xlink:href="#DejaVuSans-73" x="356.640625"/>
     </g>
    </g>
   </g>
   <g id="patch_3">
    <path d="M 10.8 174.04 
L 853.2 174.04 
" style="fill: none; stroke: #000000; stroke-width: 0.8; stroke-linejoin: miter; stroke-linecap: square"/>
   </g>
   <g id="legend_1">
    <g id="patch_4">
     <path d="M 708.904688 27.398438 
L 728.904688 27.398438 
L 728.904688 20.398438 
L 708.904688 20.398438 
z
" style="fill: #1f77b4; fill-opacity: 0.25; stroke: #1f77b4; stroke-linejoin: miter"/>
    </g>
    <g id="text_8">
     <!-- asyncpg_fetch -->
     <g transform="translate(736.904688 27.398438)scale(0.1 -0.1)">
      <defs>
       <path id="DejaVuSans-61" d="M 2194 1759 
Q 1497 1759 1228 1600 
Q 959 1441 959 1056 
Q 959 750 1161 570 
Q 1363 391 1709 391 
Q 2188 391 2477 730 
Q 2766 1069 2766 1631 
L 2766 1759 
L 2194 1759 
z
M 3341 1997 
L 3341 0 
L 2766 0 
L 2766 531 
Q 2569 213 2275 61 
Q 1981 -91 1556 -91 
Q 1019 -91 701 211 
Q 384 513 384 1019 
Q 384 1609 779 1909 
Q 1175 2209 1959 2209 
L 2766 2209 
L 2766 2266 
Q 2766 2663 2505 2880 
Q 2244 3097 1772 3097 
Q 1472 3097 1187 3025 
Q 903 2953 641 2809 
L 641 3341 
Q 956 3463 1253 3523 
Q 1550 3584 1831 3584 
Q 2591 3584 2966 3190 
Q 3341 2797 3341 1997 
z
" transform="scale(0.015625)"/>
       <path id="DejaVuSans-79" d="M 2059 -325 
Q 1816 -950 1584 -1140 
Q 1353 -1331 966 -1331 
L 506 -1331 
L 506 -850 
L 844 -850 
Q 1081 -850 1212 -737 
Q 1344 -625 1503 -206 
L 1606 56 
L 191 3500 
L 800 3500 
L 1894 763 
L 2988 3500 
L 3597 3500 
L 2059 -325 
z
" transform="scale(0.015625)"/>
       <path id="DejaVuSans-70" d="M 1159 525 
L 1159 -1331 
L 581 -1331 
L 581 3500 
L 1159 3500 
L 1159 2969 
Q 1341 3281 1617 3432 
Q 1894 3584 2278 3584 
Q 2916 3584 3314 3078 
Q 3713 2572 3713 1747 
Q 3713 922 3314 415 
Q 2916 -91 2278 -91 
Q 1894 -91 1617 61 
Q 1341 213 1159 525 
z
M 3116 1747 
Q 3116 2381 2855 2742 
Q 2594 3103 2138 3103 
Q 1681 3103 1420 2742 
Q 1159 2381 1159 1747 
Q 1159 1113 1420 752 
Q 1681 391 2138 391 
Q 2594 391 2855 752 
Q 3116 1113 3116 1747 
z
" transform="scale(0.015625)"/>
       <path id="DejaVuSans-67" d="M 2906 1791 
Q 2906 2416 2648 2759 
Q 2391 3103 1925 3103 
Q 1463 3103 1205 2759 
Q 947 2416 947 1791 
Q 947 1169 1205 825 
Q 1463 481 1925 481 
Q 2391 481 2648 825 
Q 2906 1169 2906 1791 
z
M 3481 434 
Q 3481 -459 3084 -895 
Q 2688 -1331 1869 -1331 
Q 1566 -1331 1297 -1286 
Q 1028 -1241 775 -1147 
L 775 -588 
Q 1028 -725 1275 -790 
Q 1522 -856 1778 -856 
Q 2344 -856 2625 -561 
Q 2906 -266 2906 331 
L 2906 616 
Q 2728 306 2450 153 
Q 2172 0 1784 0 
Q 1141 0 747 490 
Q 353 981 353 1791 
Q 353 2603 747 3093 
Q 1141 3584 1784 3584 
Q 2172 3584 2450 3431 
Q 2728 3278 2906 2969 
L 2906 3500 
L 3481 3500 
L 3481 434 
z
" transform="scale(0.015625)"/>
       <path id="DejaVuSans-5f" d="M 3263 -1063 
L 3263 -1509 
L -63 -1509 
L -63 -1063 
L 3263 -1063 
z
" transform="scale(0.015625)"/>
       <path id="DejaVuSans-66" d="M 2375 4863 
L 2375 4384 
L 1825 4384 
Q 1516 4384 1395 4259 
Q 1275 4134 1275 3809 
L 1275 3500 
L 2222 3500 
L 2222 3053 
L 1275 3053 
L 1275 0 
L 697 0 
L 697 3053 
L 147 3053 
L 147 3500 
L 697 3500 
L 697 3744 
Q 697 4328 969 4595 
Q 1241 4863 1831 4863 
L 2375 4863 
z
" transform="scale(0.015625)"/>
       <path id="DejaVuSans-74" d="M 1172 4494 
L 1172 3500 
L 2356 3500 
L 2356 3053 
L 1172 3053 
L 1172 1153 
Q 1172 725 1289 603 
Q 1406 481 1766 481 
L 2356 481 
L 2356 0 
L 1766 0 
Q 1100 0 847 248 
Q 594 497 594 1153 
L 594 3053 
L 172 3053 
L 172 3500 
L 594 3500 
L 594 4494 
L 1172 4494 
z
" transform="scale(0.015625)"/>
       <path id="DejaVuSans-68" d="M 3513 2113 
L 3513 0 
L 2938 0 
L 2938 2094 
Q 2938 2591 2744 2837 
Q 2550 3084 2163 3084 
Q 1697 3084 1428 2787 
Q 1159 2491 1159 1978 
L 1159 0 
L 581 0 
L 581 4863 
L 1159 4863 
L 1159 2956 
Q 1366 3272 1645 3428 
Q 1925 3584 2291 3584 
Q 2894 3584 3203 3211 
Q 3513 2838 3513 2113 
z
" transform="scale(0.015625)"/>
      </defs>
      <use xlink:href="#DejaVuSans-61"/>
      <use xlink:href="#DejaVuSans-73" x="61.279297"/>
      <use xlink:href="#DejaVuSans-79" x="113.378906"/>
      <use xlink:href="#DejaVuSans-6e" x="172.558594"/>
      <use xlink:href="#DejaVuSans-63" x="235.9375"/>
      <use xlink:href="#DejaVuSans-70" x="290.917969"/>
      <use xlink:href="#DejaVuSans-67" x="354.394531"/>
      <use xlink:href="#DejaVuSans-5f" x="417.871094"/>
      <use xlink:href="#DejaVuSans-66" x="467.871094"/>
      <use xlink:href="#DejaVuSans-65" x="503.076172"/>
      <use xlink:href="#DejaVuSans-74" x="564.599609"/>
      <use xlink:href="#DejaVuSans-63" x="603.808594"/>
      <use xlink:href="#DejaVuSans-68" x="658.789062"/>
     </g>
    </g>
    <g id="patch_5">
     <path d="M 708.904688 42.354688 
L 728.904688 42.354688 
L 728.904688 35.354688 
L 708.904688 35.354688 
z
" style="fill: #ff7f0e; fill-opacity: 0.25; stroke: #ff7f0e; stroke-linejoin: miter"/>
    </g>
    <g id="text_9">
     <!-- asyncpg_copy_csv -->
     <g transform="translate(736.904688 42.354688)scale(0.1 -0.1)">
      <defs>
       <path id="DejaVuSans-76" d="M 191 3500 
L 800 3500 
L 1894 563 
L 2988 3500 
L 3597 3500 
L 2284 0 
L 1503 0 
L 191 3500 
z
" transform="scale(0.015625)"/>
      </defs>
      <use xlink:href="#DejaVuSans-61"/>
      <use xlink:href="#DejaVuSans-73" x="61.279297"/>
      <use xlink:href="#DejaVuSans-79" x="113.378906"/>
      <use xlink:href="#DejaVuSans-6e" x="172.558594"/>
      <use xlink:href="#DejaVuSans-63" x="235.9375"/>
      <use xlink:href="#DejaVuSans-70" x="290.917969"/>
      <use xlink:href="#DejaVuSans-67" x="354.394531"/>
      <use xlink:href="#DejaVuSans-5f" x="417.871094"/>
      <use xlink:href="#DejaVuSans-63" x="467.871094"/>
      <use xlink:href="#DejaVuSans-6f" x="522.851562"/>
      <use xlink:href="#DejaVuSans-70" x="584.033203"/>
      <use xlink:href="#DejaVuSans-79" x="647.509766"/>
      <use xlink:href="#DejaVuSans-5f" x="706.689453"/>
      <use xlink:href="#DejaVuSans-63" x="756.689453"/>
      <use xlink:href="#DejaVuSans-73" x="811.669922"/>
      <use xlink:href="#DejaVuSans-76" x="863.769531"/>
     </g>
    </g>
    <g id="patch_6">
     <path d="M 708.904688 57.310937 
L 728.904688 57.310937 
L 728.904688 50.310937 
L 708.904688 50.310937 
z
" style="fill: #2ca02c; fill-opacity: 0.25; stroke: #2ca02c; stroke-linejoin: miter"/>
    </g>
    <g id="text_10">
     <!-- asyncpg_copy_binary -->
     <g transform="translate(736.904688 57.310937)scale(0.1 -0.1)">
      <defs>
       <path id="DejaVuSans-62" d="M 3116 1747 
Q 3116 2381 2855 2742 
Q 2594 3103 2138 3103 
Q 1681 3103 1420 2742 
Q 1159 2381 1159 1747 
Q 1159 1113 1420 752 
Q 1681 391 2138 391 
Q 2594 391 2855 752 
Q 3116 1113 3116 1747 
z
M 1159 2969 
Q 1341 3281 1617 3432 
Q 1894 3584 2278 3584 
Q 2916 3584 3314 3078 
Q 3713 2572 3713 1747 
Q 3713 922 3314 415 
Q 2916 -91 2278 -91 
Q 1894 -91 1617 61 
Q 1341 213 1159 525 
L 1159 0 
L 581 0 
L 581 4863 
L 1159 4863 
L 1159 2969 
z
" transform="scale(0.015625)"/>
       <path id="DejaVuSans-69" d="M 603 3500 
L 1178 3500 
L 1178 0 
L 603 0 
L 603 3500 
z
M 603 4863 
L 1178 4863 
L 1178 4134 
L 603 4134 
L 603 4863 
z
" transform="scale(0.015625)"/>
       <path id="DejaVuSans-72" d="M 2631 2963 
Q 2534 3019 2420 3045 
Q 2306 3072 2169 3072 
Q 1681 3072 1420 2755 
Q 1159 2438 1159 1844 
L 1159 0 
L 581 0 
L 581 3500 
L 1159 3500 
L 1159 2956 
Q 1341 3275 1631 3429 
Q 1922 3584 2338 3584 
Q 2397 3584 2469 3576 
Q 2541 3569 2628 3553 
L 2631 2963 
z
" transform="scale(0.015625)"/>
      </defs>
      <use xlink:href="#DejaVuSans-61"/>
      <use xlink:href="#DejaVuSans-73" x="61.279297"/>
      <use xlink:href="#DejaVuSans-79" x="113.378906"/>
      <use xlink:href="#DejaVuSans-6e" x="172.558594"/>
      <use xlink:href="#DejaVuSans-63" x="235.9375"/>
      <use xlink:href="#DejaVuSans-70" x="290.917969"/>
      <use xlink:href="#DejaVuSans-67" x="354.394531"/>
      <use xlink:href="#DejaVuSans-5f" x="417.871094"/>
      <use xlink:href="#DejaVuSans-63" x="467.871094"/>
      <use xlink:href="#DejaVuSans-6f" x="522.851562"/>
      <use xlink:href="#DejaVuSans-70" x="584.033203"/>
      <use xlink:href="#DejaVuSans-79" x="647.509766"/>
      <use xlink:href="#DejaVuSans-5f" x="706.689453"/>
      <use xlink:href="#DejaVuSans-62" x="756.689453"/>
      <use xlink:href="#DejaVuSans-69" x="820.166016"/>
      <use xlink:href="#DejaVuSans-6e" x="847.949219"/>
      <use xlink:href="#DejaVuSans-61" x="911.328125"/>
      <use xlink:href="#DejaVuSans-72" x="972.607422"/>
      <use xlink:href="#DejaVuSans-79" x="1013.720703"/>
     </g>
    </g>
    <g id="patch_7">
     <path d="M 708.904688 72.267188 
L 728.904688 72.267188 
L 728.904688 65.267188 
L 708.904688 65.267188 
z
" style="fill: #d62728; fill-opacity: 0.25; stroke: #d62728; stroke-linejoin: miter"/>
    </g>
    <g id="text_11">
     <!-- python_pgeon_copy -->
     <g transform="translate(736.904688 72.267188)scale(0.1 -0.1)">
      <use xlink:href="#DejaVuSans-70"/>
      <use xlink:href="#DejaVuSans-79" x="63.476562"/>
      <use xlink:href="#DejaVuSans-74" x="122.65625"/>
      <use xlink:href="#DejaVuSans-68" x="161.865234"/>
      <use xlink:href="#DejaVuSans-6f" x="225.244141"/>
      <use xlink:href="#DejaVuSans-6e" x="286.425781"/>
      <use xlink:href="#DejaVuSans-5f" x="349.804688"/>
      <use xlink:href="#DejaVuSans-70" x="399.804688"/>
      <use xlink:href="#DejaVuSans-67" x="463.28125"/>
      <use xlink:href="#DejaVuSans-65" x="526.757812"/>
      <use xlink:href="#DejaVuSans-6f" x="588.28125"/>
      <use xlink:href="#DejaVuSans-6e" x="649.462891"/>
      <use xlink:href="#DejaVuSans-5f" x="712.841797"/>
      <use xlink:href="#DejaVuSans-63" x="762.841797"/>
      <use xlink:href="#DejaVuSans-6f" x="817.822266"/>
      <use xlink:href="#DejaVuSans-70" x="879.003906"/>
      <use xlink:href="#DejaVuSans-79" x="942.480469"/>
     </g>
    </g>
   </g>
  </g>
 </g>
 <defs>
  <clipPath id="pf68b9dd43b">
   <rect x="10.8" y="10.8" width="842.4" height="163.24"/>
  </clipPath>
 </defs>
</svg>
